<svg xmlns="http://www.w3.org/2000/svg" width="149.526" height="127.979" viewBox="0 0 149.526 127.979">
  <g id="Group_723" data-name="Group 723" transform="translate(-1244.982 -6098.606)">
    <path id="Path_3382" data-name="Path 3382" d="M53.715,60.5C70.17,60.5,75,76.044,93.956,95s55.57,9.077,55.57,34.492c0,41.869-31.845,58.995-73.715,58.995A75.811,75.811,0,0,1,0,112.672C0,70.8,11.846,60.5,53.715,60.5Z" transform="translate(1244.982 6038.102)" fill="#ffe2ef"/>
    <g id="group" transform="translate(1257.995 6123.863)">
      <g id="Group_708" data-name="Group 708" transform="translate(16.005 63.368)">
        <g id="Group_707" data-name="Group 707" transform="translate(0)">
          <path id="Path_3377" data-name="Path 3377" d="M85.542,268.65H74.965a12.636,12.636,0,0,0-6.237,1.642,12.862,12.862,0,0,0-4.1,3.689,12.677,12.677,0,0,0-2.189-.189H51.849a12.659,12.659,0,0,0-2.189.189,12.852,12.852,0,0,0-4.1-3.689,12.636,12.636,0,0,0-6.237-1.642H28.742a12.766,12.766,0,0,0-12.737,12.737v7.18a1.368,1.368,0,0,0,1.368,1.359h21.7V293.7a1.368,1.368,0,0,0,1.368,1.368H73.8a1.368,1.368,0,0,0,1.368-1.368v-3.774h21.7a1.368,1.368,0,0,0,1.368-1.368v-7.171A12.766,12.766,0,0,0,85.542,268.65ZM39.215,285.3v1.887H18.741v-5.8a10.029,10.029,0,0,1,10-10H39.319a9.907,9.907,0,0,1,4.887,1.283,10.163,10.163,0,0,1,2.651,2.161A12.8,12.8,0,0,0,39.215,285.3Zm33.193,1.227v5.812H41.848v-7.954l.057-.226.094-.34.066-.226a10.058,10.058,0,0,1,9.511-6.906l.274-.151H62.435a10.039,10.039,0,0,1,9.916,8.727,2.322,2.322,0,0,0,.057.623Zm23.135.67H75.163v-3.963L75.1,283v-.462l-.132-.368a12.841,12.841,0,0,0-6.944-7.274,10.162,10.162,0,0,1,2.047-2.227,9.907,9.907,0,0,1,4.887-1.283H85.542a10.029,10.029,0,0,1,10,10Z" transform="translate(-16.005 -268.65)" fill="#ff62a7"/>
        </g>
      </g>
      <g id="Group_710" data-name="Group 710" transform="translate(55.651 16.816)">
        <g id="Group_709" data-name="Group 709">
          <circle id="Ellipse_350" data-name="Ellipse 350" cx="1.547" cy="1.547" r="1.547" fill="#ff62a7"/>
        </g>
      </g>
      <g id="Group_712" data-name="Group 712" transform="translate(24.384 41.79)">
        <g id="Group_711" data-name="Group 711">
          <path id="Path_3378" data-name="Path 3378" d="M67.983,180a9.633,9.633,0,1,0,2.813,6.811A9.6,9.6,0,0,0,67.983,180Zm-1.934,11.671a6.9,6.9,0,1,1,2.019-4.878A6.9,6.9,0,0,1,66.049,191.672Z" transform="translate(-51.529 -177.17)" fill="#ff62a7"/>
        </g>
      </g>
      <g id="Group_714" data-name="Group 714" transform="translate(65.652 16.816)">
        <g id="Group_713" data-name="Group 713">
          <circle id="Ellipse_351" data-name="Ellipse 351" cx="1.547" cy="1.547" r="1.547" fill="#ff62a7"/>
        </g>
      </g>
      <g id="Group_716" data-name="Group 716" transform="translate(34.186 0)">
        <g id="Group_715" data-name="Group 715" transform="translate(0)">
          <path id="Path_3379" data-name="Path 3379" d="M132.156,5.362a26.909,26.909,0,0,0-32.23,0,17.048,17.048,0,0,0-6.84,13.275,15.681,15.681,0,0,0,1.953,7.548,19.06,19.06,0,0,0,4.8,5.661l-1.085,7.218a1.359,1.359,0,0,0,2.029,1.378l7.378-4.3a26.964,26.964,0,0,0,3.566.8,28.318,28.318,0,0,0,4.321.33,25.861,25.861,0,0,0,16.115-5.359C136.383,28.525,139,23.835,139,18.637A17.048,17.048,0,0,0,132.156,5.362Zm-1.7,24.437a23.125,23.125,0,0,1-14.417,4.718,25.593,25.593,0,0,1-3.9-.292,24.24,24.24,0,0,1-3.774-.877,1.359,1.359,0,0,0-1.094.123l-5.387,3.18.783-5.189a1.368,1.368,0,0,0-.557-1.311A16.56,16.56,0,0,1,97.4,24.864a12.965,12.965,0,0,1-1.6-6.227,14.367,14.367,0,0,1,5.8-11.152,24.388,24.388,0,0,1,28.834,0,14.31,14.31,0,0,1,5.8,11.152A14.368,14.368,0,0,1,130.457,29.8Z" transform="translate(-93.085 0)" fill="#ff62a7"/>
        </g>
      </g>
      <g id="Group_718" data-name="Group 718" transform="translate(70.624 41.781)">
        <g id="Group_717" data-name="Group 717">
          <path id="Path_3380" data-name="Path 3380" d="M257.2,177.13a9.633,9.633,0,1,0,9.625,9.642A9.633,9.633,0,0,0,257.2,177.13Zm4.87,14.507a6.9,6.9,0,1,1,0-9.754A6.9,6.9,0,0,1,262.074,191.637Z" transform="translate(-247.562 -177.13)" fill="#ff62a7"/>
        </g>
      </g>
      <g id="Group_720" data-name="Group 720" transform="translate(45.65 16.816)">
        <g id="Group_719" data-name="Group 719" transform="translate(0)">
          <circle id="Ellipse_352" data-name="Ellipse 352" cx="1.547" cy="1.547" r="1.547" fill="#ff62a7"/>
        </g>
      </g>
      <g id="Group_722" data-name="Group 722" transform="translate(47.523 46.923)">
        <g id="Group_721" data-name="Group 721">
          <path id="Path_3381" data-name="Path 3381" d="M166.042,201.737a9.624,9.624,0,1,0,.024,13.61A9.624,9.624,0,0,0,166.042,201.737Zm-6.8,13.731a6.9,6.9,0,1,1,6.9-6.9A6.9,6.9,0,0,1,159.242,215.468Z" transform="translate(-149.625 -198.93)" fill="#ff62a7"/>
        </g>
      </g>
    </g>
  </g>
</svg>
