<svg xmlns="http://www.w3.org/2000/svg" width="149.526" height="127.979" viewBox="0 0 149.526 127.979">
  <g id="Group_728" data-name="Group 728" transform="translate(-392 -5671)">
    <g id="Group_727" data-name="Group 727" transform="translate(-771.982 -238.606)">
      <path id="Path_3374" data-name="Path 3374" d="M53.715,60.5C70.17,60.5,75,76.044,93.956,95s55.57,9.077,55.57,34.492c0,41.869-31.845,58.995-73.715,58.995A75.811,75.811,0,0,1,0,112.672C0,70.8,11.846,60.5,53.715,60.5Z" transform="translate(1163.982 5849.102)" fill="#ffe2ef"/>
    </g>
    <g id="gear" transform="translate(421 5709)">
      <path id="Path_3383" data-name="Path 3383" d="M63.517,59.034a4.435,4.435,0,0,0-2.264.634l-4.385-4.386a29.068,29.068,0,0,0,0-39.56l4.385-4.386a4.435,4.435,0,0,0,2.264.63,4.483,4.483,0,1,0-4.483-4.483,4.435,4.435,0,0,0,.634,2.264l-4.386,4.385a29.068,29.068,0,0,0-39.56,0L11.331,9.747a4.435,4.435,0,0,0,.634-2.264,4.483,4.483,0,1,0-4.483,4.483,4.435,4.435,0,0,0,2.264-.634l4.385,4.386a29.068,29.068,0,0,0,0,39.56L9.747,59.669a4.435,4.435,0,0,0-2.264-.634,4.483,4.483,0,1,0,4.483,4.483,4.435,4.435,0,0,0-.634-2.264l4.386-4.385a29.068,29.068,0,0,0,39.56,0l4.386,4.385a4.435,4.435,0,0,0-.63,2.264,4.483,4.483,0,1,0,4.483-4.483ZM35.5,62.4a26.793,26.793,0,0,1-18.2-7.113L19.482,53.1,17.9,51.518,15.716,53.7a26.837,26.837,0,0,1,0-36.4L17.9,19.482,19.482,17.9,17.3,15.716a26.837,26.837,0,0,1,36.4,0L51.518,17.9,53.1,19.482,55.284,17.3a26.837,26.837,0,0,1,0,36.4L53.1,51.518,51.518,53.1,53.7,55.284A26.793,26.793,0,0,1,35.5,62.4Z" transform="translate(0)" fill="#ff62a7"/>
      <circle id="Ellipse_353" data-name="Ellipse 353" cx="6" cy="6" r="6" transform="translate(29.5 29.5)" fill="#ff62a7"/>
      <path id="Path_3384" data-name="Path 3384" d="M27.158,48.419a1.219,1.219,0,0,1,1.317-.094,14.5,14.5,0,0,0,2.925,1.2,1.219,1.219,0,0,1,.865,1L32.9,55h5.2l.637-4.473a1.219,1.219,0,0,1,.865-1,14.5,14.5,0,0,0,2.925-1.2,1.219,1.219,0,0,1,1.317.094l3.609,2.706,3.676-3.676-2.71-3.609a1.219,1.219,0,0,1-.094-1.317,14.5,14.5,0,0,0,1.2-2.925,1.219,1.219,0,0,1,1-.865L55,38.1V32.9l-4.473-.637a1.219,1.219,0,0,1-1-.865,14.411,14.411,0,0,0-1.2-2.925,1.219,1.219,0,0,1,.1-1.317l2.706-3.609-3.676-3.676-3.609,2.71a1.219,1.219,0,0,1-1.317.1,14.412,14.412,0,0,0-2.925-1.2,1.219,1.219,0,0,1-.865-1L38.1,16H32.9l-.637,4.473a1.219,1.219,0,0,1-.865,1,14.412,14.412,0,0,0-2.925,1.2,1.219,1.219,0,0,1-1.317-.1l-3.609-2.706-3.676,3.676,2.706,3.609a1.219,1.219,0,0,1,.1,1.317,14.411,14.411,0,0,0-1.2,2.925,1.219,1.219,0,0,1-1,.865L16,32.9v5.2l4.473.637a1.219,1.219,0,0,1,1,.865,14.5,14.5,0,0,0,1.2,2.925,1.219,1.219,0,0,1-.094,1.317l-2.706,3.609,3.676,3.676ZM50.125,34.281h2.438v2.438H50.125Zm-29.25,2.438H18.438V34.281h2.438ZM36.719,52.563H34.281V50.125h2.438ZM48.426,46.7,46.7,48.426,44.979,46.7,46.7,44.979ZM46.7,22.572l1.723,1.723L46.7,26.018l-1.723-1.723ZM34.281,18.438h2.438v2.438H34.281ZM35.5,25.75a9.75,9.75,0,1,1-9.75,9.75A9.75,9.75,0,0,1,35.5,25.75ZM22.574,24.3,24.3,22.574,26.021,24.3,24.3,26.021ZM24.3,44.979,26.021,46.7,24.3,48.426,22.574,46.7Z" fill="#ff62a7"/>
    </g>
  </g>
</svg>
