<svg xmlns="http://www.w3.org/2000/svg" width="149.526" height="127.979" viewBox="0 0 149.526 127.979">
  <g id="Group_726" data-name="Group 726" transform="translate(-485 -5957)">
    <g id="Group_725" data-name="Group 725" transform="translate(-678.982 47.394)">
      <path id="Path_3374" data-name="Path 3374" d="M53.715,60.5C70.17,60.5,75,76.044,93.956,95s55.57,9.077,55.57,34.492c0,41.869-31.845,58.995-73.715,58.995A75.811,75.811,0,0,1,0,112.672C0,70.8,11.846,60.5,53.715,60.5Z" transform="translate(1163.982 5849.102)" fill="#ffe2ef"/>
    </g>
    <g id="recruitment_1_" data-name="recruitment (1)" transform="translate(518 5986.991)">
      <g id="Group_617" data-name="Group 617" transform="translate(0 17.349)">
        <g id="Group_616" data-name="Group 616">
          <path id="Path_3350" data-name="Path 3350" d="M75,132.935a7.279,7.279,0,0,0,1-4v-1c0-3.786-2.214-7-6-7a7.211,7.211,0,0,0-5,2c-3.215-9.563-12.367-17-23-17s-19.785,7.437-23,17a7.211,7.211,0,0,0-5-2,7.1,7.1,0,0,0-7,7v1a7.279,7.279,0,0,0,1,4,9.932,9.932,0,0,0-8,10v3a2.332,2.332,0,0,0,2,2h8a2.332,2.332,0,0,0,2-2c0-.9-1.1-1-2-1H3v-2a6.847,6.847,0,0,1,7-7h8a20.3,20.3,0,0,0,3,7l-18,19a6.557,6.557,0,0,0,0,9,5.631,5.631,0,0,0,4,2,5.631,5.631,0,0,0,4-2l11-11a1.285,1.285,0,0,0,0-2,2.594,2.594,0,0,0-3,0l-10,10a2.828,2.828,0,0,1-4-4l18-18a25.88,25.88,0,0,0,19,9c11.476,0,20.557-8.253,23-19h8a6.847,6.847,0,0,1,7,7v2H65c-.9,0-2,.1-2,1a2.332,2.332,0,0,0,2,2H82a2.332,2.332,0,0,0,2-2v-3C84,137.889,79.753,133.937,75,132.935Zm-57-4a4.323,4.323,0,0,1-4,4,4.323,4.323,0,0,1-4-4v-1a4.323,4.323,0,0,1,4-4,4.323,4.323,0,0,1,4,4Zm24,22a21.105,21.105,0,0,1-21-21c0-11.517,9.483-20,21-20s21,8.483,21,20A21.105,21.105,0,0,1,42,150.935Zm31-22c0,1.987-1.013,4-3,4a4.323,4.323,0,0,1-4-4v-1a4.323,4.323,0,0,1,4-4c1.987,0,3,2.013,3,4Z" transform="translate(0 -106.275)" fill="#ff62a7"/>
        </g>
      </g>
      <g id="Group_619" data-name="Group 619" transform="translate(24.15 23.876)">
        <g id="Group_618" data-name="Group 618">
          <path id="Path_3351" data-name="Path 3351" d="M165.85,146.408c-9.717,0-18,7.283-18,17a18.425,18.425,0,0,0,6,13c.058.063-.069-.054,0,0a16.9,16.9,0,0,0,24,0c.069-.054-.058.063,0,0,3.407-3.215,5-7.956,5-13A16.6,16.6,0,0,0,165.85,146.408Zm0,32a14.52,14.52,0,0,1-9-3c1.734-3.28,5.22-6,9-6s7.266,2.72,9,6A14.52,14.52,0,0,1,165.85,178.408Zm-4-15v-2c0-1.9,2.1-3,4-3a2.74,2.74,0,0,1,3,3v2a2.74,2.74,0,0,1-3,3C163.954,166.408,161.85,165.3,161.85,163.408Zm15,9a12.157,12.157,0,0,0-6-5c1.036-1.18,1-2.31,1-4v-2c0-3.7-2.3-6-6-6s-7,2.3-7,6v2c0,1.69.964,2.82,2,4-2.561,1.037-5.505,2.615-7,5a14.577,14.577,0,0,1-3-9c0-7.918,7.082-14,15-14a13.769,13.769,0,0,1,14,14A14.577,14.577,0,0,1,176.85,172.408Z" transform="translate(-148 -146.275)" fill="#ff62a7"/>
        </g>
      </g>
      <g id="Group_621" data-name="Group 621" transform="translate(23.301 64.348)">
        <g id="Group_620" data-name="Group 620">
          <path id="Path_3352" data-name="Path 3352" d="M145.5,394.97c-.3-.3-.571-1-1-1s-.7.7-1,1-1,.571-1,1,.7.7,1,1,.571,1,1,1,.7-.7,1-1,1-.571,1-1S145.8,395.273,145.5,394.97Z" transform="translate(-142.8 -394.309)" fill="#ff62a7"/>
        </g>
      </g>
      <g id="Group_623" data-name="Group 623" transform="translate(40.174 0.009)">
        <g id="Group_622" data-name="Group 622" transform="translate(0 0)">
          <path id="Path_3353" data-name="Path 3353" d="M248.029.009a2.332,2.332,0,0,0-2,2v5a2.331,2.331,0,0,0,2,2c.9,0,1-1.1,1-2v-5C249.029,1.108,248.931.009,248.029.009Z" transform="translate(-246.203 -0.009)" fill="#ff62a7"/>
        </g>
      </g>
      <g id="Group_625" data-name="Group 625" transform="translate(40.173 10.942)">
        <g id="Group_624" data-name="Group 624">
          <path id="Path_3354" data-name="Path 3354" d="M249.027,67.076c-.3-.3-.569,0-1,0s-.7-.3-1,0a5.149,5.149,0,0,0-1,2c0,.429.7.7,1,1s.571,0,1,0,.7.3,1,0,0-.571,0-1S249.331,67.38,249.027,67.076Z" transform="translate(-246.2 -67.009)" fill="#ff62a7"/>
        </g>
      </g>
      <g id="Group_627" data-name="Group 627" transform="translate(49.985 5.932)">
        <g id="Group_626" data-name="Group 626">
          <path id="Path_3355" data-name="Path 3355" d="M312.346,36.384a2.594,2.594,0,0,0-3,0l-3,3a2.593,2.593,0,0,0,0,3c.319.319,1.582,0,2,0s.681.319,1,0l3-3A2.593,2.593,0,0,0,312.346,36.384Z" transform="translate(-306.331 -36.307)" fill="#ff62a7"/>
        </g>
      </g>
      <g id="Group_629" data-name="Group 629" transform="translate(27.428 5.924)">
        <g id="Group_628" data-name="Group 628">
          <path id="Path_3356" data-name="Path 3356" d="M173.663,39.344l-3-3a1.285,1.285,0,0,0-2,0,2.593,2.593,0,0,0,0,3l3,3c.319.319.582,0,1,0s.681.319,1,0A2.593,2.593,0,0,0,173.663,39.344Z" transform="translate(-168.091 -36.259)" fill="#ff62a7"/>
        </g>
      </g>
    </g>
  </g>
</svg>
