<svg xmlns="http://www.w3.org/2000/svg" width="149.526" height="127.979" viewBox="0 0 149.526 127.979">
  <g id="Group_705" data-name="Group 705" transform="translate(-1049 -5782)">
    <path id="Path_3375" data-name="Path 3375" d="M53.715,60.5C70.17,60.5,75,76.044,93.956,95s55.57,9.077,55.57,34.492c0,41.869-31.845,58.995-73.715,58.995A75.811,75.811,0,0,1,0,112.672C0,70.8,11.846,60.5,53.715,60.5Z" transform="translate(1049 5721.495)" fill="#ffe2ef"/>
    <g id="remote_1_" data-name="remote (1)" transform="translate(1079 5814)">
      <path id="Path_3362" data-name="Path 3362" d="M151.007,235.331a1,1,0,0,0,2,0c0-2.4-1.6-5-4-5h-18v-2c0-.655-1.344-1-2-1a.893.893,0,0,0-1,1v2h-18c-2.4,0-4,2.6-4,5a1,1,0,0,0,2,0,2.018,2.018,0,0,1,2-2h39A2.019,2.019,0,0,1,151.007,235.331Zm0,0" transform="translate(-89.006 -191.331)" fill="#ff62a7"/>
      <path id="Path_3363" data-name="Path 3363" d="M314.843,302.923h-29a2.672,2.672,0,0,0-3,3v21a2.672,2.672,0,0,0,3,3h8v4h-1a1,1,0,1,0,0,2h15c.655,0,2-.345,2-1s-1.345-1-2-1h0v-4h7c1.976,0,4-1.025,4-3v-21C318.843,303.948,316.819,302.923,314.843,302.923Zm-29,2h29c.667,0,2,.333,2,1v16h-7c0-.092.022.09,0,0-.209-.877-.281-2.339-1-3-.963-.884-2.624-1-4-1h-8c-1.377,0-3.04.117-4,1a7.829,7.829,0,0,0-2,3c-.02.087,0-.09,0,0h-6v-16A.884.884,0,0,1,285.843,304.923Zm8,17c.115-.376.666-.693,1-1a3.159,3.159,0,0,1,2-1h8a3.165,3.165,0,0,1,2,1c.333.307.885.627,1,1h-14Zm12,12h-10l1-4h8Zm11-7c0,.667-1.333,1-2,1h-29a.884.884,0,0,1-1-1v-3h32Zm0,0" transform="translate(-237.843 -254.923)" fill="#ff62a7"/>
      <path id="Path_3364" data-name="Path 3364" d="M373.023,342.15l1,1c.434.265,1.513,0,2,0s.566.265,1,0l2-1c.8-.489,1-2.061,1-3v-2a3.046,3.046,0,0,0-3-3h-2a3.047,3.047,0,0,0-3,3v2C372.024,340.089,372.222,341.661,373.023,342.15Zm1-5a1.59,1.59,0,0,1,1-1h2a1.591,1.591,0,0,1,1,1v2a6.05,6.05,0,0,1-1,1h-1c-.107.065.106.065,0,0h-2c-.1-.061,0-.883,0-1Zm0,0" transform="translate(-313.023 -281.15)" fill="#ff62a7"/>
      <path id="Path_3365" data-name="Path 3365" d="M144.924,27h8l-1,4h0a1,1,0,0,0,0,2h15a1,1,0,0,0,0-2h0l-1-4h8c1.975,0,4-1.024,4-3V12c0-.655-1.345-1-2-1a.893.893,0,0,0-1,1v7h-6c0-.092.021.09,0,0a8.066,8.066,0,0,0-2-3,3.62,3.62,0,0,0-3-1h-9a3.62,3.62,0,0,0-3,1,7.843,7.843,0,0,0-2,3c-.02.087,0-.09,0,0h-6V4c0-.667.333-2,1-2h29c.667,0,1,1.333,1,2V7c0,.655.345,2,1,2a3.051,3.051,0,0,0,2-2V4a4.343,4.343,0,0,0-4-4h-29a4.343,4.343,0,0,0-4,4V24C140.924,25.976,142.948,27,144.924,27Zm19,4h-9V27h9Zm-11-13a3.159,3.159,0,0,1,2-1h9a3.165,3.165,0,0,1,2,1c.333.307.886.627,1,1h-15C152.038,18.624,152.589,18.306,152.924,18Zm22,3v3a.884.884,0,0,1-1,1h-29a.884.884,0,0,1-1-1V21Zm0,0" transform="translate(-118.923)" fill="#ff62a7"/>
      <path id="Path_3366" data-name="Path 3366" d="M233.1,31.227a3.047,3.047,0,0,0-3,3v2a4.9,4.9,0,0,0,2,3l1,1c.434.265,1.513,0,2,0s.566.265,1,0l1-1a4.9,4.9,0,0,0,2-3v-2a3.046,3.046,0,0,0-3-3Zm3,3v2c0,.117.1.939,0,1l-1,1a2.593,2.593,0,0,1-1,0l-1-1c-.1-.061,0-.883,0-1v-2c0-.313-.312-1,0-1h3C236.415,33.227,236.1,33.914,236.1,34.227Zm0,0" transform="translate(-194.103 -26.227)" fill="#ff62a7"/>
      <path id="Path_3367" data-name="Path 3367" d="M33,302.923H4c-1.976,0-4,1.025-4,3v21c0,1.975,2.024,3,4,3h7v4h0c-.656,0-2,.345-2,1s1.344,1,2,1H26a1,1,0,0,0,0-2H25v-4h8a2.672,2.672,0,0,0,3-3v-21A2.672,2.672,0,0,0,33,302.923Zm-29,2H33a.884.884,0,0,1,1,1v16H28c0-.092.022.09,0,0a8.056,8.056,0,0,0-2-3c-.963-.884-2.624-1-4-1H14c-1.377,0-3.04.118-4,1-.727.666-.794,2.106-1,3-.02.087,0-.09,0,0H2v-16C2,305.256,3.334,304.923,4,304.923Zm19,29H13l1-4h8Zm11-7a.884.884,0,0,1-1,1H4c-.667,0-2-.333-2-1v-3H12c.655,0,2-.345,2-1s-1.345-1-2-1H11c.115-.376.666-.693,1-1a3.159,3.159,0,0,1,2-1h8a3.165,3.165,0,0,1,2,1c.333.307.885.627,1,1H17a1,1,0,0,0,0,2H34Zm0,0" transform="translate(0 -254.923)" fill="#ff62a7"/>
      <path id="Path_3368" data-name="Path 3368" d="M90.18,342.15l2,1c.434.265.512,0,1,0s1.566.265,2,0l1-1c.8-.489,1-2.061,1-3v-2a3.047,3.047,0,0,0-3-3h-2a3.047,3.047,0,0,0-3,3v2C89.18,340.089,89.378,341.661,90.18,342.15Zm2-5c0-.313-.313-1,0-1h2a1.591,1.591,0,0,1,1,1v2c0,.117.1.939,0,1h-2c-.108.065.106.065,0,0h-1c-.1-.061,0-.883,0-1Zm0,0" transform="translate(-75.179 -281.15)" fill="#ff62a7"/>
    </g>
  </g>
</svg>
