<svg xmlns="http://www.w3.org/2000/svg" width="149.526" height="127.979" viewBox="0 0 149.526 127.979">
  <g id="Group_706" data-name="Group 706" transform="translate(-769 -5837)">
    <path id="Path_3376" data-name="Path 3376" d="M53.715,60.5C70.17,60.5,75,76.044,93.956,95s55.57,9.077,55.57,34.492c0,41.869-31.845,58.995-73.715,58.995A75.811,75.811,0,0,1,0,112.672C0,70.8,11.846,60.5,53.715,60.5Z" transform="translate(769 5776.495)" fill="#ffe2ef"/>
    <g id="enterprise_1_" data-name="enterprise (1)" transform="translate(798 5869)">
      <g id="Group_639" data-name="Group 639" transform="translate(28.365 27.014)">
        <g id="Group_638" data-name="Group 638">
          <rect id="Rectangle_1482" data-name="Rectangle 1482" width="3" height="3" transform="translate(-0.365 -0.014)" fill="#ff62a7"/>
        </g>
      </g>
      <g id="Group_641" data-name="Group 641" transform="translate(28.365 32.417)">
        <g id="Group_640" data-name="Group 640">
          <rect id="Rectangle_1483" data-name="Rectangle 1483" width="3" height="3" transform="translate(-0.365 -0.417)" fill="#ff62a7"/>
        </g>
      </g>
      <g id="Group_643" data-name="Group 643" transform="translate(28.365 37.82)">
        <g id="Group_642" data-name="Group 642">
          <rect id="Rectangle_1484" data-name="Rectangle 1484" width="3" height="3" transform="translate(-0.365 0.18)" fill="#ff62a7"/>
        </g>
      </g>
      <g id="Group_645" data-name="Group 645" transform="translate(28.365 43.223)">
        <g id="Group_644" data-name="Group 644">
          <rect id="Rectangle_1485" data-name="Rectangle 1485" width="3" height="3" transform="translate(-0.365 -0.223)" fill="#ff62a7"/>
        </g>
      </g>
      <g id="Group_647" data-name="Group 647" transform="translate(33.768 27.014)">
        <g id="Group_646" data-name="Group 646">
          <rect id="Rectangle_1486" data-name="Rectangle 1486" width="2" height="3" transform="translate(0.232 -0.014)" fill="#ff62a7"/>
        </g>
      </g>
      <g id="Group_649" data-name="Group 649" transform="translate(33.768 32.417)">
        <g id="Group_648" data-name="Group 648">
          <rect id="Rectangle_1487" data-name="Rectangle 1487" width="2" height="3" transform="translate(0.232 -0.417)" fill="#ff62a7"/>
        </g>
      </g>
      <g id="Group_651" data-name="Group 651" transform="translate(33.768 37.82)">
        <g id="Group_650" data-name="Group 650">
          <rect id="Rectangle_1488" data-name="Rectangle 1488" width="2" height="3" transform="translate(0.232 0.18)" fill="#ff62a7"/>
        </g>
      </g>
      <g id="Group_653" data-name="Group 653" transform="translate(33.768 43.223)">
        <g id="Group_652" data-name="Group 652">
          <rect id="Rectangle_1489" data-name="Rectangle 1489" width="2" height="3" transform="translate(0.232 -0.223)" fill="#ff62a7"/>
        </g>
      </g>
      <g id="Group_655" data-name="Group 655" transform="translate(39.171 27.014)">
        <g id="Group_654" data-name="Group 654">
          <rect id="Rectangle_1490" data-name="Rectangle 1490" width="3" height="3" transform="translate(-0.171 -0.014)" fill="#ff62a7"/>
        </g>
      </g>
      <g id="Group_657" data-name="Group 657" transform="translate(39.171 32.417)">
        <g id="Group_656" data-name="Group 656">
          <rect id="Rectangle_1491" data-name="Rectangle 1491" width="3" height="3" transform="translate(-0.171 -0.417)" fill="#ff62a7"/>
        </g>
      </g>
      <g id="Group_659" data-name="Group 659" transform="translate(39.171 37.82)">
        <g id="Group_658" data-name="Group 658">
          <rect id="Rectangle_1492" data-name="Rectangle 1492" width="3" height="3" transform="translate(-0.171 0.18)" fill="#ff62a7"/>
        </g>
      </g>
      <g id="Group_661" data-name="Group 661" transform="translate(39.171 43.223)">
        <g id="Group_660" data-name="Group 660">
          <rect id="Rectangle_1493" data-name="Rectangle 1493" width="3" height="3" transform="translate(-0.171 -0.223)" fill="#ff62a7"/>
        </g>
      </g>
      <g id="Group_663" data-name="Group 663" transform="translate(44.573 27.014)">
        <g id="Group_662" data-name="Group 662">
          <rect id="Rectangle_1494" data-name="Rectangle 1494" width="2" height="3" transform="translate(0.427 -0.014)" fill="#ff62a7"/>
        </g>
      </g>
      <g id="Group_665" data-name="Group 665" transform="translate(33.768 21.611)">
        <g id="Group_664" data-name="Group 664">
          <rect id="Rectangle_1495" data-name="Rectangle 1495" width="2" height="2" transform="translate(0.232 0.389)" fill="#ff62a7"/>
        </g>
      </g>
      <g id="Group_667" data-name="Group 667" transform="translate(39.171 21.611)">
        <g id="Group_666" data-name="Group 666">
          <rect id="Rectangle_1496" data-name="Rectangle 1496" width="3" height="2" transform="translate(-0.171 0.389)" fill="#ff62a7"/>
        </g>
      </g>
      <g id="Group_669" data-name="Group 669" transform="translate(44.573 21.611)">
        <g id="Group_668" data-name="Group 668">
          <rect id="Rectangle_1497" data-name="Rectangle 1497" width="2" height="2" transform="translate(0.427 0.389)" fill="#ff62a7"/>
        </g>
      </g>
      <g id="Group_671" data-name="Group 671" transform="translate(44.573 32.417)">
        <g id="Group_670" data-name="Group 670">
          <rect id="Rectangle_1498" data-name="Rectangle 1498" width="2" height="3" transform="translate(0.427 -0.417)" fill="#ff62a7"/>
        </g>
      </g>
      <g id="Group_673" data-name="Group 673" transform="translate(44.573 37.82)">
        <g id="Group_672" data-name="Group 672">
          <rect id="Rectangle_1499" data-name="Rectangle 1499" width="2" height="3" transform="translate(0.427 0.18)" fill="#ff62a7"/>
        </g>
      </g>
      <g id="Group_675" data-name="Group 675" transform="translate(44.573 43.223)">
        <g id="Group_674" data-name="Group 674">
          <rect id="Rectangle_1500" data-name="Rectangle 1500" width="2" height="3" transform="translate(0.427 -0.223)" fill="#ff62a7"/>
        </g>
      </g>
      <g id="Group_677" data-name="Group 677" transform="translate(49.976 27.014)">
        <g id="Group_676" data-name="Group 676">
          <rect id="Rectangle_1501" data-name="Rectangle 1501" width="3" height="3" transform="translate(0.024 -0.014)" fill="#ff62a7"/>
        </g>
      </g>
      <g id="Group_679" data-name="Group 679" transform="translate(49.976 32.417)">
        <g id="Group_678" data-name="Group 678">
          <rect id="Rectangle_1502" data-name="Rectangle 1502" width="3" height="3" transform="translate(0.024 -0.417)" fill="#ff62a7"/>
        </g>
      </g>
      <g id="Group_681" data-name="Group 681" transform="translate(49.976 37.82)">
        <g id="Group_680" data-name="Group 680">
          <rect id="Rectangle_1503" data-name="Rectangle 1503" width="3" height="3" transform="translate(0.024 0.18)" fill="#ff62a7"/>
        </g>
      </g>
      <g id="Group_683" data-name="Group 683" transform="translate(49.976 43.223)">
        <g id="Group_682" data-name="Group 682">
          <rect id="Rectangle_1504" data-name="Rectangle 1504" width="3" height="3" transform="translate(0.024 -0.223)" fill="#ff62a7"/>
        </g>
      </g>
      <g id="Group_685" data-name="Group 685" transform="translate(0 0)">
        <g id="Group_684" data-name="Group 684" transform="translate(0 0)">
          <path id="Path_3360" data-name="Path 3360" d="M80,20H59V1c0-.746-.254-1-1-1H23c-.746,0-1,.254-1,1h0V20H1c-.746,0-1,1.254-1,2H0V70c0,.746.254,2,1,2H4a4.431,4.431,0,0,0,0,1v7c0,.746.254,1,1,1H76c.746,0,1-.254,1-1h0V73a4.411,4.411,0,0,0,0-1h3c.746,0,1-1.254,1-2h0V22C81,21.254,80.746,20,80,20ZM58,58a3.239,3.239,0,0,1-3,3c-1.492,0-2-1.508-2-3s.508-3,2-3A3.244,3.244,0,0,1,58,58ZM26,55c1.492,0,2,1.508,2,3s-.508,3-2,3a3,3,0,0,1,0-6ZM18,78H7V73a4.741,4.741,0,0,1,5-5c2.984,0,6,2.016,6,5ZM9,62a3.239,3.239,0,0,1,3-3,3,3,0,0,1,0,6A3.244,3.244,0,0,1,9,62Zm9,5a9.242,9.242,0,0,0-2-1,5.848,5.848,0,0,0,0-8,5.847,5.847,0,0,0-8,0,6.1,6.1,0,0,0,0,8,7.789,7.789,0,0,0-3,3H3V23H22V55a5.019,5.019,0,0,0,0,7A7.58,7.58,0,0,0,18,67ZM31,78H20V69a6.479,6.479,0,0,1,6-6c2.984,0,5,3.016,5,6Zm16,0H34V69a7.182,7.182,0,0,1,7-7c3.73,0,6,3.27,6,7ZM36,55c0-2.238,2.762-4,5-4a4,4,0,0,1,0,8C38.763,59,36,57.237,36,55Zm13,9c-.9-1.595-2.375-2.152-4-3a7.106,7.106,0,0,0-9-11,7.372,7.372,0,0,0-1,10,10.165,10.165,0,0,0,1,1c-1.625.848-3.1,1.405-4,3a4.909,4.909,0,0,0-2-2c2.071-2.118,1.119-5.929-1-8a4.923,4.923,0,0,0-5-1V3H57V53a11.566,11.566,0,0,0-2,0,4.749,4.749,0,0,0-5,5c0,1.393.037,2.994,1,4A4.909,4.909,0,0,0,49,64Zm12,9v5H50V69c0-2.984,2.016-6,5-6a6.479,6.479,0,0,1,6,6Zm13,5H63V73c0-2.984,3.016-5,6-5a4.741,4.741,0,0,1,5,5ZM66,62a3,3,0,1,1,3,3A3.239,3.239,0,0,1,66,62Zm12,7H76a7.788,7.788,0,0,0-3-3,5.657,5.657,0,0,0-8-8,6.1,6.1,0,0,0,0,8,9.238,9.238,0,0,0-2,1,7.579,7.579,0,0,0-4-5,5.019,5.019,0,0,0,0-7V23H78Z" transform="translate(0 0)" fill="#ff62a7"/>
        </g>
      </g>
      <g id="Group_687" data-name="Group 687" transform="translate(63.483 31.066)">
        <g id="Group_686" data-name="Group 686">
          <rect id="Rectangle_1505" data-name="Rectangle 1505" width="3" height="22" transform="translate(-0.483 -0.066)" fill="#ff62a7"/>
        </g>
      </g>
      <g id="Group_689" data-name="Group 689" transform="translate(71.588 31.066)">
        <g id="Group_688" data-name="Group 688">
          <rect id="Rectangle_1506" data-name="Rectangle 1506" width="2" height="22" transform="translate(0.412 -0.066)" fill="#ff62a7"/>
        </g>
      </g>
      <g id="Group_691" data-name="Group 691" transform="translate(6.754 31.066)">
        <g id="Group_690" data-name="Group 690">
          <rect id="Rectangle_1507" data-name="Rectangle 1507" width="2" height="22" transform="translate(0.246 -0.066)" fill="#ff62a7"/>
        </g>
      </g>
      <g id="Group_693" data-name="Group 693" transform="translate(14.858 31.066)">
        <g id="Group_692" data-name="Group 692">
          <rect id="Rectangle_1508" data-name="Rectangle 1508" width="3" height="22" transform="translate(0.142 -0.066)" fill="#ff62a7"/>
        </g>
      </g>
      <g id="Group_695" data-name="Group 695" transform="translate(31.066 5.403)">
        <g id="Group_694" data-name="Group 694">
          <path id="Path_3361" data-name="Path 3361" d="M201.934,31.6h-17c-.746,0-1,1.254-1,2h0v11c0,.746.254,1,1,1h17c.746,0,1-.254,1-1h0v-11C202.934,32.852,202.679,31.6,201.934,31.6Zm-2,11h-13v-8h13Z" transform="translate(-184 -32)" fill="#ff62a7"/>
        </g>
      </g>
    </g>
  </g>
</svg>
