<svg xmlns="http://www.w3.org/2000/svg" xmlns:xlink="http://www.w3.org/1999/xlink" viewBox="0 0 1441.823 612.699">
  <defs>
    <style>
      .cls-1 {
        opacity: 0.45;
        fill: url(#linear-gradient);
      }

      .cls-2, .cls-9 {
        fill: #6c63ff;
      }

      .cls-2, .cls-4, .cls-8 {
        opacity: 0.1;
      }

      .cls-3 {
        fill: #ffd2c6;
      }

      .cls-5 {
        fill: #626696;
      }

      .cls-6 {
        fill: #8f7cdd;
      }

      .cls-7 {
        fill: #985c7e;
      }

      .cls-10 {
        fill: #ffd037;
      }

      .cls-11 {
        fill: #65617d;
      }

      .cls-12 {
        fill: #9d9cb5;
      }

      .cls-13 {
        fill: url(#linear-gradient-2);
      }

      .cls-14 {
        fill: #a27772;
      }

      .cls-15 {
        fill: #fbbebe;
      }

      .cls-16 {
        opacity: 0.05;
      }

      .cls-17 {
        fill: #7c7cdd;
      }

      .cls-18 {
        fill: #7c5c5c;
      }
    </style>
    <linearGradient id="linear-gradient" x1="0.5" y1="0.016" x2="0.5" y2="1" gradientUnits="objectBoundingBox">
      <stop offset="0" stop-color="#0ab2a5"/>
      <stop offset="1" stop-color="#08edf5"/>
    </linearGradient>
    <linearGradient id="linear-gradient-2" x1="0.5" y1="1" x2="0.5" gradientUnits="objectBoundingBox">
      <stop offset="0" stop-color="gray" stop-opacity="0.251"/>
      <stop offset="0.54" stop-color="gray" stop-opacity="0.122"/>
      <stop offset="1" stop-color="gray" stop-opacity="0.102"/>
    </linearGradient>
  </defs>
  <g id="Group_604" data-name="Group 604" transform="translate(-8591.278 -5492.708)">
    <path id="Path_3245" data-name="Path 3245" class="cls-1" d="M151.826-126.779c109.541-75.2,95.145,184.156,184.1,143.1,125.351-98.587,91.367,57.771,201.05,41.6s161.495-91.07,239.161-41.6c64.274,42.235,68.054,120.232,121.783,131.487,82.983,26.531,78.307-112.422,193.829-45.8,131.128,80.074,42.9,112.324,146.347,90.9S1493.184-74.526,1591.836-13.1c.731,142.482,0,485.258,0,485.258s-388.214-139.38-567.107-153.2-85.707,125.43-189.864,125.43S736.453,328.077,608.1,318.956c-194.471-13.82-160.674,140.008-272.179,125.43s-184.1-125.43-184.1-125.43C148.131,200.378,152.572-15.314,151.826-126.779Z" transform="translate(8440.941 5633.251)"/>
    <g id="Group_602" data-name="Group 602" transform="translate(8673.671 5558.436)">
      <ellipse id="Ellipse_292" data-name="Ellipse 292" class="cls-2" cx="86.406" cy="13.79" rx="86.406" ry="13.79" transform="translate(61.772 388.59)"/>
      <path id="Path_3092" data-name="Path 3092" class="cls-3" d="M295.447,309.52l-14.61,30.22s-2.159,5.67-3.547,6.72-7.526,19-7.526,19L254.105,389h0l-1.028,1.6-6.169-1.65L242.6,373.28l.267-4.55v-.57s9.7-9.86,11.844-10.61c0,0,1.686.19,4.925-7.45s6.169-9.3,6.169-9.3l1.686-5.54,18.157-28.11s15.217-21.23,19.36-11.81S295.447,309.52,295.447,309.52Z" transform="translate(-91.347 -292.93)"/>
      <path id="Path_3093" data-name="Path 3093" class="cls-3" d="M236.141,524.17a3.337,3.337,0,0,1-.494,1.45c-1.686,2.39-11.217,51.29-11.217,51.29.761,3.3-1.378,9.88-2.776,12.87s-4.462,18.54-4.462,18.54-.761,33.5-2.755,38.73.637,16.45.637,16.45c-.2,5.16,2.992,10.61,4.884,13.39.144.18.257.36.37.51.617.86,1.028,1.35,1.028,1.35a7.835,7.835,0,0,0,2.149,2.59c.134.11.278.21.432.32a24.853,24.853,0,0,0,8.616,3.54l.3.06c1.234.27,2.056.37,2.056.37l.761,4-8.143,1.64-15.525,1s-18.3,1.35-14.147-6.58a12.362,12.362,0,0,0,.751-1.68h0c.154-.38.3-.78.422-1.18,2.5-7.62.812-16.88.812-16.88L196.258,639c-5.83-25.12,4.606-53.09,4.606-53.09s-.915-2.24,1.09-7.92,0-18.09,0-18.09-1.028-16-2.457-23.93a47.045,47.045,0,0,1-.555-10.07,48.954,48.954,0,0,1,.555-5.9l35.06-4.52S236.531,521,236.141,524.17Z" transform="translate(-92.702 -292.93)"/>
      <path id="Path_3094" data-name="Path 3094" class="cls-4" d="M235.552,689.68l-8.143,1.64-15.525,1s-18.3,1.35-14.147-6.58a12.361,12.361,0,0,0,.751-1.68h0c.154-.38.3-.78.422-1.18a28.85,28.85,0,0,1,9.253,1.82c5.213,2,9.14-3.15,9.14-3.15l2.529-4.7.37-.68c.617.86,1.028,1.35,1.028,1.35a8.069,8.069,0,0,0,2.581,2.9l-.432.88-2.457,5s3.146.31,7.454,1a3.347,3.347,0,0,0,4.051-2.16l.3.06c1.234.27,2.056.37,2.056.37Z" transform="translate(-92.627 -292.93)"/>
      <path id="Path_3095" data-name="Path 3095" class="cls-5" d="M243.125,693.41c-.617,2.69-17.756,3.52-17.756,3.52s-9.541-.9-12.215,1.27-10.549,1.65-10.857,1.65-4.452-.16-6.076-7.4c-1.573-7.06,2.118-8.29,2.3-8.35h0a28.582,28.582,0,0,1,9.7,1.83c5.213,2,9.14-3.14,9.14-3.14l2.9-5.39c.617.86,1.028,1.35,1.028,1.35a7.967,7.967,0,0,0,2.581,2.91l-2.889,5.91s3.146.31,7.454,1a3.529,3.529,0,0,0,4.349-3.29,3.315,3.315,0,0,0,0-.45s2.684.75,5.984,1.65a5.992,5.992,0,0,1,4.359,6.93Z" transform="translate(-92.664 -292.93)"/>
      <path id="Path_3096" data-name="Path 3096" class="cls-3" d="M274.291,559.81c-.411,2.39-.833,8.58-.833,8.58,1.439,5.18-2.252,17.49-2.252,17.49l-1.84,7c.823,9-5.069,30.91-5.069,30.91s-3.948,20.34-6,29.12a23.588,23.588,0,0,0,1.028,14.66c.1.24.164.36.164.36a1.638,1.638,0,0,0,.123.49c.051.16.134.48.216.71a10.745,10.745,0,0,0,2.056,3.34,10.252,10.252,0,0,0,1.1,1.1l.062.06a22.366,22.366,0,0,0,6.539,3.91h0l1.028.4a31.555,31.555,0,0,0,3.259,1h0a3.472,3.472,0,0,0,.37.08l-.833,4.7-10.857-2.7L248,676.43l-7.2-4s.082-.38.226-1.11v-.12c.062-.31.123-.68.216-1.1,1.224-6.1,4.01-23.4,2.612-36.1-1.738-15.75,5.007-37.49,6.652-42.67a25.208,25.208,0,0,0,1.234-9.17c-2.673-3.8-3.29-18.94-3.29-18.94s-4.915-9.78-8.986-20.15a51.86,51.86,0,0,1-2.93-10.48,35.669,35.669,0,0,1-.6-7.66s33.024-29.31,36.644-.93c.123,1,.237,1.88.35,2.78C276.1,552.72,274.681,557.5,274.291,559.81Z" transform="translate(-91.535 -292.93)"/>
      <path id="Path_3097" data-name="Path 3097" class="cls-4" d="M274.156,679.05l-.833,4.7-10.857-2.7-14.548-4.59-7.2-4s.082-.38.226-1.11v-.12c.062-.31.123-.68.216-1.1l1.028-.1h.082a14.051,14.051,0,0,1,6.1.8c2.365.87,5.47,1.86,6.107,1.44a7.967,7.967,0,0,1,3.485-.6l1.511-3.22.216-.49a10.627,10.627,0,0,0,2.056,3.34,11.447,11.447,0,0,0,1.162,1.16l-.062,1.14-.082,1.61a21.441,21.441,0,0,0,5.223,2.35,3.106,3.106,0,0,0,1.46,0h0l1.028.4a31.54,31.54,0,0,0,3.259,1h0A3.453,3.453,0,0,0,274.156,679.05Z" transform="translate(-91.4 -292.93)"/>
      <path id="Path_3098" data-name="Path 3098" class="cls-5" d="M268.8,689.08c-3.033-.85-10.343-2.2-11.526-1.15s-11.31,0-11.31,0a6.2,6.2,0,0,1-5.233-3c-2.056-3.19-.4-13.51-.4-13.51l.751-.07,1.254-.12h.082a13.891,13.891,0,0,1,6.1.8c2.365.86,5.47,1.85,6.107,1.44a7.819,7.819,0,0,1,3.485-.6l1.727-3.71a10.746,10.746,0,0,0,2.056,3.34,11.446,11.446,0,0,0,1.162,1.16l-.144,2.75a21.582,21.582,0,0,0,5.223,2.34,2.088,2.088,0,0,0,2.509-.77,1.488,1.488,0,0,0,.185-.41h0c.093.17,1.09.5,4.287,1.39h0c3.475-.19,6.827,1.28,8.369,5.86S271.768,689.92,268.8,689.08Z" transform="translate(-91.429 -292.93)"/>
      <path id="Path_3099" data-name="Path 3099" class="cls-4" d="M236.018,524.17c-.679.19-1.3.37-1.871.55a26.576,26.576,0,0,1-4.534.93c-9.7,1.33-25.7.53-30.773.22a48.957,48.957,0,0,1,.555-5.9l35.06-4.52S236.409,521,236.018,524.17Z" transform="translate(-92.579 -292.93)"/>
      <path id="Path_3100" data-name="Path 3100" class="cls-5" d="M266.66,515.89s-12.873,1.94-23.339,4.17c-3.5.74-6.724,1.51-9.109,2.27a28.664,28.664,0,0,1-4.534.93c-11.659,1.59-32.366.12-32.366.12-5.686-17.94,6.909-40.53,6.909-40.53-.3-1.8,2.622-7.32,2.622-7.32l.051-.18,1.789-6.4H256.5l.586,2.75,1.213,5.6,7.506,34.67Z" transform="translate(-92.664 -292.93)"/>
      <path id="Path_3101" data-name="Path 3101" class="cls-4" d="M272.934,526.77l-.288.12-5.593,2.41c-6.056,2.72-24.182,3.23-30.516,3.28a35.67,35.67,0,0,1-.6-7.66s33.024-29.31,36.644-.93C272.707,525,272.82,525.87,272.934,526.77Z" transform="translate(-91.535 -292.93)"/>
      <path id="Path_3102" data-name="Path 3102" class="cls-5" d="M274.634,524l-1.172.5-5.593,2.42c-6.169,2.76-24.871,3.25-30.845,3.28H235.45c-2.766-.09-5.531-2.61-5.531-3.27,0-.36-.288-2.13-.535-3.65-.206-1.22-.391-2.27-.391-2.27s-12.338-5.18-18.6-9.37c-4.7-3.11-3.516-25.21-2.6-36.32.319-3.83.6-6.35.6-6.35l48.406,2.75,6.786.38,3.886.84,1.028.21s2.776,19.74,4.113,21.38.473,7.18.308,10.33a18.686,18.686,0,0,1-.452,4s1.995,5.54,1.522,8.64a16.779,16.779,0,0,0,.648,6.5Z" transform="translate(-92.351 -292.93)"/>
      <ellipse id="Ellipse_293" data-name="Ellipse 293" class="cls-3" cx="19.833" cy="19.29" rx="19.833" ry="19.29" transform="translate(110.64 28.56)"/>
      <path id="Path_3103" data-name="Path 3103" class="cls-3" d="M213.446,348.83s1.378,18.27-2.457,22.46S197.15,383.4,197.15,383.4l3.084,12.41,17.376,1.95,20.3-21.09-4.616-5.53s-3.537-11.67-.617-17.5S213.446,348.83,213.446,348.83Z" transform="translate(-92.627 -292.93)"/>
      <path id="Path_3104" data-name="Path 3104" class="cls-4" d="M254.105,389h0l-1.028,1.6-6.169-1.65L242.6,373.28l.267-4.55,1.265-1.77s6.765.16,6.467,6.14C250.3,378.35,253.375,387,254.105,389Z" transform="translate(-91.347 -292.93)"/>
      <path id="Path_3105" data-name="Path 3105" class="cls-4" d="M268.5,475.53s-4.894,1.06-10.5,1.77-12.071,1.07-14.723-.43c-4.452-2.56-28.573-1.83-35.492-1.57a8.135,8.135,0,0,0-1.193.05l1.789-6.4H256.2l.586,2.75,6.786.38,3.886.84C268.1,474.47,268.5,475.53,268.5,475.53Z" transform="translate(-92.361 -292.93)"/>
      <path id="Path_3106" data-name="Path 3106" class="cls-6" d="M244.562,368.15s6.765.15,6.457,6.13,3.691,16.3,3.691,16.3l-1.542,3.44s-2.149,8.37-.463,10.47,7.845,2.09,4.308,19.29c0,0-.761,12.86,1.08,17.05s1.84,14.2,4.606,18.39,6.467,13.91,6.467,13.91-20,4.33-25.221,1.34S206.582,473,206.582,473s.154-5.24,0-5.83a4.889,4.889,0,0,1,.771-3.82c1.028-1.42,2.766-3.81,1.84-5.9s2.313-5.18.617-8.42-3.753-3.89-3.342-5.66-.658-4.17-1.882-5.66-9.541-17.3-9.541-17.3L193.668,413s-10.7-7.63-10.508-11.22,4.051-8.56,4.051-8.56l10.282-9.83s5.686,6,11.217,3.89,17.468-12.11,17.468-12.11,4.257-2.24,4.565-3.88,2.92-.15,2.92-.15,3.845-2.05,4.616-1.33,4.113,1.33,4.113,1.33Z" transform="translate(-93.021 -292.93)"/>
      <path id="Path_3107" data-name="Path 3107" class="cls-3" d="M187.7,399.3l-3.28,2.49s-3.331,5.84-4.113,16.3-4.113,25.26-4.113,25.26l-6.457,11.23S159.1,476.25,157.722,482s-7.691,15.48-7.691,15.48-21.375,18.68-6.457,22,15.371-14.87,15.371-14.87,3.485-3.74,4.051-6.28,19.473-35.07,19.473-35.07,6.621-8.75,5.233-13.38c0,0,8.606-19.69,8.606-24.63A85.178,85.178,0,0,0,194.931,413l1.378-10.32Z" transform="translate(-94.284 -292.93)"/>
      <path id="Path_3108" data-name="Path 3108" class="cls-4" d="M229.923,440.53s-15.073,7.67-17.993,8.07,12.759-1.6,12.759-1.6Z" transform="translate(-92.221 -292.93)"/>
      <path id="Path_3109" data-name="Path 3109" class="cls-4" d="M242.168,446.51s-19.987,6.58-28.788,5.38C213.421,451.89,235.249,455.93,242.168,446.51Z" transform="translate(-92.17 -292.93)"/>
      <path id="Path_3110" data-name="Path 3110" class="cls-4" d="M243.363,448.66s-17.993,11-28.6,9.21c0,0,24.758,4.79,28.6,2.25l-11.073-3S244.6,450.8,243.363,448.66Z" transform="translate(-92.131 -292.93)"/>
      <path id="Path_3111" data-name="Path 3111" class="cls-4" d="M223.948,306.84c-5.2-1-10.97-.4-15.134,2.78-3.084,2.36-5.141,6-8.606,7.72a51.58,51.58,0,0,1-5.624,1.93,15.715,15.715,0,0,0-9.9,17c.545,3,1.974,5.7,2.673,8.62,1.254,5.22.154,10.69-1.213,15.88A164.509,164.509,0,0,1,169.024,402a4.237,4.237,0,0,0-.853,2.77,3.973,3.973,0,0,0,1.028,1.77c7.1,8,18.671,10.73,29.529,11.09,4,.13,8.225,0,11.7-1.89a17.512,17.512,0,0,0,5.706-5.09,26.48,26.48,0,0,0,5.326-17.41c-.3-5-2.056-10.09-.73-14.94a3.958,3.958,0,0,1,.925-1.83c1.172-1.16,3.084-.86,4.771-1.05,4.514-.51,7.434-5.14,7.968-9.52s-.6-8.81-.617-13.22a27.177,27.177,0,0,1,5.357-16.28c1.5-2,3.424-4,3.928-6.51.637-3.15-1.244-5.47-2.869-8-2.519-3.88-3.753-8.41-7.588-11.37a20.774,20.774,0,0,0-8.657-3.68Z" transform="translate(-93.443 -292.93)"/>
      <path id="Path_3112" data-name="Path 3112" class="cls-7" d="M222.746,305.64c-5.192-1-10.97-.4-15.134,2.79-3.084,2.35-5.141,6-8.606,7.72a50.621,50.621,0,0,1-5.614,1.92,15.726,15.726,0,0,0-9.911,17c.545,3,1.974,5.7,2.683,8.63,1.254,5.22.144,10.68-1.213,15.87a164.6,164.6,0,0,1-17.088,41.23,4.148,4.148,0,0,0-.843,2.76,3.824,3.824,0,0,0,1.028,1.77c7.115,8,18.671,10.73,29.529,11.09,4,.14,8.225,0,11.7-1.88a17.551,17.551,0,0,0,5.706-5.1,26.479,26.479,0,0,0,5.3-17.37c-.3-5-2.056-10.09-.72-14.95a3.956,3.956,0,0,1,.915-1.83c1.172-1.16,3.084-.86,4.781-1,4.514-.51,7.423-5.14,7.958-9.53s-.586-8.8-.617-13.22a27.175,27.175,0,0,1,5.346-16.33c1.5-2,3.413-4,3.917-6.52.637-3.15-1.234-5.46-2.858-8-2.519-3.88-3.753-8.41-7.6-11.36A20.668,20.668,0,0,0,222.746,305.64Z" transform="translate(-93.475 -292.93)"/>
      <path id="Path_3113" data-name="Path 3113" class="cls-4" d="M214.76,492.62s3.948,17.94,10.508,22.83Z" transform="translate(-92.131 -292.93)"/>
      <g id="Group_592" data-name="Group 592" class="cls-8" transform="translate(73.513 30.48)">
        <path id="Path_3114" data-name="Path 3114" d="M184.189,339.07c-.206-.7-.442-1.4-.689-2.09C183.706,337.68,183.942,338.38,184.189,339.07Z" transform="translate(-166.524 -323.41)"/>
        <path id="Path_3115" data-name="Path 3115" d="M240.75,323.41a6.315,6.315,0,0,1-.082,1.69c-.514,2.53-2.426,4.5-3.928,6.52a27.1,27.1,0,0,0-5.357,16.27c0,4.42,1.141,8.83.607,13.22s-3.444,9-7.958,9.53c-1.666.19-3.609-.12-4.771,1a3.958,3.958,0,0,0-.925,1.83c-1.306,4.86.432,9.94.72,14.95a26.478,26.478,0,0,1-5.285,17.37,17.653,17.653,0,0,1-5.706,5.1c-3.527,1.85-7.7,2-11.711,1.88-10.672-.35-22.023-3-29.159-10.71a2.671,2.671,0,0,0-.175,1.44,3.824,3.824,0,0,0,1.028,1.77c7.115,8,18.671,10.73,29.529,11.09,4,.14,8.225,0,11.7-1.88a17.653,17.653,0,0,0,5.706-5.1,26.479,26.479,0,0,0,5.3-17.37c-.3-5-2.056-10.09-.72-14.95a3.956,3.956,0,0,1,.915-1.83c1.172-1.16,3.084-.86,4.781-1,4.514-.51,7.423-5.14,7.958-9.53s-.586-8.8-.617-13.22a27.176,27.176,0,0,1,5.346-16.27c1.5-2,3.414-4,3.917-6.52a7.245,7.245,0,0,0-1.11-5.28Z" transform="translate(-166.989 -323.41)"/>
      </g>
      <path id="Path_3172" data-name="Path 3172" class="cls-9" d="M142.466,596.48s3.66,4.66-1.7,11.7-9.778,13-7.989,17.37c0,0,8.081-13.07,14.662-13.25S149.7,604.34,142.466,596.48Z" transform="translate(-94.451 -292.93)"/>
      <path id="Path_3173" data-name="Path 3173" class="cls-4" d="M142.461,596.48a5.815,5.815,0,0,1,.74,1.46c6.426,7.34,9.839,14.18,3.671,14.36-5.747.16-12.636,10.15-14.291,12.68a1.789,1.789,0,0,0,.2.57s8.081-13.07,14.662-13.25S149.7,604.34,142.461,596.48Z" transform="translate(-94.445 -292.93)"/>
      <path id="Path_3174" data-name="Path 3174" class="cls-10" d="M148.833,602.42c0,1.64-.185,3-.422,3s-.422-1.33-.422-3,.236-.87.473-.87S148.833,600.78,148.833,602.42Z" transform="translate(-94.011 -292.93)"/>
      <path id="Path_3175" data-name="Path 3175" class="cls-10" d="M151.169,604.38c-1.481.79-2.776,1.26-2.889,1.06s1.028-1,2.478-1.78.9-.21,1.028,0S152.65,603.6,151.169,604.38Z" transform="translate(-94.003 -292.93)"/>
      <path id="Path_3176" data-name="Path 3176" class="cls-9" d="M123.575,596.48s-3.66,4.66,1.7,11.7,9.778,13,7.989,17.37c0,0-8.081-13.07-14.662-13.25S116.337,604.34,123.575,596.48Z" transform="translate(-94.93 -292.93)"/>
      <path id="Path_3177" data-name="Path 3177" class="cls-4" d="M123.575,596.48a5.815,5.815,0,0,0-.74,1.46c-6.426,7.34-9.839,14.18-3.671,14.36,5.747.16,12.636,10.15,14.291,12.68-.051.19-.123.38-.2.57,0,0-8.081-13.07-14.662-13.25S116.337,604.34,123.575,596.48Z" transform="translate(-94.93 -292.93)"/>
      <path id="Path_3178" data-name="Path 3178" class="cls-10" d="M116.73,602.42c0,1.64.185,3,.422,3s.422-1.33.422-3-.236-.87-.473-.87S116.73,600.78,116.73,602.42Z" transform="translate(-94.891 -292.93)"/>
      <path id="Path_3179" data-name="Path 3179" class="cls-10" d="M114.475,604.38c1.481.79,2.776,1.26,2.889,1.06s-1.028-1-2.478-1.78-.9-.21-1.028,0S112.984,603.6,114.475,604.38Z" transform="translate(-94.98 -292.93)"/>
      <ellipse id="Ellipse_311" data-name="Ellipse 311" class="cls-2" cx="38.33" cy="5.72" rx="38.33" ry="5.72" transform="translate(0 356.85)"/>
      <path id="Path_3180" data-name="Path 3180" class="cls-11" d="M153.082,619.27l-.185,1.45-.257,2.06-.113.86-.257,2.05-.1.86-.257,2.06L148.969,652c-.257,2.09-3.763,3.72-8,3.72H125.692c-4.236,0-7.732-1.63-8-3.72l-2.941-23.38-.257-2.06-.1-.86-.257-2.05-.113-.86-.257-2.06-.185-1.45c-.144-1.18,1.758-2.18,4.113-2.18h31.163C151.283,617.09,153.185,618.09,153.082,619.27Z" transform="translate(-94.98 -292.93)"/>
      <path id="Path_3181" data-name="Path 3181" class="cls-12" d="M91.78,577.23l-.257,2.06H52.957l-.257-2.06Z" transform="translate(-33.915 -249.44)"/>
      <path id="Path_3182" data-name="Path 3182" class="cls-12" d="M91.411,580.15l-.257,2.05H53.317l-.267-2.05Z" transform="translate(-33.905 -249.44)"/>
      <path id="Path_3183" data-name="Path 3183" class="cls-12" d="M91.03,583.06l-.257,2.06H53.667l-.257-2.06Z" transform="translate(-33.895 -249.44)"/>
    </g>
    <g id="Group_603" data-name="Group 603" transform="translate(9737.982 5511.407)">
      <g id="Group_561" data-name="Group 561" class="cls-8" transform="translate(0 229.165)">
        <path id="Path_2988" data-name="Path 2988" class="cls-9" d="M773.4,624.286s2.69-36.666,23.906-56.658a55.209,55.209,0,0,0,16.915-31.152,91.61,91.61,0,0,0,1.14-17.095" transform="translate(-759.492 -496.141)"/>
        <path id="Path_2989" data-name="Path 2989" class="cls-9" d="M841.206,498.5c-1.558,4.05-13.6,13.052-13.6,13.052s-3.04-14.479-1.467-18.529a8.111,8.111,0,0,1,10.35-4.59A7.762,7.762,0,0,1,841.206,498.5Z" transform="translate(-772.046 -487.938)"/>
        <path id="Path_2990" data-name="Path 2990" class="cls-9" d="M845.259,533.761c-3.571,2.572-18.708,3.762-18.708,3.762s5.547-13.754,9.119-16.334a8.2,8.2,0,0,1,11.082,1.743,7.683,7.683,0,0,1-1.492,10.821Z" transform="translate(-772.253 -496.243)"/>
        <path id="Path_2991" data-name="Path 2991" class="cls-9" d="M825.358,584.787c-4.423.473-18.108-5.913-18.108-5.913s11.93-9.15,16.345-9.608a7.976,7.976,0,0,1,8.432,6.949,7.859,7.859,0,0,1-6.669,8.572Z" transform="translate(-767.619 -509.154)"/>
        <path id="Path_2992" data-name="Path 2992" class="cls-9" d="M801.126,620.43c-4.271,1.19-18.876-2.875-18.876-2.875s10.167-10.975,14.438-12.165a8.213,8.213,0,0,1,7.973,1.776,7.688,7.688,0,0,1,2.256,7.647,7.941,7.941,0,0,1-5.791,5.618Z" transform="translate(-761.617 -518.487)"/>
        <path id="Path_2993" data-name="Path 2993" class="cls-9" d="M805.115,533.195c1.9,3.9,14.681,11.877,14.681,11.877s1.763-14.671-.144-18.581a8.154,8.154,0,0,0-10.617-3.517A7.738,7.738,0,0,0,805.115,533.195Z" transform="translate(-766.943 -496.882)"/>
        <path id="Path_2994" data-name="Path 2994" class="cls-9" d="M777.124,574.421c3.04,3.171,17.668,7.066,17.668,7.066s-2.834-14.516-5.851-17.694a8.207,8.207,0,0,0-11.372-.432,7.677,7.677,0,0,0-.445,11.06Z" transform="translate(-759.872 -507.074)"/>
        <path id="Path_2995" data-name="Path 2995" class="cls-9" d="M756.277,619.337c2.416,3.622,16.186,9.867,16.186,9.867s-.274-14.782-2.7-18.4a8.19,8.19,0,0,0-11.006-2.112,7.7,7.7,0,0,0-2.482,10.641Z" transform="translate(-755.097 -519.115)"/>
        <path id="Path_2996" data-name="Path 2996" class="cls-9" d="M841.206,498.5c-1.558,4.05-13.6,13.052-13.6,13.052s-3.04-14.479-1.467-18.529a8.111,8.111,0,0,1,10.35-4.59A7.762,7.762,0,0,1,841.206,498.5Z" transform="translate(-772.046 -487.938)"/>
        <path id="Path_2997" data-name="Path 2997" class="cls-9" d="M845.259,533.761c-3.571,2.572-18.708,3.762-18.708,3.762s5.547-13.754,9.119-16.334a8.2,8.2,0,0,1,11.082,1.743,7.683,7.683,0,0,1-1.492,10.821Z" transform="translate(-772.253 -496.243)"/>
        <path id="Path_2998" data-name="Path 2998" class="cls-9" d="M825.358,584.787c-4.423.473-18.108-5.913-18.108-5.913s11.93-9.15,16.345-9.608a7.976,7.976,0,0,1,8.432,6.949,7.859,7.859,0,0,1-6.669,8.572Z" transform="translate(-767.619 -509.154)"/>
        <path id="Path_2999" data-name="Path 2999" class="cls-9" d="M801.126,620.43c-4.271,1.19-18.876-2.875-18.876-2.875s10.167-10.975,14.438-12.165a8.213,8.213,0,0,1,7.973,1.776,7.688,7.688,0,0,1,2.256,7.647,7.941,7.941,0,0,1-5.791,5.618Z" transform="translate(-761.617 -518.487)"/>
        <path id="Path_3000" data-name="Path 3000" class="cls-9" d="M805.115,533.195c1.9,3.9,14.681,11.877,14.681,11.877s1.763-14.671-.144-18.581a8.154,8.154,0,0,0-10.617-3.517A7.738,7.738,0,0,0,805.115,533.195Z" transform="translate(-766.943 -496.882)"/>
        <path id="Path_3001" data-name="Path 3001" class="cls-9" d="M777.124,574.421c3.04,3.171,17.668,7.066,17.668,7.066s-2.834-14.516-5.851-17.694a8.207,8.207,0,0,0-11.372-.432,7.677,7.677,0,0,0-.445,11.06Z" transform="translate(-759.872 -507.074)"/>
        <path id="Path_3002" data-name="Path 3002" class="cls-9" d="M756.277,619.337c2.416,3.622,16.186,9.867,16.186,9.867s-.274-14.782-2.7-18.4a8.19,8.19,0,0,0-11.006-2.112,7.7,7.7,0,0,0-2.482,10.641Z" transform="translate(-755.097 -519.115)"/>
      </g>
      <g id="Group_562" data-name="Group 562" class="cls-8" transform="translate(7.2 90.38)">
        <path id="Path_3003" data-name="Path 3003" class="cls-9" d="M783.2,436.505s2.69-36.666,23.906-56.658A55.26,55.26,0,0,0,824.021,348.7a90.377,90.377,0,0,0,1.14-17.1" transform="translate(-769.044 -308.361)"/>
        <path id="Path_3004" data-name="Path 3004" class="cls-9" d="M851.007,310.721c-1.52,4.043-13.595,13.045-13.595,13.045s-3.04-14.479-1.474-18.521a8.111,8.111,0,0,1,10.35-4.59,7.762,7.762,0,0,1,4.719,10.066Z" transform="translate(-781.6 -300.158)"/>
        <path id="Path_3005" data-name="Path 3005" class="cls-9" d="M855.089,345.884c-3.564,2.579-18.709,3.762-18.709,3.762s5.547-13.747,9.119-16.326a8.232,8.232,0,0,1,8.1-1.055,7.854,7.854,0,0,1,4.872,6.383A7.744,7.744,0,0,1,855.089,345.884Z" transform="translate(-781.813 -308.374)"/>
        <path id="Path_3006" data-name="Path 3006" class="cls-9" d="M835.161,396.994c-4.415.473-18.1-5.913-18.1-5.913s11.93-9.142,16.345-9.608a8,8,0,0,1,8.877,6.925,7.882,7.882,0,0,1-7.122,8.634Z" transform="translate(-777.174 -321.362)"/>
        <path id="Path_3007" data-name="Path 3007" class="cls-9" d="M810.926,432.67c-4.271,1.19-18.876-2.875-18.876-2.875s10.175-10.975,14.438-12.173a8.08,8.08,0,0,1,9.951,5.369,7.8,7.8,0,0,1-5.521,9.679Z" transform="translate(-771.169 -330.727)"/>
        <path id="Path_3008" data-name="Path 3008" class="cls-9" d="M814.885,345.334c1.9,3.91,14.689,11.884,14.689,11.884s1.755-14.678-.144-18.581a8.145,8.145,0,0,0-10.715-3.726,7.735,7.735,0,0,0-3.831,10.423Z" transform="translate(-776.466 -309.029)"/>
        <path id="Path_3009" data-name="Path 3009" class="cls-9" d="M786.968,386.684c3.04,3.178,17.675,7.066,17.675,7.066s-2.842-14.516-5.859-17.686a8.21,8.21,0,0,0-11.23-.29,7.676,7.676,0,0,0-.587,10.911Z" transform="translate(-769.469 -319.345)"/>
        <path id="Path_3010" data-name="Path 3010" class="cls-9" d="M766,431.426c2.424,3.621,16.186,9.867,16.186,9.867s-.274-14.782-2.7-18.4a8.158,8.158,0,0,0-14.074.6,7.646,7.646,0,0,0,.586,7.934Z" transform="translate(-764.572 -331.204)"/>
        <path id="Path_3011" data-name="Path 3011" class="cls-9" d="M851.007,310.721c-1.52,4.043-13.595,13.045-13.595,13.045s-3.04-14.479-1.474-18.521a8.111,8.111,0,0,1,10.35-4.59,7.762,7.762,0,0,1,4.719,10.066Z" transform="translate(-781.6 -300.158)"/>
        <path id="Path_3012" data-name="Path 3012" class="cls-9" d="M855.089,345.884c-3.564,2.579-18.709,3.762-18.709,3.762s5.547-13.747,9.119-16.326a8.232,8.232,0,0,1,8.1-1.055,7.854,7.854,0,0,1,4.872,6.383A7.744,7.744,0,0,1,855.089,345.884Z" transform="translate(-781.813 -308.374)"/>
        <path id="Path_3013" data-name="Path 3013" class="cls-9" d="M835.161,396.994c-4.415.473-18.1-5.913-18.1-5.913s11.93-9.142,16.345-9.608a8,8,0,0,1,8.877,6.925,7.882,7.882,0,0,1-7.122,8.634Z" transform="translate(-777.174 -321.362)"/>
        <path id="Path_3014" data-name="Path 3014" class="cls-9" d="M810.926,432.67c-4.271,1.19-18.876-2.875-18.876-2.875s10.175-10.975,14.438-12.173a8.08,8.08,0,0,1,9.951,5.369,7.8,7.8,0,0,1-5.521,9.679Z" transform="translate(-771.169 -330.727)"/>
        <path id="Path_3015" data-name="Path 3015" class="cls-9" d="M814.885,345.334c1.9,3.91,14.689,11.884,14.689,11.884s1.755-14.678-.144-18.581a8.145,8.145,0,0,0-10.715-3.726,7.735,7.735,0,0,0-3.831,10.423Z" transform="translate(-776.466 -309.029)"/>
        <path id="Path_3016" data-name="Path 3016" class="cls-9" d="M786.968,386.684c3.04,3.178,17.675,7.066,17.675,7.066s-2.842-14.516-5.859-17.686a8.21,8.21,0,0,0-11.23-.29,7.676,7.676,0,0,0-.587,10.911Z" transform="translate(-769.469 -319.345)"/>
        <path id="Path_3017" data-name="Path 3017" class="cls-9" d="M766,431.426c2.424,3.621,16.186,9.867,16.186,9.867s-.274-14.782-2.7-18.4a8.158,8.158,0,0,0-14.074.6,7.646,7.646,0,0,0,.586,7.934Z" transform="translate(-764.572 -331.204)"/>
      </g>
      <path id="Path_3033" data-name="Path 3033" class="cls-2" d="M776.25,828.011c21.817,9.231,48.436,3.614,73.193,4.265,3.382.089,6.976.362,9.689,1.959s4.058,4.176,5.92,6.393c6.938,8.233,21.156,10.879,33.58,9.482s23.815-6.024,35.54-9.542c20.266-6.09,43.428-8.869,63.421-2.217,1.831.606,3.8,1.308,5.73,1.064,4.385-.539,5.692-4.959,8.754-7.479,5.532-4.56,17.554-3.318,19.985-9.327,1.421-3.518-1.854-7.125-5.426-9.527-13.678-9.194-33.207-10.709-51.088-9.29s-35.457,5.329-53.428,5.344c-22.394,0-44.028-6-66.2-8.463-15.357-1.7-32.121-1.478-46.521,3.525C793.788,809.608,790.354,821.8,776.25,828.011Z" transform="translate(-760.176 -340.121)"/>
      <path id="Path_3040" data-name="Path 3040" class="cls-13" d="M997.363,271.2c-18.063-10.1-24.886-12.609-24.924-12.624l-.365-.259a14.753,14.753,0,0,1-4.559-5.595c0-.406,0-.806,0-1.2v.118c.289-5.351,4.2-10.222,7.918-14.471l9.491-10.865a10.512,10.512,0,0,0,2.447-3.769,8.2,8.2,0,0,0,.258-2.313v-.946c-.046-2.7-.129-5.4-.228-8.13-.091-2.358-.714-5.329-3.138-5.817-1.261-.251-2.926.192-3.594-.865a1.96,1.96,0,0,1-.16-1.4.575.575,0,0,0,0,.111v-.133a30.521,30.521,0,0,0,.9-5.551,7.518,7.518,0,0,0-.4-2.809c-1.406-3.917-6.239-5.521-10.517-6.26s-9.066-1.375-11.748-4.627a34.118,34.118,0,0,0-2.333-3.126,9.368,9.368,0,0,0-4.369-2.1,25.333,25.333,0,0,0-15.9,1.345c-2.067.894-4.141,2.106-6.406,1.973s-4.369-1.722-6.695-2.106c-3.754-.621-7.348,2.062-9.195,5.233a12.51,12.51,0,0,0-1.7,6.179c0,.118,0,.244,0,.362h0a8.87,8.87,0,0,0,2.439,6.3c1.618,1.633,4.035,2.757,4.7,4.908.274.872.205,1.818.448,2.705a1.022,1.022,0,0,0,.106.325l-.122.155a26.906,26.906,0,0,0-5.958,16.91,28.116,28.116,0,0,0,20.236,26.563c0,.273,0,.554,0,.828a11.73,11.73,0,0,1-3.929,9.3L904.5,269.561s-15.418-1.781-20.981,20.14a36.062,36.062,0,0,0-.957,11.123c.205,3.3-.266,9.128-4.217,16.659-6.33,12.047-4.886,39.7,8.047,42.446,12.211,2.587,16.991,1.478,17.478,1.382v.48c-.2,5.174-2.135,49.955-9.18,55.372-1.945,1.478-1.581,2.513,0,3.193,0,0,0,.288-.046.806-.213,3.274-1.3,15.742-6.011,22.838-5.464,8.211-4.894,55.594-4.894,55.594l-3.67,27.96s2.28,17.25,0,20.266c-2.052,2.683-4.787,66.517-5.319,80.346h-.243a6.936,6.936,0,0,0-5.524,3.274c-3.04,4.775-13.6,13.592-13.6,13.592-2.28,3.171-10.783,6.2-15.274,7.635a9.4,9.4,0,0,0-1.733.739,8.979,8.979,0,0,0-3.853,3.947,4.169,4.169,0,0,0-.418,3.3c1.155,2.735,25.016,4.649,31.049,1.914,4.749-2.158,23.557-4.989,31.361-6.1a6.366,6.366,0,0,0,5.585-5.425,3.514,3.514,0,0,0-.76-2.72h0c-1.52-1.8-2.28-6.718-2.606-9.926a6.781,6.781,0,0,0,1.755-1.013,70.989,70.989,0,0,1,4.309-29.3c5.753-14.782,7.477-42.18,6.079-59.977,0,0,17.538-73.391,31.338-80.242h0c.213.259,6.907,8.625,7.758,34.5.866,26.289,10.639,43.539,10.639,43.539s-4.316,44.641,0,61.344L954.968,633.6c-.41-.347-.676-.613-.676-.613s.167.739.4,1.907l-.122.554.243.059c.638,3.3,1.588,9.039,1.2,12.409-.228,1.914-.76,4.545-1.155,7.125-.593,4.058-.76,7.99,1.436,8.869,3.594,1.4,24.727,3.326,28.321-1.19a6.349,6.349,0,0,0,1.049-6.77,6.871,6.871,0,0,0-1.049-1.722s-5.608-8.921-4.028-15.21a4.493,4.493,0,0,0-.669-3.614c.243-3.089,1.52-17.376,4.841-29.512,3.594-13.178,11.186-42.069,5.6-61.07h0c-.213-.739-.456-1.478-.714-2.217a79.738,79.738,0,0,1-3.161-32.039,63.516,63.516,0,0,1,0-27.937c3.45-15.336,5.859-30.4,5.859-30.4s1.907-20.258.243-32.682l-.114-.8.912-.2s-4.886-21.086-6.611-34.5c-.41-3.171-.942-7.184-1.52-11.471a29.248,29.248,0,0,0,4.689-1.131c15.471-5.225,20.335-52.32,20.335-52.32V304.2S1015.479,281.335,997.363,271.2ZM881.707,634.882c-.479-.237-.76-.392-.76-.392h0Z" transform="translate(-774.028 -177.871)"/>
      <path id="Path_3041" data-name="Path 3041" class="cls-11" d="M1001.214,624.659c6.733,18.832-1.125,49.393-4.772,63.036s-4.772,30.029-4.772,30.029c-14.309,2.18-24.689-.554-24.689-.554l5.889-28.085c-4.21-16.644,0-61.13,0-61.13s-9.537-17.191-10.38-43.392c-.828-25.794-7.363-34.123-7.6-34.382h0C941.425,557,924.3,630.151,924.3,630.151c1.406,17.738-.281,45.025-5.889,59.762a72.192,72.192,0,0,0-4.21,29.2c-1.961,1.611-4.688,1.885-7.637,1.426-7.987-1.293-17.569-8-17.569-8s3.039-79.681,5.319-82.689,0-20.2,0-20.2l3.64-27.834s-.555-47.22,4.772-55.431c4.6-7.073,5.661-19.5,5.866-22.756a5.721,5.721,0,0,1,.046-.806l8.116-9.46s78.573-5.728,84.462,0c1.451,1.412,2.34,4.6,2.872,8.632,1.619,12.38-.236,32.571-.236,32.571s-2.356,15.011-5.722,30.3a64.44,64.44,0,0,0,0,27.834,81,81,0,0,0,3.078,31.958Z" transform="translate(-787.248 -259.524)"/>
      <path id="Path_3042" data-name="Path 3042" class="cls-14" d="M1020.856,821.918c-3.511,4.5-24.134,2.587-27.645,1.19-2.143-.865-1.976-4.782-1.4-8.825.365-2.572.9-5.174,1.125-7.1.562-4.915-1.687-14.878-1.687-14.878s4.635,4.775,5.752,0a5.3,5.3,0,0,1,4-3.7,10.8,10.8,0,0,1,7.287.443c3.64,1.537,9.727,4.819,8.632,9.253-1.52,6.267,3.929,15.159,3.929,15.159a6.886,6.886,0,0,1,1.018,1.715A6.42,6.42,0,0,1,1020.856,821.918Z" transform="translate(-811.799 -337.11)"/>
      <path id="Path_3044" data-name="Path 3044" class="cls-4" d="M929.886,649.216c1.406,17.738-.281,45.025-5.889,59.762a72.194,72.194,0,0,0-4.21,29.2c-1.961,1.611-4.688,1.885-7.637,1.426,1.695-11.53,8.906-61.107,13.564-100.286C930.942,594.7,955.563,564,955.563,564l4.909,5.255C946.991,576.069,929.886,649.216,929.886,649.216Z" transform="translate(-792.807 -278.619)"/>
      <path id="Path_3045" data-name="Path 3045" class="cls-15" d="M1001.064,279.636l-3.427,16.371-16.779,27.427-20.692-8.6s-28.116-28.654-10.449-32.749a15.712,15.712,0,0,0,5.866-2.542c3.473-2.542,4.559-6.245,4.559-9.867a30.192,30.192,0,0,0-2.872-11.744l36.194-11.086a54.846,54.846,0,0,0-2.6,14.264c-.274,9.608,3.389,14.309,6.391,16.563a11.08,11.08,0,0,0,3.807,1.959Z" transform="translate(-800.427 -195.869)"/>
      <path id="Path_3046" data-name="Path 3046" class="cls-4" d="M997.724,246.9a54.846,54.846,0,0,0-2.6,14.264,26.1,26.1,0,0,1-2.1,2.173,29.211,29.211,0,0,1-28.618,6.356,30.193,30.193,0,0,0-2.872-11.744Z" transform="translate(-804.663 -195.882)"/>
      <path id="Path_3047" data-name="Path 3047" class="cls-15" d="M996.535,230.981c0,15.375-12.825,27.835-28.633,27.826s-28.615-12.481-28.6-27.856,12.84-27.828,28.648-27.812a28.91,28.91,0,0,1,20.255,8.131A27.333,27.333,0,0,1,996.535,230.981Z" transform="translate(-799.326 -184.464)"/>
      <path id="Path_3048" data-name="Path 3048" class="cls-4" d="M1001.064,290.532,997.637,306.9,980.858,334.33l-20.692-8.6s-28.116-28.654-10.449-32.749a15.712,15.712,0,0,0,5.866-2.542c-3.192,8.536,9.985,26.289,9.985,26.289,1.52,2.217,5.053.813,5.053.813,8.48-1.242,24.111-24.988,26.657-28.935a11.082,11.082,0,0,0,3.784,1.922Z" transform="translate(-800.427 -206.765)"/>
      <path id="Path_3049" data-name="Path 3049" class="cls-4" d="M1010.276,502.054c-4.977,1.1-32.546,7.044-43,5.558-11.5-1.641-33.868-2.727-33.868-2.727s-14.24.739-18.625-1.2a5.728,5.728,0,0,1,.046-.806l8.116-9.46s78.573-5.728,84.462,0C1008.855,494.818,1009.744,498.011,1010.276,502.054Z" transform="translate(-793.439 -259.539)"/>
      <path id="Path_3050" data-name="Path 3050" class="cls-6" d="M952.4,317.647s-14.8-19.955-9.225-27.708l-25.008,9.97s-15.054-1.774-20.517,20.073a36.787,36.787,0,0,0-.935,11.086c.2,3.3-.258,9.1-4.119,16.6-6.178,12.01-4.772,39.57,7.857,42.305s17.113,1.36,17.113,1.36-1.679,49.947-8.974,55.675,18.595,4.368,18.595,4.368,22.371,1.094,33.876,2.727,43.77-5.728,43.77-5.728-4.772-21.02-6.451-34.39-5.616-41.847-5.616-41.847l28.625-37.693s5.046-22.786-12.63-32.882S984.444,289,984.444,289s-17.736,28.085-26.991,29.467C957.453,318.467,953.934,319.842,952.4,317.647Z" transform="translate(-787.257 -206.866)"/>
      <path id="Path_3051" data-name="Path 3051" class="cls-4" d="M927.712,338.47s-.281,9.009,1.4,12.564,7.857,23.2,7.857,23.2H922.94s7.6-7.916,7.014-11.737S927.712,338.47,927.712,338.47Z" transform="translate(-795.398 -219.774)"/>
      <path id="Path_3052" data-name="Path 3052" class="cls-15" d="M969.735,416.915s-30.989-7.391-33.876-13.651S925,382.947,925,382.947l3.268-4.287,15.076,11.508s17.956,13.917,26.376,15.284S969.735,416.915,969.735,416.915Z" transform="translate(-795.892 -230.26)"/>
      <path id="Path_3053" data-name="Path 3053" class="cls-16" d="M969.735,416.915s-30.989-7.391-33.876-13.651S925,382.947,925,382.947l3.268-4.287,15.076,11.508s17.956,13.917,26.376,15.284S969.735,416.915,969.735,416.915Z" transform="translate(-795.892 -230.26)"/>
      <path id="Path_3054" data-name="Path 3054" class="cls-15" d="M1001.441,382.371v16.349h-2.705a80.408,80.408,0,0,0-38.141,9.6l-5.074,2.742-1.36.739-8.7-19.054,8.138-7.1h.418c1.991.185,10.6.887,14.248-.31,3.465-1.146,7.766-4.774,17.971-2.217,5.031,1.249,9.324,6.733,14.2,5.018Z" transform="translate(-800.805 -231.192)"/>
      <path id="Path_3055" data-name="Path 3055" class="cls-4" d="M1035.454,335.614l5.616,6.134v14.878s-4.772,46.939-19.924,52.128-42.2-3.008-42.2-3.008-6.991-18.011-3.724-19.1,28.876-7.672,28.876-7.672-.357-27.538,5.251-35.727c0,0-3.647-25.646,8.982-26.193S1035.454,335.614,1035.454,335.614Z" transform="translate(-807.743 -214.184)"/>
      <path id="Path_3056" data-name="Path 3056" class="cls-17" d="M1036.555,335.614l5.616,6.134v14.878s-4.757,46.939-19.955,52.128-42.2-3.008-42.2-3.008-6.983-18.011-3.716-19.1,28.876-7.672,28.876-7.672-.365-27.538,5.251-35.727c0,0-3.648-25.646,8.982-26.193S1036.555,335.614,1036.555,335.614Z" transform="translate(-808 -214.184)"/>
      <path id="Path_3058" data-name="Path 3058" class="cls-18" d="M948.673,210.814a4.96,4.96,0,0,1-4.027-3.392c-.236-.88-.175-1.818-.441-2.7-.653-2.143-3.04-3.259-4.559-4.885-3.161-3.267-2.956-8.633-.714-12.564,1.809-3.163,5.319-5.831,8.974-5.218,2.28.384,4.233,1.959,6.535,2.1s4.233-1.072,6.254-1.966a24.169,24.169,0,0,1,15.51-1.338,9.117,9.117,0,0,1,4.271,2.092,37,37,0,0,1,2.28,3.112c2.622,3.245,7.3,3.88,11.474,4.612s8.883,2.336,10.259,6.238c.9,2.587,0,5.4-.494,8.086a2.277,2.277,0,0,0,.107,1.663c.653,1.049,2.28.613,3.511.865,2.371.48,2.979,3.444,3.04,5.794q.152,4.035.228,8.071a7.814,7.814,0,0,1-2.637,6.748l-9.263,10.828c-4.111,4.8-8.473,10.4-7.645,16.592-1.945.85-4.255-.791-4.894-2.772s-.121-4.109.3-6.142a73.237,73.237,0,0,0,1.467-10.658,10.551,10.551,0,0,0-.638-5.314c-.79-1.619-2.644-2.956-4.453-2.505-2.4.547-3.435,3.585-5.79,4.316-1.976.613-4.149-.739-5.091-2.557a12.766,12.766,0,0,1-.98-5.913v-6.844c0-2.476-.084-5.174-1.657-7.11-1.953-2.432-6.55-3.488-9.62-3.392a8.285,8.285,0,0,0-5.494,2.158C952.814,210.171,950.915,211.169,948.673,210.814Z" transform="translate(-798.835 -178.465)"/>
      <path id="Path_3059" data-name="Path 3059" class="cls-4" d="M960.79,337.55l8.784,35.106S976.5,372.62,960.79,337.55Z" transform="translate(-804.486 -219.534)"/>
      <path id="Path_3060" data-name="Path 3060" class="cls-4" d="M997.755,329.61s-11.5,18.329-7.014,37.272l2.143.155S989.054,358.264,997.755,329.61Z" transform="translate(-811.427 -217.462)"/>
      <path id="Path_3061" data-name="Path 3061" class="cls-4" d="M1009.9,469.586s14.126-4.545,15.152,6C1025.052,475.587,1022.385,468.359,1009.9,469.586Z" transform="translate(-816.277 -253.73)"/>
      <path id="Path_3062" data-name="Path 3062" class="cls-4" d="M948.547,388s-2.8,19.105,2.28,26.747a63.168,63.168,0,0,1-24.7,3.274L924.42,388Z" transform="translate(-795.753 -232.697)"/>
      <path id="Path_3063" data-name="Path 3063" class="cls-4" d="M955.521,412.26l-1.36.739-8.7-19.054,8.138-7.1h.418C953.887,387.766,951.623,404.174,955.521,412.26Z" transform="translate(-800.805 -232.397)"/>
      <path id="Path_3064" data-name="Path 3064" class="cls-17" d="M945.985,386.85s-2.8,19.1,2.28,26.74a63.168,63.168,0,0,1-24.7,3.274L913.75,386.85Z" transform="translate(-793.191 -232.397)"/>
      <path id="Path_3065" data-name="Path 3065" class="cls-14" d="M903.21,810.056a6.256,6.256,0,0,1-5.448,5.4c-7.6,1.109-25.973,3.932-30.609,6.075-5.889,2.727-29.18.82-30.3-1.907a4.226,4.226,0,0,1,.4-3.282,8.907,8.907,0,0,1,3.8-3.939,9.463,9.463,0,0,1,1.687-.739c4.385-1.426,12.667-4.435,14.909-7.613,0,0,10.327-8.788,13.268-13.54a6.779,6.779,0,0,1,5.4-3.267c2.462-.111,5.2,1.094,6.315,6.334,0,0,13.465,7.472,17.105.916,0,0,.562,10.066,2.8,12.816h0a3.575,3.575,0,0,1,.684,2.742Z" transform="translate(-774.687 -336.866)"/>
      <g id="Group_588" data-name="Group 588" class="cls-8" transform="translate(138.424 14.648)">
        <path id="Path_3067" data-name="Path 3067" d="M1024.975,212.064v-.133a24.6,24.6,0,0,0,.866-6.2,38.737,38.737,0,0,1-.866,4.974A2.944,2.944,0,0,0,1024.975,212.064Z" transform="translate(-958.301 -199.788)"/>
        <path id="Path_3068" data-name="Path 3068" d="M987.55,235.509a7.855,7.855,0,0,1,.692,3.119,9.069,9.069,0,0,0-.692-4.346,4.207,4.207,0,0,0-4.445-2.506c-2.4.547-3.435,3.585-5.79,4.316-1.983.613-4.149-.739-5.1-2.557a12.665,12.665,0,0,1-.973-5.913v-6.844c0-2.476-.084-5.174-1.657-7.11-1.953-2.432-6.558-3.488-9.62-3.392a8.269,8.269,0,0,0-5.494,2.158,7.221,7.221,0,0,1-5.783,2,4.96,4.96,0,0,1-4.027-3.392c-.236-.88-.175-1.818-.441-2.7-.661-2.143-3.04-3.259-4.559-4.885a8.738,8.738,0,0,1-2.363-5.772,9.135,9.135,0,0,0,2.363,7c1.581,1.626,3.929,2.749,4.559,4.893.266.872.205,1.811.441,2.69a4.96,4.96,0,0,0,4.027,3.392c2.28.355,4.134-.643,5.783-2a8.269,8.269,0,0,1,5.494-2.158c3.04-.1,7.667.968,9.62,3.392,1.573,1.951,1.649,4.634,1.657,7.11v6.844c0,2.025,0,4.131.973,5.913s3.116,3.171,5.1,2.557c2.356-.739,3.389-3.769,5.79-4.316A4.216,4.216,0,0,1,987.55,235.509Z" transform="translate(-937.259 -197.69)"/>
        <path id="Path_3069" data-name="Path 3069" d="M1027.662,238.079a10.432,10.432,0,0,1-2.386,3.755q-4.628,5.418-9.263,10.828c-3.9,4.56-8.032,9.837-7.728,15.654.281-5.336,4.1-10.192,7.728-14.427l9.263-10.82a10.523,10.523,0,0,0,2.386-3.762,9.881,9.881,0,0,0,.243-2.956A6.919,6.919,0,0,1,1027.662,238.079Z" transform="translate(-954.309 -207.777)"/>
        <path id="Path_3070" data-name="Path 3070" d="M1001.9,276.6a6.321,6.321,0,0,1-.274-1.478,7.2,7.2,0,0,0,.274,2.69c.638,1.981,2.956,3.614,4.9,2.764-.053-.4-.084-.8-.1-1.2C1004.747,280.161,1002.5,278.549,1001.9,276.6Z" transform="translate(-952.708 -217.893)"/>
      </g>
      <path id="Path_3071" data-name="Path 3071" class="cls-4" d="M879.26,795s2.933,5.018,13.557.6" transform="translate(-784.91 -338.891)"/>
      <path id="Path_3072" data-name="Path 3072" class="cls-4" d="M997.5,796.67s9.164,10.495,20.715,3.437" transform="translate(-813.3 -339.326)"/>
      <path id="Path_3073" data-name="Path 3073" class="cls-4" d="M1030.494,628.7s-6.482,3.939-6.687,6.194,3.344-1.641,3.344-1.641Z" transform="translate(-819.614 -295.5)"/>
      <path id="Path_3074" data-name="Path 3074" class="cls-4" d="M1032.326,669.53a13.751,13.751,0,0,1-7.979,3.03c-4.841.207-4.438,6.349-1.277,4.5S1032.326,669.53,1032.326,669.53Z" transform="translate(-818.87 -306.153)"/>
      <path id="Path_3075" data-name="Path 3075" class="cls-4" d="M1035.811,674.86s-3.108,14.856-5.631,11.988" transform="translate(-821.146 -307.544)"/>
    </g>
  </g>
</svg>
