<svg xmlns="http://www.w3.org/2000/svg" xmlns:xlink="http://www.w3.org/1999/xlink" viewBox="0 0 530.172 476.814"><defs><style>.a{fill:rgba(156,201,198,0.5);}.b,.g,.s{fill:#25a59a;}.b,.d,.e{opacity:0.1;}.c,.t{fill:#fff;}.c{opacity:0.4;}.d{fill:#252223;}.f{fill:url(#a);}.ah,.ai,.aj,.h,.i,.j,.k,.n,.o,.p,.q,.r{fill:none;}.h,.n,.q{stroke:#707070;}.ah,.ai,.aj,.h,.i,.p{stroke-miterlimit:10;}.h,.i,.j,.k{stroke-width:5px;}.i,.j,.k,.o,.p{stroke:#25a59a;}.j,.k,.n,.o,.q,.r{stroke-linejoin:round;}.k,.q,.r{stroke-linecap:round;}.ak,.l{fill:#64ffda;}.m{fill:url(#c);}.n,.o,.p,.q,.r{stroke-width:3px;}.ah,.ai,.aj,.r{stroke:#64ffda;}.ak,.s{opacity:0.2;}.u{fill:#f5f5f5;}.v{fill:#ff5252;}.w{fill:#ff0;}.x{fill:#69f0ae;}.y{fill:url(#e);}.z{fill:url(#f);}.aa{fill:#00aced;}.ab{fill:url(#h);}.ac{fill:#0077b5;}.ad{fill:url(#j);}.ae{fill:#bd081c;}.af{fill:url(#l);}.ag{fill:#d34836;}.ai{stroke-dasharray:10.82 9.92;}.aj{stroke-dasharray:11.83 10.85;}.al{fill:url(#n);}.am{fill:#3b5998;}</style><linearGradient id="a" x1="0.5" y1="1" x2="0.5" gradientUnits="objectBoundingBox"><stop offset="0" stop-color="gray" stop-opacity="0.251"/><stop offset="0.54" stop-color="gray" stop-opacity="0.122"/><stop offset="1" stop-color="gray" stop-opacity="0.102"/></linearGradient><linearGradient id="c" x1="0.5" x2="0.5" y2="0.001" xlink:href="#a"/><linearGradient id="e" x1="0.5" x2="0.5" xlink:href="#a"/><linearGradient id="f" x1="0.5" x2="0.5" y2="-0.001" xlink:href="#a"/><linearGradient id="h" x1="0.5" x2="0.5" xlink:href="#a"/><linearGradient id="j" x1="0.5" x2="0.5" y2="0.001" xlink:href="#a"/><linearGradient id="l" x1="0" y1="0.499" x2="0.999" y2="0.499" xlink:href="#a"/><linearGradient id="n" x1="8.885" y1="8.964" x2="8.885" y2="7.925" xlink:href="#a"/></defs><g transform="translate(-11425 1462)"><path class="a" d="M9450.5,124.837c40.271,30.761,134.928,91.717,143.735,148.241,9.147,58.728-15.565,137.462-20.19,195.29-13.58,72.426-196.909,106.376-196.909,106.376s-434.623,64.931-276.378-205.453c9.481-36.391-30.7-164.523,21.725-207.944C9208.982,89.705,9427.354,96.545,9450.5,124.837Z" transform="translate(2358.922 -1566.766)"/><g transform="translate(11498.472 -1336.357)"><path class="b" d="M380.347,104.073V77.323H364.465v26.75H345.656V62.695H331.863V31.765H320.578V0H297.172V31.765H285.887V62.695H272.513V25.5h-7.523V6.687h-4.6V25.5h-26.75V144.2h-20.48V131.659H200.623V144.2h-20.48V104.073H143.362V77.323H127.479v26.75h-.836v51.41H109.925V125.389H89.862v30.093H73.144V62.695H60.187V31.765H12.539V62.695H0V226.119H399.156V104.073Z" transform="translate(0)"/><rect class="c" width="17.554" height="10.031" transform="translate(7.941 72.308)"/><rect class="c" width="17.554" height="10.031" transform="translate(64.785 82.339) rotate(180)"/><rect class="c" width="17.554" height="10.031" transform="translate(7.941 91.952)"/><rect class="c" width="17.554" height="10.031" transform="translate(64.785 101.983) rotate(180)"/><rect class="c" width="17.554" height="10.031" transform="translate(7.941 111.596)"/><rect class="c" width="17.554" height="10.031" transform="translate(64.785 121.628) rotate(180)"/><rect class="c" width="17.554" height="10.031" transform="translate(7.941 131.241)"/><rect class="c" width="17.554" height="10.031" transform="translate(64.785 141.272) rotate(180)"/><rect class="c" width="17.554" height="10.031" transform="translate(7.941 150.885)"/><rect class="c" width="17.554" height="10.031" transform="translate(64.785 160.916) rotate(180)"/><rect class="c" width="17.554" height="10.031" transform="translate(7.941 170.529)"/><rect class="c" width="17.554" height="10.031" transform="translate(64.785 180.561) rotate(180)"/><rect class="c" width="17.554" height="10.031" transform="translate(7.941 190.174)"/><rect class="c" width="17.554" height="10.031" transform="translate(64.785 200.205) rotate(180)"/><rect class="c" width="40.96" height="5.016" transform="translate(79.413 165.514)"/><rect class="c" width="40.96" height="5.016" transform="translate(79.413 173.037)"/><rect class="c" width="40.96" height="5.016" transform="translate(79.413 180.561)"/><rect class="c" width="40.96" height="5.016" transform="translate(186.412 168.021)"/><rect class="c" width="40.96" height="5.016" transform="translate(186.412 175.545)"/><rect class="c" width="40.96" height="5.016" transform="translate(186.412 183.068)"/><rect class="c" width="40.96" height="5.016" transform="translate(79.413 188.084)"/><rect class="c" width="40.96" height="5.016" transform="translate(79.413 195.607)"/><rect class="c" width="40.96" height="5.016" transform="translate(79.413 203.13)"/><rect class="c" width="11.285" height="14.629" transform="translate(135.42 113.686)"/><rect class="c" width="11.285" height="14.629" transform="translate(171.366 128.315) rotate(180)"/><rect class="c" width="11.285" height="14.629" transform="translate(135.42 137.092)"/><rect class="c" width="11.285" height="14.629" transform="translate(171.366 151.721) rotate(180)"/><rect class="c" width="11.285" height="14.629" transform="translate(135.42 160.498)"/><rect class="c" width="11.285" height="14.629" transform="translate(171.366 175.127) rotate(180)"/><rect class="c" width="11.285" height="14.629" transform="translate(135.42 183.904)"/><rect class="c" width="11.285" height="14.629" transform="translate(171.366 198.533) rotate(180)"/><rect class="c" width="15.047" height="19.226" transform="translate(233.642 35.109)"/><rect class="c" width="15.047" height="19.226" transform="translate(233.642 62.695)"/><rect class="c" width="15.047" height="19.226" transform="translate(233.642 90.28)"/><rect class="c" width="15.047" height="19.226" transform="translate(233.642 117.866)"/><rect class="c" width="15.047" height="19.226" transform="translate(233.642 145.452)"/><rect class="c" width="15.047" height="19.226" transform="translate(233.642 173.037)"/><rect class="c" width="56.007" height="16.301" transform="translate(281.08 74.398)"/><rect class="c" width="56.007" height="16.301" transform="translate(281.29 109.507)"/><rect class="c" width="56.007" height="16.301" transform="translate(281.498 144.616)"/><rect class="c" width="56.007" height="16.301" transform="translate(281.707 179.725)"/><rect class="c" width="7.523" height="15.883" transform="translate(12.539 40.543)"/><rect class="c" width="18.808" height="24.242" transform="translate(380.348 113.686)"/><rect class="c" width="18.808" height="24.242" transform="translate(380.348 148.795)"/><rect class="c" width="18.808" height="24.242" transform="translate(380.348 183.904)"/><path class="d" d="M346.2,151.822h-2.876a2.015,2.015,0,1,0,0-4.025H320.036a2.015,2.015,0,0,0,0,4.025h2.876a2.015,2.015,0,1,0,0,4.025h-4.025a2.015,2.015,0,1,0,0,4.025H342.18a2.015,2.015,0,1,0,0-4.025H346.2a2.015,2.015,0,1,0,0-4.025Z" transform="translate(-235.578 -131.894)"/><path class="d" d="M592.2,272.822h-2.876a2.015,2.015,0,1,0,0-4.025H566.036a2.015,2.015,0,0,0,0,4.025h2.876a2.015,2.015,0,1,0,0,4.025h-4.025a2.015,2.015,0,1,0,0,4.025H588.18a2.015,2.015,0,1,0,0-4.025H592.2a2.015,2.015,0,1,0,0-4.025Z" transform="translate(-378.759 -202.32)"/><path class="d" d="M1011.205,114.822h-2.875a2.015,2.015,0,1,0,0-4.025H985.036a2.015,2.015,0,0,0,0,4.025h2.876a2.015,2.015,0,1,0,0,4.025h-4.025a2.015,2.015,0,1,0,0,4.025h23.293a2.015,2.015,0,0,0,0-4.025h4.025a2.015,2.015,0,1,0,0-4.025Z" transform="translate(-622.632 -110.358)"/><path class="e" d="M489.287,418.92s-1.1,5.321-1.317,8.15" transform="translate(-335.217 -289.698)"/></g><g transform="translate(11474.014 -1371.97)"><path class="f" d="M143.446,66.353V30.494H132.017l-3.508-20.327h4.77V0H107.306V10.166h4.77l-3.508,20.327H97.14V67.2h.28V81.6h72V66.353Z" transform="translate(-48.961)"/><path class="g" d="M144.384,44.684H119.76l5.355-31.054h13.918Z" transform="translate(-60.066 -6.691)"/><rect class="f" width="85.525" height="43.821" transform="translate(41.51 310.496)"/><rect class="g" width="77.095" height="38.547" transform="translate(45.776 310.496)"/><rect class="h" width="53.962" height="231.014" transform="translate(57.546 79.482)"/><rect class="i" width="48.719" height="231.014" transform="translate(60.229 79.482)"/><path class="j" d="M169.529,269.882H120.81L169.264,230.8" transform="translate(-60.581 -113.305)"/><path class="j" d="M120.81,346.382h48.719L121.08,307.57" transform="translate(-60.581 -150.993)"/><path class="j" d="M169.529,422.372H120.81l48.454-39.082" transform="translate(-60.581 -188.166)"/><path class="j" d="M120.55,498.872h48.719L120.28,460.06" transform="translate(-60.321 -225.854)"/><path class="k" d="M121.08,156.13l48.449,38.277H120.81" transform="translate(-60.581 -76.648)"/><line class="i" y1="37.473" x2="48.184" transform="translate(60.499 272.753)"/><rect class="g" width="68.262" height="14.453" transform="translate(50.327 65.029)"/><rect class="g" width="43.903" height="34.8" transform="translate(50.057 31.033)"/><rect class="l" width="14.992" height="13.918" transform="translate(78.968 31.033)"/><rect class="i" width="49.253" height="21.951" transform="translate(0 55.927)"/><rect class="i" width="197.552" height="21.951" transform="translate(118.854 55.927)"/><path class="j" d="M50.88,109.86v21.946L75.5,109.86" transform="translate(-26.251 -53.933)"/><path class="j" d="M411.153,131.806V109.86L391.61,131.806" transform="translate(-193.523 -53.933)"/><path class="j" d="M370.441,110.38V131.8L348.49,110.65" transform="translate(-172.355 -54.188)"/><path class="j" d="M326.541,132.346V109.86L304.32,131.806" transform="translate(-150.671 -53.933)"/><path class="j" d="M260.68,133.656V111.7L282.9,132.317V111.44" transform="translate(-129.247 -54.709)"/><path class="j" d="M456.218,110.125v21.417l-25.7-21.682" transform="translate(-212.625 -53.933)"/><path class="j" d="M506.968,132.861V110.91L481,132.322" transform="translate(-237.407 -54.448)"/><path class="j" d="M558.228,111.18v20.877l-25.7-21.147" transform="translate(-262.704 -54.448)"/><path class="m" d="M699.5,263.529c7.733,0,14-3.737,14-8.349h-28C685.5,259.792,691.767,263.529,699.5,263.529Z" transform="translate(-417.96 -175.968)"/><path class="l" d="M701.775,261.615c6.8,0,12.315-2.876,12.315-6.425H689.46C689.46,258.738,694.973,261.615,701.775,261.615Z" transform="translate(-419.904 -175.973)"/><rect class="g" width="24.629" height="9.637" transform="translate(59.694 2.123)"/><line class="j" x2="24.629" y2="21.946" transform="translate(0 55.927)"/><line class="n" x1="61.298" y2="51.096" transform="translate(0 6.939)"/><line class="o" x1="61.298" y2="48.988" transform="translate(0 6.939)"/><line class="n" x2="104.931" y2="51.096" transform="translate(82.18 6.939)"/><line class="p" x2="104.931" y2="48.988" transform="translate(82.18 6.939)"/><line class="j" x1="20.882" y2="22.481" transform="translate(295.524 55.393)"/><line class="n" x2="235.565" y2="51.361" transform="translate(80.841 6.674)"/><line class="o" x2="235.565" y2="48.719" transform="translate(80.841 6.674)"/><path class="q" d="M713.4,297.965a7.5,7.5,0,1,1-7.5-7.5V257.58" transform="translate(-424.293 -177.146)"/><path class="r" d="M713.378,298.463a6.959,6.959,0,1,1-6.959-6.959V261" transform="translate(-424.813 -178.825)"/><rect class="g" width="77.095" height="38.547" transform="translate(45.776 310.496)"/><rect class="s" width="248.837" height="183.537" transform="translate(199.196 173.239)"/><path class="f" d="M355.37,294.37V492.91H605.087V294.37Z" transform="translate(-175.732 -144.513)"/><rect class="t" width="243.542" height="182.657" transform="translate(183.166 162.212)"/><rect class="u" width="243.542" height="9.708" transform="translate(183.166 152.504)"/><ellipse class="v" cx="2.352" cy="2.352" rx="2.352" ry="2.352" transform="translate(187.875 154.856)"/><ellipse class="w" cx="2.352" cy="2.352" rx="2.352" ry="2.352" transform="translate(194.345 154.856)"/><ellipse class="x" cx="2.352" cy="2.352" rx="2.352" ry="2.352" transform="translate(200.815 154.856)"/><path class="r" d="M641,583.25" transform="translate(-396.114 -337.025)"/><path class="r" d="M569.52,583.25" transform="translate(-361.023 -337.025)"/><rect class="y" width="50.327" height="62.637" transform="translate(201.543 241.939)"/><rect class="t" width="46.041" height="57.821" transform="translate(203.681 243.013)"/><path class="l" d="M567.425,581.32a1.874,1.874,0,0,0,0,3.747A1.874,1.874,0,0,0,567.425,581.32Z" transform="translate(-359.106 -336.078)"/><path class="l" d="M638.935,581.32a1.875,1.875,0,0,0,0,3.747A1.875,1.875,0,0,0,638.935,581.32Z" transform="translate(-394.211 -336.078)"/><path class="z" d="M600.979,618.566l2.678-.534a25.393,25.393,0,0,1-2.678,2.678h0a10.769,10.769,0,0,0,0,1.6c-5.142,22.058-24.089,12.315-24.089,12.315,6.908.163,7.494-2.678,7.494-2.678-4.017-.591-4.816-3.212-4.816-3.212a1.654,1.654,0,0,0,2.143-.535,4.863,4.863,0,0,1-3.747-5.355,5.569,5.569,0,0,0,2.622,1.018c-.484-.591-4.551-5.462-2.087-7.977,0,0,3,5.356,10.869,5.834l.534-.107a4.2,4.2,0,0,1-.107-1.176,5.6,5.6,0,0,1,5.6-5.6c3.747,0,4.551,2.143,4.551,2.143l2.678-1.6C602.583,615.354,602.318,618.032,600.979,618.566Z" transform="translate(-364.641 -352.533)"/><path class="aa" d="M603.084,615.411l2.678-.535a25.387,25.387,0,0,1-2.678,2.678h0a10.785,10.785,0,0,0,0,1.6C597.948,641.222,579,631.478,579,631.478c6.908.163,7.494-2.678,7.494-2.678-4.017-.591-4.816-3.212-4.816-3.212a1.654,1.654,0,0,0,2.143-.534,4.863,4.863,0,0,1-3.747-5.356,5.569,5.569,0,0,0,2.622,1.018c-.484-.59-4.551-5.462-2.087-7.977,0,0,3,5.355,10.869,5.834l.534-.107a4.2,4.2,0,0,1-.107-1.176,5.6,5.6,0,0,1,5.6-5.6c3.747,0,4.551,2.143,4.551,2.143l2.678-1.6C604.693,612.2,604.423,614.9,603.084,615.411Z" transform="translate(-365.677 -350.987)"/><path class="r" d="M950.22,635.83" transform="translate(-547.917 -362.838)"/><path class="r" d="M878.71,635.83" transform="translate(-512.811 -362.838)"/><rect class="f" width="50.327" height="62.637" transform="translate(357.871 266.568)"/><rect class="t" width="46.041" height="57.821" transform="translate(361.083 268.711)"/><path class="l" d="M876.615,631.8a1.875,1.875,0,0,0,0,3.747A1.875,1.875,0,0,0,876.615,631.8Z" transform="translate(-510.894 -360.859)"/><path class="l" d="M948.125,631.8a1.875,1.875,0,0,0,0,3.747A1.875,1.875,0,0,0,948.125,631.8Z" transform="translate(-546 -360.859)"/><path class="ab" d="M904.432,681.389l2.937-10.075a2.784,2.784,0,0,0-1.985-2.754c-2.036-.484-2.795-.367-4.032.443l-3.085,10.589-5.142-1.5,4.643-15.934,5.142,1.5-.687,2.362s2.657-2.795,6.022-1.527c3.126,1.135,4.923,3.777,4.22,8.089l.1.031-3,10.278Zm-12.218-23.082a4.8,4.8,0,1,0-.015,0Zm-2.673,18.739-5.142-1.5,4.643-15.934,5.142,1.5Z" transform="translate(-515.605 -370.781)"/><path class="ac" d="M906.517,678.239l2.937-10.075a2.784,2.784,0,0,0-1.985-2.754c-2.036-.484-2.795-.367-4.032.443l-3.09,10.568-5.142-1.5,4.643-15.934,5.142,1.5-.687,2.362s2.657-2.795,6.022-1.527c3.126,1.135,4.923,3.777,4.22,8.089l.1.031-3,10.278ZM894.3,655.157a3.11,3.11,0,1,0-.015-.005Zm-2.688,18.719-5.142-1.5,4.643-15.934,5.142,1.5Z" transform="translate(-516.621 -369.234)"/><rect class="f" width="50.327" height="62.637" transform="translate(268.996 271.923)"/><rect class="t" width="46.041" height="57.821" transform="translate(271.139 274.061)"/><path class="l" d="M699.935,642.32a1.874,1.874,0,0,0,0,3.747A1.874,1.874,0,0,0,699.935,642.32Z" transform="translate(-424.158 -366.024)"/><path class="l" d="M771.445,642.32a1.875,1.875,0,0,0,0,3.747A1.875,1.875,0,0,0,771.445,642.32Z" transform="translate(-459.264 -366.024)"/><path class="ad" d="M738.151,681.742c-.591,2.836-1.018,6.694-6.959,8.028,0,0-3.482.911-4.582-1.6a32.682,32.682,0,0,1-1.822,5.89,33.435,33.435,0,0,1-2.678,3.747s.484-4.816.535-5.89c.056-1.66,1.6-9.1,1.6-9.1s-1.446-5.249,2.143-5.89c0,0,2.943-.7,2.143,3.212,0,0-.59,2.545-1.339,5.513l.27.377a3.007,3.007,0,0,0,2.143,1.6c1.446.158,5.249-2.408,5.355-6.959s-.855-5.834-4.816-6.959a6.727,6.727,0,0,0-8.568,4.281c-1.39,3.961-.27,4.928.535,5.89l-.535,2.678a5.686,5.686,0,0,1-3.772-5.376C717.915,677.109,720.216,671,728.5,671S738.741,678.85,738.151,681.742Z" transform="translate(-433.82 -380.104)"/><path class="ae" d="M740.275,678.6c-.591,2.836-1.018,6.694-6.959,8.028,0,0-3.482.911-4.582-1.6a32.669,32.669,0,0,1-1.822,5.89,33.456,33.456,0,0,1-2.678,3.747s.484-4.816.535-5.89c.056-1.66,1.6-9.1,1.6-9.1s-1.446-5.248,2.143-5.89c0,0,2.943-.7,2.143,3.212,0,0-.59,2.545-1.339,5.513l.27.377a3.006,3.006,0,0,0,2.143,1.6c1.446.158,5.249-2.408,5.356-6.959s-.855-5.834-4.816-6.959a6.727,6.727,0,0,0-8.568,4.281c-1.39,3.961-.27,4.928.534,5.89l-.534,2.678a5.638,5.638,0,0,1-3.747-5.356c.107-4.073,2.408-10.182,10.691-10.182S740.85,675.71,740.275,678.6Z" transform="translate(-434.875 -378.572)"/><path class="r" d="M958.63,473.88" transform="translate(-552.046 -283.333)"/><path class="r" d="M887.12,473.88" transform="translate(-516.94 -283.333)"/><rect class="f" width="50.327" height="62.637" transform="translate(363.221 184.123)"/><rect class="t" width="46.041" height="57.821" transform="translate(365.364 186.261)"/><path class="l" d="M885.025,469.85a1.875,1.875,0,0,0,0,3.747A1.875,1.875,0,0,0,885.025,469.85Z" transform="translate(-515.023 -281.354)"/><path class="l" d="M956.535,469.85a1.875,1.875,0,0,0,0,3.747C958.948,473.6,958.937,469.85,956.535,469.85Z" transform="translate(-550.129 -281.354)"/><path class="af" d="M927.784,511.458h-3.462v3.482a.825.825,0,0,1-.8.8h-.535a.825.825,0,0,1-.8-.8v-3.482H918.7a.825.825,0,0,1-.8-.8v-.534a.825.825,0,0,1,.8-.8h3.482v-3.482a.825.825,0,0,1,.8-.8h.535a.825.825,0,0,1,.8.8v3.482H927.8a.824.824,0,0,1,.8.8v.534a.825.825,0,0,1-.825.8Zm-12.116-9.423a5.355,5.355,0,0,1,1.125,3.268,5.661,5.661,0,0,1-3.64,5.142c.163.534.7,1.125,2.036,2.087a7.616,7.616,0,0,1,2.678,5.355h0v.27c0,2.785-3.375,5.091-7.494,5.091s-7.494-2.3-7.494-5.091c0-2.678,3.054-4.872,6.959-5.091v-2.194a5.6,5.6,0,1,1,.8-11.169h.27s6.155-.484,6.959-.535.534,1.069.534,1.069Zm-9.046,15.848c0,1.766,1.822,3.212,4.017,3.212s4.017-1.446,4.017-3.212-1.823-3.212-4.017-3.212-4,1.446-4,3.212Zm6.531-13.119c-.428-2.036-1.929-3.482-3.319-3.212s-2.143,2.194-1.716,4.23,1.929,3.482,3.319,3.212,2.158-2.143,1.731-4.23Z" transform="translate(-524.677 -295.747)"/><path class="ag" d="M929.894,508.3h-3.482v3.487a.825.825,0,0,1-.8.8h-.534a.825.825,0,0,1-.8-.8V508.3h-3.487a.825.825,0,0,1-.8-.8v-.534a.825.825,0,0,1,.8-.8h3.482v-3.482a.825.825,0,0,1,.8-.8h.534a.825.825,0,0,1,.8.8v3.482h3.482a.825.825,0,0,1,.8.8v.534A.825.825,0,0,1,929.894,508.3Zm-12.1-9.423a5.355,5.355,0,0,1,1.125,3.268,5.661,5.661,0,0,1-3.64,5.142c.163.535.7,1.125,2.036,2.087a7.617,7.617,0,0,1,2.678,5.355h0V515c0,2.785-3.375,5.091-7.494,5.091s-7.5-2.311-7.5-5.1c0-2.678,3.054-4.872,6.959-5.091v-2.189a5.6,5.6,0,1,1,.8-11.169h.27s6.155-.484,6.959-.535.535,1.069.535,1.069Zm-9.046,15.848c0,1.766,1.823,3.212,4.017,3.212s4.017-1.446,4.017-3.212-1.823-3.212-4.017-3.212S908.747,512.956,908.747,514.722Zm6.531-13.119c-.428-2.036-1.929-3.482-3.319-3.212s-2.143,2.194-1.716,4.23,1.929,3.482,3.319,3.212S915.691,503.7,915.278,501.6Z" transform="translate(-525.718 -294.195)"/><path class="ah" d="M597.894,465.57v3.054H594.84" transform="translate(-293.294 -228.559)"/><line class="ai" x1="29.145" transform="translate(267.352 240.065)"/><path class="ah" d="M519.764,468.624H516.71V465.57" transform="translate(-254.938 -228.559)"/><line class="aj" y1="43.429" transform="translate(261.772 188.063)"/><path class="ah" d="M516.71,361.054V358h3.055" transform="translate(-254.938 -175.751)"/><line class="ai" x2="29.15" transform="translate(269.872 182.249)"/><path class="ah" d="M594.84,358h3.054v3.054" transform="translate(-293.294 -175.751)"/><line class="aj" y2="43.429" transform="translate(304.601 190.822)"/><rect class="ak" width="42.829" height="57.821" transform="translate(261.772 182.249)"/><path class="r" d="M520.39,274.352l18.2-27.3,18.2,27.3" transform="translate(-256.744 -121.283)"/><rect class="f" width="50.327" height="62.637" transform="translate(256.147 146.645)"/><rect class="t" width="46.041" height="57.821" transform="translate(258.825 148.788)"/><path class="l" d="M675.745,396.23a1.875,1.875,0,0,0,0,3.747A1.875,1.875,0,0,0,675.745,396.23Z" transform="translate(-412.282 -245.213)"/><path class="l" d="M747.255,396.23a1.875,1.875,0,0,0,0,3.747A1.875,1.875,0,0,0,747.255,396.23Z" transform="translate(-447.388 -245.213)"/><path class="al" d="M706.642,431.491l-.092,2.678,4.281.148-.7,4.8-3.747-.127-.458,13.379-5.885-.2.458-13.378-2.678-.092.163-4.816,2.678.092.092-2.678s-.305-5.091,4.485-5.737l5.91.229L711,430.06l-2.678-.092a1.578,1.578,0,0,0-1.68,1.522Z" transform="translate(-424.008 -259.606)"/><path class="am" d="M708.925,428.421l-.153,2.673,4.276.239-.8,4.78L708.5,435.9l-.753,13.363-5.88-.331.753-13.363-2.673-.153.27-4.811,2.673.153.153-2.673s-.193-5.091,4.607-5.641l5.88.331-.239,4.276-2.673-.153a1.578,1.578,0,0,0-1.7,1.517Z" transform="translate(-425.054 -258.085)"/></g></g></svg>