<svg xmlns="http://www.w3.org/2000/svg" viewBox="0 0 258.397 222"><defs><style>.a{fill:#63d7cb;}.a,.i,.j,.k{opacity:0.3;}.b{fill:#e0e0e0;}.c{opacity:0.1;}.d{opacity:0.17;}.e{opacity:0.05;}.f{opacity:0.07;}.g,.j{fill:#00aced;}.h,.k{fill:#26a69a;}.i,.l{fill:#535461;}</style></defs><path class="a" d="M316.415,126.154a91.551,91.551,0,0,1-59.307.713c-27.381-9.043-63.141-11.358-76.391,30.083-22.615,70.8,23.652,96.074,23.652,96.074s32.3,6.624,50.187,18.592c25.406,17,56.519,22.683,85.829,14.711,18.743-5.1,34.807-13.463,39.4-27.148,12.844-38.276,4.691-61.282,27.936-71.373s10.311-47.478-6.22-48.327-55.48,7.823-67.529-9.425C329.674,123.929,323.1,123.788,316.415,126.154Z" transform="translate(-174.49 -121.43)"/><g transform="translate(3.713 10.425)"><path class="b" d="M413.02,367.027,347.86,352.67V465.022l65.16-15.6Z" transform="translate(-240.886 -253.446)"/><path class="c" d="M413.02,367.027,347.86,352.67V465.022l65.16-15.6Z" transform="translate(-240.886 -253.446)"/><path class="b" d="M135.99,367.027l65.16-14.357V465.022L135.99,449.73Z" transform="translate(-94.176 -253.446)"/><path class="d" d="M135.99,365.264l65.16-14.354V463.757l-65.16-15.291Z" transform="translate(-94.176 -252.181)"/><path class="b" d="M346.09,287.8l34.319-26.09L445.566,277l-34.316,25.15Z" transform="translate(-239.66 -188.078)"/><path class="b" d="M29.05,279.084l33.434,24.342,65.157-14.354L94.552,263.48Z" transform="translate(-20.125 -189.35)"/><path class="e" d="M27.29,277.316l34.245,24.838L126.7,287.8,92.789,261.71Z" transform="translate(-18.906 -188.078)"/><path class="b" d="M135.99,403.7v82.7l65.16,15.291.88-82.078Z" transform="translate(-94.176 -290.119)"/><path class="b" d="M413.02,486.091l-65.16,15.6V419.616L413.02,403.7Z" transform="translate(-240.886 -290.119)"/><path class="f" d="M413.02,486.091l-65.16,15.6V419.616L413.02,403.7Z" transform="translate(-240.886 -290.119)"/><path class="f" d="M475.42,582.183v27.153l25.929-6.555V575.63Z" transform="translate(-329.215 -413.676)"/><path class="c" d="M133.22,449.4l36.5,8.426,29.34-21.847v-13.42L133.9,407.58Z" transform="translate(-92.258 -292.907)"/><path class="c" d="M413.15,449.4l-36.5,8.426L347.31,435.979v-13.42l65.157-14.979Z" transform="translate(-240.505 -292.907)"/><path class="g" d="M401.467,464.843l2.525-.461a22.792,22.792,0,0,1-2.525,2.31h0a8.509,8.509,0,0,0,0,1.387c-4.85,19.045-22.737,10.632-22.737,10.632,6.517.138,7.074-2.31,7.074-2.31-3.789-.509-4.549-2.774-4.549-2.774a1.652,1.652,0,0,0,2.021-.461,4.177,4.177,0,0,1-3.537-4.623,5.456,5.456,0,0,0,2.476.878c-.455-.509-4.306-4.715-1.971-6.887,0,0,2.829,4.623,10.257,5.039l.5-.093a3.328,3.328,0,0,1-.1-1.016,5.094,5.094,0,0,1,5.305-4.853c3.537,0,4.306,1.849,4.306,1.849l2.525-1.387C402.983,462.069,402.731,464.381,401.467,464.843Z" transform="translate(-321.751 -352.556)"/><path class="b" d="M60.72,403.7,27.29,428.979l65.157,14.979,33.434-24.342Z" transform="translate(-18.906 -290.119)"/><path class="h" d="M585.98,464.55l1.249-1.59a16.479,16.479,0,0,1-.1,2.715h0a8.061,8.061,0,0,0,.858.844c8.848,14.09-7.237,18.248-7.237,18.248,4.047-3.295,2.87-5.064,2.87-5.064-2.633,1.646-4.478.661-4.478.661a1.191,1.191,0,0,0,.941-1.328,4.017,4.017,0,0,1-5.013-.976,4.569,4.569,0,0,0,2.048-.748c-.591-.073-5.536-.639-5.465-3.165A11.251,11.251,0,0,0,581,471.9l.249-.318a3.217,3.217,0,0,1-.692-.563,3.8,3.8,0,0,1,.218-5.7c2.153-1.834,3.755-1.1,3.755-1.1l.677-2.152C585.183,462.08,586.46,463.613,585.98,464.55Z" transform="translate(-455.337 -352.879)"/><path class="b" d="M413.02,403.7l33.772,25.279-64.819,14.979L347.86,419.616Z" transform="translate(-240.886 -290.119)"/><path class="f" d="M413.02,403.7l33.772,25.279-64.819,14.979L347.86,419.616Z" transform="translate(-240.886 -290.119)"/><path class="g" d="M562.308,188.6l2.31-1.016a21.1,21.1,0,0,1-1.812,2.8h0a8.622,8.622,0,0,0,.375,1.336c.471,19.447-19.037,15.384-19.037,15.384,6.317-1.339,6.191-3.826,6.191-3.826-3.789.366-5.13-1.643-5.13-1.643a1.567,1.567,0,0,0,1.824-.9,4.374,4.374,0,0,1-4.656-3.658,5.609,5.609,0,0,0,2.623.281c-.575-.388-5.413-3.573-3.758-6.19,0,0,3.977,3.815,11.244,2.532l.461-.2a3.409,3.409,0,0,1-.372-.957,4.81,4.81,0,0,1,3.8-5.877c3.408-.8,4.638.81,4.638.81l2.061-1.908C563.018,185.58,563.4,187.864,562.308,188.6Z" transform="translate(-434.042 -154.173)"/><path class="g" d="M216.077,240.815l2.513-.459a22.573,22.573,0,0,1-2.513,2.3h0a8.463,8.463,0,0,0,0,1.379c-4.825,18.943-22.617,10.576-22.617,10.576,6.483.138,7.037-2.3,7.037-2.3-3.771-.506-4.524-2.76-4.524-2.76a1.625,1.625,0,0,0,2.011-.459,4.145,4.145,0,0,1-3.528-4.586,5.408,5.408,0,0,0,2.46.875c-.452-.506-4.272-4.69-1.959-6.851,0,0,2.814,4.6,10.2,5.011l.5-.093a3.311,3.311,0,0,1-.1-1.013,4.63,4.63,0,0,1,1.55-3.415,5.538,5.538,0,0,1,3.737-1.41c3.518,0,4.272,1.84,4.272,1.84l2.513-1.379C217.575,238.069,217.326,240.367,216.077,240.815Z" transform="translate(-193.46 -191.578)"/><path class="g" d="M910.146,90.286l4.1-.751s-3.445,3.525-4.1,3.75h0a13.8,13.8,0,0,0,0,2.251c-7.873,30.906-36.906,17.252-36.906,17.252,10.577.225,11.481-3.75,11.481-3.75-6.151-.824-7.381-4.5-7.381-4.5a2.679,2.679,0,0,0,3.278-.751c-6.643-1.576-5.739-7.5-5.739-7.5A9.038,9.038,0,0,0,878.9,97.71c-.738-.824-6.969-7.653-3.2-11.178,0,0,4.592,7.5,16.645,8.176l.821-.149A5.4,5.4,0,0,1,893,92.908c0-4.351,3.855-7.878,8.611-7.878,5.739,0,6.969,3,6.969,3l4.1-2.251C912.606,85.784,912.2,89.523,910.146,90.286Z" transform="translate(-659.562 -84.459)"/><path class="g" d="M740.972,76.175l1.7-.309a15.367,15.367,0,0,1-1.7,1.553h0a5.73,5.73,0,0,0,0,.931c-3.26,12.8-15.282,7.146-15.282,7.146,4.383.093,4.755-1.553,4.755-1.553-2.547-.34-3.057-1.865-3.057-1.865a1.109,1.109,0,0,0,1.359-.31,2.8,2.8,0,0,1-2.377-3.095,3.728,3.728,0,0,0,1.664.591c-.308-.34-2.888-3.168-1.326-4.628,0,0,1.9,3.095,6.9,3.376l.338-.062a2.236,2.236,0,0,1-.068-.684,3.126,3.126,0,0,1,1.043-2.31A3.74,3.74,0,0,1,737.441,74c2.377,0,2.888,1.244,2.888,1.244l1.7-.931C741.99,74.309,741.821,75.865,740.972,76.175Z" transform="translate(-562.004 -74)"/><path class="i" d="M490.3,297.039l1.7-.31a15.365,15.365,0,0,1-1.7,1.553h0a5.716,5.716,0,0,0,0,.931c-3.26,12.8-15.282,7.146-15.282,7.146,4.383.093,4.755-1.553,4.755-1.553-2.546-.34-3.057-1.865-3.057-1.865a1.109,1.109,0,0,0,1.359-.309,2.8,2.8,0,0,1-2.377-3.095,3.729,3.729,0,0,0,1.664.591c-.308-.34-2.888-3.168-1.326-4.628,0,0,1.9,3.095,6.9,3.376l.338-.062a2.235,2.235,0,0,1-.068-.684,3.423,3.423,0,0,1,3.564-3.261c2.377,0,2.888,1.244,2.888,1.244l1.7-.931C491.314,295.188,491.151,296.73,490.3,297.039Z" transform="translate(-388.427 -232.728)"/><path class="j" d="M705.592,194.342l1.7-.309a13.417,13.417,0,0,1-1.7,1.55h0a5.7,5.7,0,0,0,0,.931c-3.26,12.8-15.282,7.146-15.282,7.146,4.383.093,4.755-1.553,4.755-1.553-2.547-.34-3.057-1.865-3.057-1.865a1.109,1.109,0,0,0,1.359-.31,2.8,2.8,0,0,1-2.377-3.095,3.729,3.729,0,0,0,1.664.591c-.308-.34-2.888-3.168-1.325-4.628,0,0,1.9,3.095,6.9,3.376l.338-.062a2.24,2.24,0,0,1-.068-.684,3.423,3.423,0,0,1,3.565-3.261c2.377,0,2.888,1.244,2.888,1.244l1.7-.931C706.625,192.477,706.453,194.03,705.592,194.342Z" transform="translate(-537.505 -158.923)"/><path class="h" d="M564.228,373.154l3.531-.647a31.783,31.783,0,0,1-3.531,3.23h0a11.91,11.91,0,0,0,0,1.939c-6.781,26.624-31.788,14.864-31.788,14.864,9.113.194,9.891-3.23,9.891-3.23-5.3-.712-6.357-3.877-6.357-3.877a2.308,2.308,0,0,0,2.826-.647c-5.72-1.356-4.945-6.471-4.945-6.471a7.759,7.759,0,0,0,3.46,1.227c-.637-.712-6-6.592-2.768-9.628,0,0,3.955,6.471,14.341,7.034l.707-.129a4.646,4.646,0,0,1-.142-1.421c0-3.749,3.32-6.788,7.418-6.786,4.945,0,6,2.586,6,2.586l3.543-1.913C566.347,369.283,565.994,372.51,564.228,373.154Z" transform="translate(-428.187 -285.721)"/><path class="h" d="M520.084,94.945l1.685-.309a15.358,15.358,0,0,1-1.7,1.553h0a5.73,5.73,0,0,0,0,.931c-3.26,12.8-15.282,7.146-15.282,7.146,4.383.093,4.755-1.553,4.755-1.553-2.547-.34-3.057-1.865-3.057-1.865a1.109,1.109,0,0,0,1.359-.31,2.8,2.8,0,0,1-2.377-3.095,3.729,3.729,0,0,0,1.664.591c-.308-.34-2.888-3.168-1.326-4.628,0,0,1.9,3.095,6.9,3.376l.338-.062a2.232,2.232,0,0,1-.068-.684,3.125,3.125,0,0,1,1.043-2.31,3.74,3.74,0,0,1,2.525-.956c2.377,0,2.888,1.244,2.888,1.244l1.7-.931C521.105,93.082,520.936,94.635,520.084,94.945Z" transform="translate(-409.041 -87.489)"/><path class="h" d="M351.162,217.539l1.7-.309a15.366,15.366,0,0,1-1.7,1.553h0a5.719,5.719,0,0,0,0,.931c-3.26,12.8-15.282,7.146-15.282,7.146,4.383.093,4.755-1.553,4.755-1.553-2.547-.34-3.057-1.865-3.057-1.865a1.109,1.109,0,0,0,1.359-.309,2.8,2.8,0,0,1-2.377-3.095,3.728,3.728,0,0,0,1.664.591c-.308-.34-2.888-3.168-1.326-4.628,0,0,1.9,3.095,6.9,3.376l.338-.062a2.238,2.238,0,0,1-.068-.684,3.423,3.423,0,0,1,3.564-3.261c2.377,0,2.888,1.244,2.888,1.244l1.7-.931C352.18,215.674,352.011,217.235,351.162,217.539Z" transform="translate(-292.079 -175.595)"/><path class="k" d="M304.782,138.029l1.7-.309a15.366,15.366,0,0,1-1.7,1.553h0a5.716,5.716,0,0,0,0,.931c-3.26,12.8-15.282,7.146-15.282,7.146,4.383.093,4.755-1.553,4.755-1.553-2.547-.34-3.057-1.865-3.057-1.865a1.109,1.109,0,0,0,1.359-.309,2.8,2.8,0,0,1-2.377-3.095,3.729,3.729,0,0,0,1.664.591c-.308-.34-2.888-3.168-1.326-4.628,0,0,1.9,3.095,6.9,3.376l.338-.062a2.237,2.237,0,0,1-.068-.684,3.423,3.423,0,0,1,3.564-3.261c2.377,0,2.888,1.244,2.888,1.244l1.7-.931C305.8,136.164,305.646,137.72,304.782,138.029Z" transform="translate(-259.963 -118.456)"/><path class="l" d="M499.132,474.829l1.7-.31a15.363,15.363,0,0,1-1.7,1.553h0a5.723,5.723,0,0,0,0,.931c-3.26,12.8-15.282,7.146-15.282,7.146,4.383.093,4.755-1.553,4.755-1.553-2.546-.34-3.057-1.865-3.057-1.865a1.109,1.109,0,0,0,1.359-.31,2.8,2.8,0,0,1-2.377-3.095,3.728,3.728,0,0,0,1.664.591c-.307-.34-2.888-3.168-1.326-4.628,0,0,1.9,3.095,6.9,3.376l.338-.062a2.237,2.237,0,0,1-.068-.684,3.423,3.423,0,0,1,3.564-3.261c2.377,0,2.888,1.244,2.888,1.244l1.7-.931C500.153,472.967,499.981,474.52,499.132,474.829Z" transform="translate(-394.541 -360.497)"/><path class="l" d="M785.555,229.317l3.454-.633a31.118,31.118,0,0,1-3.463,3.168h0a11.668,11.668,0,0,0,0,1.9c-6.652,26.112-31.176,14.577-31.176,14.577,8.947.2,9.709-3.174,9.709-3.174-5.2-.7-6.234-3.8-6.234-3.8a2.276,2.276,0,0,0,2.768-.633c-5.613-1.331-4.85-6.339-4.85-6.339a7.627,7.627,0,0,0,3.383,1.2c-.615-.7-5.89-6.471-2.7-9.445,0,0,3.881,6.339,14.064,6.907l.692-.127a4.562,4.562,0,0,1-.138-1.407c0-3.675,3.256-6.654,7.273-6.654,4.85,0,5.89,2.532,5.89,2.532l3.463-1.9C787.634,225.513,787.287,228.684,785.555,229.317Z" transform="translate(-581.863 -182.416)"/><path class="l" d="M338.346,319.881l3.463-.633a31.118,31.118,0,0,1-3.463,3.168h0a11.661,11.661,0,0,0,0,1.9c-6.652,26.112-31.176,14.577-31.176,14.577,8.937.191,9.7-3.168,9.7-3.168-5.2-.7-6.234-3.8-6.234-3.8a2.277,2.277,0,0,0,2.768-.633c-5.613-1.331-4.85-6.339-4.85-6.339a7.626,7.626,0,0,0,3.383,1.2c-.615-.7-5.89-6.471-2.7-9.445,0,0,3.881,6.339,14.064,6.907l.692-.127a4.563,4.563,0,0,1-.138-1.407c0-3.675,3.256-6.654,7.273-6.654,4.85,0,5.89,2.532,5.89,2.532l3.463-1.9C340.425,316.077,340.078,319.248,338.346,319.881Z" transform="translate(-272.199 -247.504)"/></g></svg>