<svg xmlns="http://www.w3.org/2000/svg" xmlns:xlink="http://www.w3.org/1999/xlink" viewBox="0 0 870.297 972.441">
  <defs>
    <style>
      .cls-1 {
        opacity: 0.586;
      }

      .cls-2 {
        opacity: 0.53;
        fill: url(#linear-gradient);
      }

      .cls-3 {
        opacity: 0.48;
        fill: url(#linear-gradient-2);
      }

      .cls-4 {
        fill: #00d3ff;
      }

      .cls-5 {
        fill: #fff;
      }

      .cls-6 {
        fill: #0f0b56;
        opacity: 0.14;
      }

      .cls-7 {
        fill: #1ba84a;
      }

      .cls-8 {
        fill: #50d97e;
      }

      .cls-17, .cls-20, .cls-9 {
        fill: none;
      }

      .cls-17, .cls-19, .cls-9 {
        stroke: #fff;
      }

      .cls-9 {
        stroke-width: 2px;
      }

      .cls-10 {
        opacity: 0.49;
      }

      .cls-11 {
        fill: #3474d0;
      }

      .cls-12 {
        opacity: 0.56;
      }

      .cls-13 {
        fill: #1658b7;
      }

      .cls-14 {
        fill: #000229;
      }

      .cls-15 {
        fill: rgba(7,119,23,0.9);
      }

      .cls-16 {
        fill: #234d89;
      }

      .cls-17 {
        opacity: 0.26;
      }

      .cls-18 {
        opacity: 0.1;
      }

      .cls-19 {
        fill: rgba(0,0,0,0);
      }

      .cls-20 {
        stroke: #a122e9;
        stroke-width: 3px;
      }

      .cls-21 {
        fill: rgba(163,94,197,0.9);
      }

      .cls-22 {
        fill: #eea671;
      }

      .cls-23 {
        fill: #2e37a5;
      }

      .cls-24 {
        fill: #272f95;
      }

      .cls-25 {
        fill: #1c237b;
      }

      .cls-26 {
        fill: #fec194;
      }

      .cls-27 {
        fill: #e70276;
      }

      .cls-28 {
        fill: #0b0744;
      }
    </style>
    <linearGradient id="linear-gradient" x1="0.852" y1="0.066" x2="0.055" y2="0.856" gradientUnits="objectBoundingBox">
      <stop offset="0" stop-color="#00756c"/>
      <stop offset="1" stop-color="#08edf5"/>
    </linearGradient>
    <linearGradient id="linear-gradient-2" x1="0.5" x2="0.5" y2="1" gradientUnits="objectBoundingBox">
      <stop offset="0" stop-color="#326ca7"/>
      <stop offset="1" stop-color="#180c46"/>
    </linearGradient>
  </defs>
  <g id="Group_248" data-name="Group 248" transform="translate(-499.107 -120.524)">
    <g id="Symbol_2_3" data-name="Symbol 2 – 3" transform="translate(1 -15)">
      <g id="Group_2" data-name="Group 2" class="cls-1" transform="translate(462.359 135.524)">
        <path id="Path_32" data-name="Path 32" class="cls-2" d="M579.947,361.682c55.274-31.893,126.3-28.59,166.4-70.774,56.266-59.19,92.618-152.757,160.916-180.152,116.947-46.909,276.476,93.51,367.326,37.552,52.42-32.287,84.7-113.709,84.7-113.709V681.031s2.013,260.693,0,321.625c-36.4,36.642-92.3-169.083-193.339-145.308-99.592,29.785-162.46,55.474-206.047-73.305-29.718-91.136-130.761-33.681-255.578,0-49.531,15.85-112.047,47.54-167.536-11.748s59.877-148.339,11.02-198.756C483.382,517.931,447.076,438.349,579.947,361.682Z" transform="translate(-454.134 -34.6)"/>
      </g>
      <path id="Path_78" data-name="Path 78" class="cls-3" d="M65.5-144.405c69.332,5.147,43.388,142.976,93.683,139.38S216.062-112.3,270.84-109.707,322.81-.137,378.295,5.34s45.724-33.193,83.274-14.05,66.925,90.624,66.925,90.624H.481S-3.835-149.553,65.5-144.405Z" transform="translate(756.793 562.864)"/>
      <g id="Group_4" data-name="Group 4" transform="translate(1113.177 191.533)">
        <rect id="Rectangle_15" data-name="Rectangle 15" class="cls-4" width="118.837" height="158.893" rx="8" transform="translate(38.653 42.388)"/>
        <rect id="Rectangle_90" data-name="Rectangle 90" class="cls-5" width="118.837" height="158.893" rx="8" transform="translate(49.504 30.27)"/>
        <rect id="Rectangle_17" data-name="Rectangle 17" class="cls-6" width="40.017" height="33.705" transform="translate(58.526 44.228)"/>
        <rect id="Rectangle_18" data-name="Rectangle 18" class="cls-6" width="54.932" height="21.667" transform="translate(104.242 44.228)"/>
        <rect id="Rectangle_19" data-name="Rectangle 19" class="cls-6" width="54.932" height="7.222" transform="translate(104.242 70.71)"/>
        <rect id="Rectangle_20" data-name="Rectangle 20" class="cls-6" width="100.648" height="10.834" transform="translate(58.526 90.438)"/>
        <rect id="Rectangle_21" data-name="Rectangle 21" class="cls-6" width="100.648" height="10.834" transform="translate(58.526 113.818)"/>
        <rect id="Rectangle_22" data-name="Rectangle 22" class="cls-6" width="100.648" height="10.834" transform="translate(58.526 137.197)"/>
        <rect id="Rectangle_23" data-name="Rectangle 23" class="cls-6" width="100.648" height="10.834" transform="translate(58.526 160.577)"/>
        <path id="Path_26" data-name="Path 26" class="cls-7" d="M2.6,0H35.045a2.586,2.586,0,0,1,2.6,2.577V46.385a2.586,2.586,0,0,1-2.6,2.577L19.21,41.489,2.6,48.962A2.586,2.586,0,0,1,0,46.385V2.577A2.586,2.586,0,0,1,2.6,0Z" transform="translate(147.103 50.097)"/>
        <g id="if_Approved_2192712" transform="translate(131.075 0)">
          <path id="Path_23" data-name="Path 23" class="cls-8" d="M83.647,44.77l-3.07-5.279a4.6,4.6,0,0,1-.625-2.316v-6.1a4.626,4.626,0,0,0-2.333-4.011L72.3,24.02a4.652,4.652,0,0,1-1.708-1.7l-3.07-5.279a4.672,4.672,0,0,0-4.041-2.316H57.341a4.69,4.69,0,0,1-2.333-.621l-5.319-3.049a4.7,4.7,0,0,0-4.666,0l-5.318,3.048a4.69,4.69,0,0,1-2.333.621H31.231a4.672,4.672,0,0,0-4.041,2.316l-3.07,5.279a4.652,4.652,0,0,1-1.708,1.7l-5.318,3.048a4.626,4.626,0,0,0-2.333,4.011v6.1a4.6,4.6,0,0,1-.625,2.316l-3.071,5.28a4.6,4.6,0,0,0,0,4.632l3.07,5.279A4.6,4.6,0,0,1,14.761,57v6.1A4.626,4.626,0,0,0,17.093,67.1l5.318,3.048a4.652,4.652,0,0,1,1.708,1.7l3.07,5.279a4.672,4.672,0,0,0,4.041,2.316h6.141a4.69,4.69,0,0,1,2.333.621l5.318,3.048a4.7,4.7,0,0,0,4.666,0l5.318-3.048a4.69,4.69,0,0,1,2.333-.621H63.48a4.672,4.672,0,0,0,4.041-2.316l3.07-5.279a4.652,4.652,0,0,1,1.708-1.7L77.617,67.1a4.626,4.626,0,0,0,2.333-4.011V57a4.6,4.6,0,0,1,.625-2.316l3.07-5.279A4.6,4.6,0,0,0,83.647,44.77ZM47.356,74.875a27.791,27.791,0,1,1,28-27.79A27.892,27.892,0,0,1,47.356,74.875Z" transform="translate(-10.44 -10.44)"/>
          <path id="Path_24" data-name="Path 24" class="cls-8" d="M52.218,24A28.012,28.012,0,1,0,80.437,52.012,28.148,28.148,0,0,0,52.218,24ZM50.271,66.058Z" transform="translate(-15.303 -15.366)"/>
          <path id="Path_25" data-name="Path 25" class="cls-9" d="M48.609,24A24.429,24.429,0,1,0,73.218,48.429,24.548,24.548,0,0,0,48.609,24Z" transform="translate(-11.693 -11.783)"/>
        </g>
        <g id="Group_5" data-name="Group 5" class="cls-10" transform="translate(179.299 175.729)">
          <path id="Path_27" data-name="Path 27" class="cls-11" d="M0,.218l3.789,1.4L7.636,0,5.393,2.871,7.9,6.862,3.817,5.152.262,7.387,2.2,3.653Z" transform="matrix(0.616, 0.788, -0.788, 0.616, 5.821, 18.211)"/>
          <path id="Path_29" data-name="Path 29" class="cls-11" d="M0,.127,2.2.941,4.443,0,3.138,1.67,4.6,3.993,2.221,3,.152,4.3,1.279,2.126Z" transform="matrix(0.616, 0.788, -0.788, 0.616, 6.834, 0)"/>
          <path id="Path_28" data-name="Path 28" class="cls-11" d="M0,.346,6,2.561,12.091,0,8.54,4.546l3.977,6.321L6.044,8.158.414,11.7,3.481,5.784Z" transform="matrix(0.616, 0.788, -0.788, 0.616, 14.588, 4.233)"/>
        </g>
        <g id="Group_6" data-name="Group 6" class="cls-12" transform="translate(0 4.05)">
          <path id="Path_30" data-name="Path 30" class="cls-13" d="M0,.644,11.171,4.768,22.513,0,15.9,8.464l7.4,11.769L11.253,15.189.772,21.78l5.71-11.01Z" transform="matrix(0.616, 0.788, -0.788, 0.616, 17.163, 0)"/>
          <path id="Path_31" data-name="Path 31" class="cls-13" d="M0,.18,3.541,1.505,7.126,0,5.042,2.687,7.4,6.441,3.578,4.823.267,6.909l1.8-3.5Z" transform="matrix(0.017, 1, -1, 0.017, 32.691, 32.299)"/>
        </g>
      </g>
      <g id="Group_43" data-name="Group 43" transform="translate(1195.856 567.377)">
        <path id="Path_75" data-name="Path 75" class="cls-14" d="M102.449,22.11c26.295-4.394,61.9,8.262,61.9,8.262V142.141H3.021s-16.723-25.276,0-41.463S43.012,95.12,57.048,81s1.211-24.111,2.119-36.806S76.154,26.5,102.449,22.11Z" transform="translate(4.411 74.299)"/>
        <path id="Path_73" data-name="Path 73" class="cls-15" d="M15.72,44.767C11.972,26.913,20.778,13.119,33.331,8.562s31.351,3.844,31.351,3.844l-.625,210.907H21.215s-8.743-14.383-2.873-22.442,35.1-.5,33.1-14.135S-.268,145.447,1.106,119.781,43.7,104.53,45.822,96.347,19.467,62.622,15.72,44.767Z" transform="translate(104.241 -7.208)"/>
        <g id="Group_49" data-name="Group 49" transform="translate(5.658 127.877)">
          <path id="Path_74" data-name="Path 74" class="cls-16" d="M27.3,3.8c12.169.263,16.478,22.209,23.885,23.56s9.675-8.854,20.257-2.551S76.734,65.628,79,68.63s7.483-5.44,13.152,0,14.966,19.358,9.524,21.759-59.411,2.551-66.969,0,3.175-11.855,0-16.207S6.779,47.808,4.02,29.913,15.131,3.539,27.3,3.8Z" transform="translate(-3.665 -3.796)"/>
          <path id="Path_76" data-name="Path 76" class="cls-17" d="M0,0A84.528,84.528,0,0,1,25,24.909c10.087,16,15.351,39.074,15.351,39.074" transform="translate(23.69 31.531)"/>
          <path id="Path_77" data-name="Path 77" class="cls-17" d="M1.869-4.3S-3.1.377-3.1,11.525,1.869,40.293,1.869,40.293" transform="translate(62.167 55.221)"/>
        </g>
      </g>
      <g id="Group_50" data-name="Group 50" transform="translate(582.152 537.007)">
        <g id="Group_2-2" data-name="Group 2" transform="translate(0 0)">
          <path id="Path_10" data-name="Path 10" class="cls-16" d="M80.206.23S91.765,3.1,95.779,16.781s-4.031,19.407.484,38.16c2.28,9.47,17.158,14.024,22.73,30.215,4.9,14.225-22.169,14.022-21.878,36.986s17.351,16.85,22.9,43.723,11.06,48.247-.7,63.768S26.869,241.1,26.869,241.1s-16.8.216-26.685-66.764c-2.8-18.955,27.293-4.732,25.448-30.83-1.292-18.271-7.856-18.233-12.742-41.133C8.1,79.939,27.3,74.673,37.292,58.016c6.013-10.031,6.843-31.751,17.571-46.2S80.206.23,80.206.23Z" transform="matrix(0.996, 0.087, -0.087, 0.996, 21.055, 0)"/>
        </g>
        <g id="Group_37" data-name="Group 37" class="cls-18" transform="translate(39.818 88.732)">
          <path id="Path_45" data-name="Path 45" class="cls-19" d="M25.706,0S7.755,3.564,1.771,40.69s0,107.813,0,107.813" transform="translate(25.207)"/>
          <path id="Path_46" data-name="Path 46" class="cls-19" d="M0,17.82S8.976,9.207,17.952,4.752A48.719,48.719,0,0,1,35.9,0" transform="translate(26.977 29.7)"/>
          <path id="Path_47" data-name="Path 47" class="cls-19" d="M0,17.82S8.976,9.207,17.952,4.752A48.719,48.719,0,0,1,35.9,0" transform="translate(26.977 109.892)"/>
          <path id="Path_48" data-name="Path 48" class="cls-19" d="M0,6.39C8.979,1.911,23.272,0,23.272,0" transform="translate(2.08 75.016) rotate(19)"/>
        </g>
      </g>
      <g id="Group_51" data-name="Group 51" transform="translate(708.151 611.906)">
        <path id="Path_78-2" data-name="Path 78" class="cls-20" d="M0,0S10.368,18.933,11.346,53.4s-7.434,84.47-7.434,84.47" transform="translate(57.102 28.55)"/>
        <path id="Path_79" data-name="Path 79" class="cls-21" d="M22.947,0c10.808.038,19.586,4.426,19.6,9.8s-8.728,9.7-19.536,9.666S.37,9.827.008,7.807,12.138-.038,22.947,0Z" transform="matrix(0.809, -0.588, 0.588, 0.809, 66.197, 64.723)"/>
        <path id="Path_80" data-name="Path 80" class="cls-21" d="M40.473,0C59.537.067,75.021,8.267,75.056,18.316S59.665,36.457,40.6,36.391.653,18.377.014,14.6,21.408-.066,40.473,0Z" transform="matrix(0.809, -0.588, 0.588, 0.809, 57.441, 123.363)"/>
        <path id="Path_81" data-name="Path 81" class="cls-21" d="M25.38,0C37.3-.043,46.948,5.592,46.923,12.586s-9.711,12.7-21.634,12.741S.39,12.977.008,10.353,13.457.043,25.38,0Z" transform="translate(56.902 161.069) rotate(-141)"/>
        <path id="Path_82" data-name="Path 82" class="cls-21" d="M37.591,0C55.251-.063,69.537,8.283,69.5,18.642S55.116,37.45,37.456,37.514.577,19.22.011,15.334,19.932.064,37.591,0Z" transform="translate(54.011 116.596) rotate(-141)"/>
        <path id="Path_83" data-name="Path 83" class="cls-21" d="M13.767,0c6.47-.016,11.708,3.036,11.7,6.816S20.2,13.674,13.733,13.69.213,7,0,5.58,7.3.016,13.767,0Z" transform="translate(62.379 54.833) rotate(-159)"/>
        <path id="Path_84" data-name="Path 84" class="cls-21" d="M16.072,0c7.567.018,13.707,2.757,13.715,6.119s-6.12,6.072-13.686,6.054S.257,6.156.005,4.894,8.506-.018,16.072,0Z" transform="matrix(0.342, -0.94, 0.94, 0.342, 52.182, 27.991)"/>
      </g>
      <g id="Group_10" data-name="Group 10" transform="translate(885.708 370.63)">
        <path id="Path_56" data-name="Path 56" class="cls-5" d="M18.064,20.125C48.116,4.92,86.893,3.765,120.435,18.008s27.338,69.383,27.338,69.383H.42a114.264,114.264,0,0,1-2.4-28.848C-1.248,44.075,3.248,27.621,18.064,20.125Z" transform="translate(67.875 95.947)"/>
        <path id="Path_20" data-name="Path 20" class="cls-22" d="M4.529,0H32.838a26.907,26.907,0,0,0,1.641,10.234c1.949,4.783,5.545,10.955,4.928,12.195s-7.082,5.01-16.826,5.6S2.171,24.493,1.042,22.841,4.17,15.388,5.35,10.234A19.517,19.517,0,0,0,4.529,0Z" transform="translate(120.815 84.165)"/>
        <g id="Group_1" data-name="Group 1" transform="translate(0 152.972)">
          <rect id="Rectangle_4" data-name="Rectangle 4" class="cls-23" width="288.77" height="29.479" rx="14.739" transform="translate(0 122.997)"/>
          <path id="Path_73-2" data-name="Path 73" class="cls-24" d="M8.721,0H226.278A8.689,8.689,0,0,1,235,8.657v120.93a8.689,8.689,0,0,1-8.721,8.657H8.721A8.689,8.689,0,0,1,0,129.587V8.657A8.689,8.689,0,0,1,8.721,0Z" transform="translate(23.45 0)"/>
          <rect id="Rectangle_2" data-name="Rectangle 2" class="cls-25" width="234.999" height="138.244" rx="10" transform="translate(30.219 0)"/>
        </g>
        <g id="Group_41" data-name="Group 41" transform="translate(98.448 4.11) rotate(-3)">
          <g id="Group_42" data-name="Group 42" transform="translate(0 0)">
            <path id="Path_69" data-name="Path 69" class="cls-26" d="M16.9.434S57.6-1.779,61.965,3.792s-2.551,25.541-4.883,40.49-1.865,14.109-5.959,20.134-9.259,8.34-18.432,8.058S16.123,63.8,11.489,57.632s-2.234-18.85-4.1-21.324-5.1-4.452-6.416-9.181-1.606-8.391,1.154-9.734,8.2,6.678,10.421,3.805S16.9.434,16.9.434Z" transform="translate(7.137 27.62)"/>
            <path id="Path_70" data-name="Path 70" class="cls-27" d="M11.921,16.626S14.854,2.128,33.912.191,66.6,11.7,68.65,13.288s-2.246,3.789-.554,4.3,4.562-3.368,7.323-2.262,3.475,5.306,2.942,7.428-5.072,10.342-9.7,13.169-8.482,3.511-18.88,2.2S32.5,27.243,27.066,30.689,22,49.872,18.97,50.4s-7.216-5.661-9.8-4.424-.793,6.764-2.135,5.481c-2.406-2.3-8.087-14.1-6.866-22.812S11.921,16.626,11.921,16.626Z" transform="translate(0 0)"/>
            <path id="Path_71" data-name="Path 71" class="cls-28" d="M0,2.461S1.714-1.473,4.988.606s.783,8.753,8.108,10.17,11.91-5.035,21.194-4.5S46.76,10.171,48.1,12.293s-2.755,13.968-4.269,15.558S35.241,39.5,21.525,36.4C11.841,34.208,2.1,22.372.987,16.519-.083,13.07,0,2.461,0,2.461Z" transform="translate(15.323 63.676)"/>
            <path id="Path_72" data-name="Path 72" class="cls-26" d="M1.113,4.1C2.963,1.271,7.145.458,9.681.138s7.05-.286,9.4,2.4a6.153,6.153,0,0,1,0,8.341c-1.975,1.919-3.7-.807-7.9-.664s-6.384,2.764-8.9,1.235S-.737,6.927,1.113,4.1Z" transform="translate(36.42 74.819)"/>
          </g>
        </g>
      </g>
    </g>
    <g id="Symbol_2_4" data-name="Symbol 2 – 4" transform="translate(1 -15)">
      <g id="Group_2-3" data-name="Group 2" class="cls-1" transform="translate(462.359 135.524)">
        <path id="Path_32-2" data-name="Path 32" class="cls-2" d="M579.947,361.682c55.274-31.893,126.3-28.59,166.4-70.774,56.266-59.19,92.618-152.757,160.916-180.152,116.947-46.909,276.476,93.51,367.326,37.552,52.42-32.287,84.7-113.709,84.7-113.709V681.031s2.013,260.693,0,321.625c-36.4,36.642-92.3-169.083-193.339-145.308-99.592,29.785-162.46,55.474-206.047-73.305-29.718-91.136-130.761-33.681-255.578,0-49.531,15.85-112.047,47.54-167.536-11.748s59.877-148.339,11.02-198.756C483.382,517.931,447.076,438.349,579.947,361.682Z" transform="translate(-454.134 -34.6)"/>
      </g>
      <path id="Path_78-3" data-name="Path 78" class="cls-3" d="M65.5-144.405c69.332,5.147,43.388,142.976,93.683,139.38S216.062-112.3,270.84-109.707,322.81-.137,378.295,5.34s45.724-33.193,83.274-14.05,66.925,90.624,66.925,90.624H.481S-3.835-149.553,65.5-144.405Z" transform="translate(756.793 562.864)"/>
      <g id="Group_4-2" data-name="Group 4" transform="translate(1113.177 191.533)">
        <rect id="Rectangle_15-2" data-name="Rectangle 15" class="cls-4" width="118.837" height="158.893" rx="8" transform="translate(38.653 42.388)"/>
        <rect id="Rectangle_90-2" data-name="Rectangle 90" class="cls-5" width="118.837" height="158.893" rx="8" transform="translate(49.504 30.27)"/>
        <rect id="Rectangle_17-2" data-name="Rectangle 17" class="cls-6" width="40.017" height="33.705" transform="translate(58.526 44.228)"/>
        <rect id="Rectangle_18-2" data-name="Rectangle 18" class="cls-6" width="54.932" height="21.667" transform="translate(104.242 44.228)"/>
        <rect id="Rectangle_19-2" data-name="Rectangle 19" class="cls-6" width="54.932" height="7.222" transform="translate(104.242 70.71)"/>
        <rect id="Rectangle_20-2" data-name="Rectangle 20" class="cls-6" width="100.648" height="10.834" transform="translate(58.526 90.438)"/>
        <rect id="Rectangle_21-2" data-name="Rectangle 21" class="cls-6" width="100.648" height="10.834" transform="translate(58.526 113.818)"/>
        <rect id="Rectangle_22-2" data-name="Rectangle 22" class="cls-6" width="100.648" height="10.834" transform="translate(58.526 137.197)"/>
        <rect id="Rectangle_23-2" data-name="Rectangle 23" class="cls-6" width="100.648" height="10.834" transform="translate(58.526 160.577)"/>
        <path id="Path_26-2" data-name="Path 26" class="cls-7" d="M2.6,0H35.045a2.586,2.586,0,0,1,2.6,2.577V46.385a2.586,2.586,0,0,1-2.6,2.577L19.21,41.489,2.6,48.962A2.586,2.586,0,0,1,0,46.385V2.577A2.586,2.586,0,0,1,2.6,0Z" transform="translate(147.103 50.097)"/>
        <g id="if_Approved_2192712-2" data-name="if_Approved_2192712" transform="translate(131.075 0)">
          <path id="Path_23-2" data-name="Path 23" class="cls-8" d="M83.647,44.77l-3.07-5.279a4.6,4.6,0,0,1-.625-2.316v-6.1a4.626,4.626,0,0,0-2.333-4.011L72.3,24.02a4.652,4.652,0,0,1-1.708-1.7l-3.07-5.279a4.672,4.672,0,0,0-4.041-2.316H57.341a4.69,4.69,0,0,1-2.333-.621l-5.319-3.049a4.7,4.7,0,0,0-4.666,0l-5.318,3.048a4.69,4.69,0,0,1-2.333.621H31.231a4.672,4.672,0,0,0-4.041,2.316l-3.07,5.279a4.652,4.652,0,0,1-1.708,1.7l-5.318,3.048a4.626,4.626,0,0,0-2.333,4.011v6.1a4.6,4.6,0,0,1-.625,2.316l-3.071,5.28a4.6,4.6,0,0,0,0,4.632l3.07,5.279A4.6,4.6,0,0,1,14.761,57v6.1A4.626,4.626,0,0,0,17.093,67.1l5.318,3.048a4.652,4.652,0,0,1,1.708,1.7l3.07,5.279a4.672,4.672,0,0,0,4.041,2.316h6.141a4.69,4.69,0,0,1,2.333.621l5.318,3.048a4.7,4.7,0,0,0,4.666,0l5.318-3.048a4.69,4.69,0,0,1,2.333-.621H63.48a4.672,4.672,0,0,0,4.041-2.316l3.07-5.279a4.652,4.652,0,0,1,1.708-1.7L77.617,67.1a4.626,4.626,0,0,0,2.333-4.011V57a4.6,4.6,0,0,1,.625-2.316l3.07-5.279A4.6,4.6,0,0,0,83.647,44.77ZM47.356,74.875a27.791,27.791,0,1,1,28-27.79A27.892,27.892,0,0,1,47.356,74.875Z" transform="translate(-10.44 -10.44)"/>
          <path id="Path_24-2" data-name="Path 24" class="cls-8" d="M52.218,24A28.012,28.012,0,1,0,80.437,52.012,28.148,28.148,0,0,0,52.218,24ZM50.271,66.058Z" transform="translate(-15.303 -15.366)"/>
          <path id="Path_25-2" data-name="Path 25" class="cls-9" d="M48.609,24A24.429,24.429,0,1,0,73.218,48.429,24.548,24.548,0,0,0,48.609,24Z" transform="translate(-11.693 -11.783)"/>
        </g>
        <g id="Group_5-2" data-name="Group 5" class="cls-10" transform="translate(179.299 175.729)">
          <path id="Path_27-2" data-name="Path 27" class="cls-11" d="M0,.218l3.789,1.4L7.636,0,5.393,2.871,7.9,6.862,3.817,5.152.262,7.387,2.2,3.653Z" transform="matrix(0.616, 0.788, -0.788, 0.616, 5.821, 18.211)"/>
          <path id="Path_29-2" data-name="Path 29" class="cls-11" d="M0,.127,2.2.941,4.443,0,3.138,1.67,4.6,3.993,2.221,3,.152,4.3,1.279,2.126Z" transform="matrix(0.616, 0.788, -0.788, 0.616, 6.834, 0)"/>
          <path id="Path_28-2" data-name="Path 28" class="cls-11" d="M0,.346,6,2.561,12.091,0,8.54,4.546l3.977,6.321L6.044,8.158.414,11.7,3.481,5.784Z" transform="matrix(0.616, 0.788, -0.788, 0.616, 14.588, 4.233)"/>
        </g>
        <g id="Group_6-2" data-name="Group 6" class="cls-12" transform="translate(0 4.05)">
          <path id="Path_30-2" data-name="Path 30" class="cls-13" d="M0,.644,11.171,4.768,22.513,0,15.9,8.464l7.4,11.769L11.253,15.189.772,21.78l5.71-11.01Z" transform="matrix(0.616, 0.788, -0.788, 0.616, 17.163, 0)"/>
          <path id="Path_31-2" data-name="Path 31" class="cls-13" d="M0,.18,3.541,1.505,7.126,0,5.042,2.687,7.4,6.441,3.578,4.823.267,6.909l1.8-3.5Z" transform="matrix(0.017, 1, -1, 0.017, 32.691, 32.299)"/>
        </g>
      </g>
      <g id="Group_43-2" data-name="Group 43" transform="translate(1195.856 567.377)">
        <path id="Path_75-2" data-name="Path 75" class="cls-14" d="M102.449,22.11c26.295-4.394,61.9,8.262,61.9,8.262V142.141H3.021s-16.723-25.276,0-41.463S43.012,95.12,57.048,81s1.211-24.111,2.119-36.806S76.154,26.5,102.449,22.11Z" transform="translate(4.411 74.299)"/>
        <path id="Path_73-3" data-name="Path 73" class="cls-15" d="M15.72,44.767C11.972,26.913,20.778,13.119,33.331,8.562s31.351,3.844,31.351,3.844l-.625,210.907H21.215s-8.743-14.383-2.873-22.442,35.1-.5,33.1-14.135S-.268,145.447,1.106,119.781,43.7,104.53,45.822,96.347,19.467,62.622,15.72,44.767Z" transform="translate(104.241 -7.208)"/>
        <g id="Group_49-2" data-name="Group 49" transform="translate(5.658 127.877)">
          <path id="Path_74-2" data-name="Path 74" class="cls-16" d="M27.3,3.8c12.169.263,16.478,22.209,23.885,23.56s9.675-8.854,20.257-2.551S76.734,65.628,79,68.63s7.483-5.44,13.152,0,14.966,19.358,9.524,21.759-59.411,2.551-66.969,0,3.175-11.855,0-16.207S6.779,47.808,4.02,29.913,15.131,3.539,27.3,3.8Z" transform="translate(-3.665 -3.796)"/>
          <path id="Path_76-2" data-name="Path 76" class="cls-17" d="M0,0A84.528,84.528,0,0,1,25,24.909c10.087,16,15.351,39.074,15.351,39.074" transform="translate(23.69 31.531)"/>
          <path id="Path_77-2" data-name="Path 77" class="cls-17" d="M1.869-4.3S-3.1.377-3.1,11.525,1.869,40.293,1.869,40.293" transform="translate(62.167 55.221)"/>
        </g>
      </g>
      <g id="Group_50-2" data-name="Group 50" transform="translate(582.152 537.007)">
        <g id="Group_2-4" data-name="Group 2" transform="translate(0 0)">
          <path id="Path_10-2" data-name="Path 10" class="cls-16" d="M80.206.23S91.765,3.1,95.779,16.781s-4.031,19.407.484,38.16c2.28,9.47,17.158,14.024,22.73,30.215,4.9,14.225-22.169,14.022-21.878,36.986s17.351,16.85,22.9,43.723,11.06,48.247-.7,63.768S26.869,241.1,26.869,241.1s-16.8.216-26.685-66.764c-2.8-18.955,27.293-4.732,25.448-30.83-1.292-18.271-7.856-18.233-12.742-41.133C8.1,79.939,27.3,74.673,37.292,58.016c6.013-10.031,6.843-31.751,17.571-46.2S80.206.23,80.206.23Z" transform="matrix(0.996, 0.087, -0.087, 0.996, 21.055, 0)"/>
        </g>
        <g id="Group_37-2" data-name="Group 37" class="cls-18" transform="translate(39.818 88.732)">
          <path id="Path_45-2" data-name="Path 45" class="cls-19" d="M25.706,0S7.755,3.564,1.771,40.69s0,107.813,0,107.813" transform="translate(25.207)"/>
          <path id="Path_46-2" data-name="Path 46" class="cls-19" d="M0,17.82S8.976,9.207,17.952,4.752A48.719,48.719,0,0,1,35.9,0" transform="translate(26.977 29.7)"/>
          <path id="Path_47-2" data-name="Path 47" class="cls-19" d="M0,17.82S8.976,9.207,17.952,4.752A48.719,48.719,0,0,1,35.9,0" transform="translate(26.977 109.892)"/>
          <path id="Path_48-2" data-name="Path 48" class="cls-19" d="M0,6.39C8.979,1.911,23.272,0,23.272,0" transform="translate(2.08 75.016) rotate(19)"/>
        </g>
      </g>
      <g id="Group_51-2" data-name="Group 51" transform="translate(708.151 611.906)">
        <path id="Path_78-4" data-name="Path 78" class="cls-20" d="M0,0S10.368,18.933,11.346,53.4s-7.434,84.47-7.434,84.47" transform="translate(57.102 28.55)"/>
        <path id="Path_79-2" data-name="Path 79" class="cls-21" d="M22.947,0c10.808.038,19.586,4.426,19.6,9.8s-8.728,9.7-19.536,9.666S.37,9.827.008,7.807,12.138-.038,22.947,0Z" transform="matrix(0.809, -0.588, 0.588, 0.809, 66.197, 64.723)"/>
        <path id="Path_80-2" data-name="Path 80" class="cls-21" d="M40.473,0C59.537.067,75.021,8.267,75.056,18.316S59.665,36.457,40.6,36.391.653,18.377.014,14.6,21.408-.066,40.473,0Z" transform="matrix(0.809, -0.588, 0.588, 0.809, 57.441, 123.363)"/>
        <path id="Path_81-2" data-name="Path 81" class="cls-21" d="M25.38,0C37.3-.043,46.948,5.592,46.923,12.586s-9.711,12.7-21.634,12.741S.39,12.977.008,10.353,13.457.043,25.38,0Z" transform="translate(56.902 161.069) rotate(-141)"/>
        <path id="Path_82-2" data-name="Path 82" class="cls-21" d="M37.591,0C55.251-.063,69.537,8.283,69.5,18.642S55.116,37.45,37.456,37.514.577,19.22.011,15.334,19.932.064,37.591,0Z" transform="translate(54.011 116.596) rotate(-141)"/>
        <path id="Path_83-2" data-name="Path 83" class="cls-21" d="M13.767,0c6.47-.016,11.708,3.036,11.7,6.816S20.2,13.674,13.733,13.69.213,7,0,5.58,7.3.016,13.767,0Z" transform="translate(62.379 54.833) rotate(-159)"/>
        <path id="Path_84-2" data-name="Path 84" class="cls-21" d="M16.072,0c7.567.018,13.707,2.757,13.715,6.119s-6.12,6.072-13.686,6.054S.257,6.156.005,4.894,8.506-.018,16.072,0Z" transform="matrix(0.342, -0.94, 0.94, 0.342, 52.182, 27.991)"/>
      </g>
      <g id="Group_10-2" data-name="Group 10" transform="translate(885.708 370.63)">
        <path id="Path_56-2" data-name="Path 56" class="cls-5" d="M18.064,20.125C48.116,4.92,86.893,3.765,120.435,18.008s27.338,69.383,27.338,69.383H.42a114.264,114.264,0,0,1-2.4-28.848C-1.248,44.075,3.248,27.621,18.064,20.125Z" transform="translate(67.875 95.947)"/>
        <path id="Path_20-2" data-name="Path 20" class="cls-22" d="M4.529,0H32.838a26.907,26.907,0,0,0,1.641,10.234c1.949,4.783,5.545,10.955,4.928,12.195s-7.082,5.01-16.826,5.6S2.171,24.493,1.042,22.841,4.17,15.388,5.35,10.234A19.517,19.517,0,0,0,4.529,0Z" transform="translate(120.815 84.165)"/>
        <g id="Group_1-2" data-name="Group 1" transform="translate(0 152.972)">
          <rect id="Rectangle_4-2" data-name="Rectangle 4" class="cls-23" width="288.77" height="29.479" rx="14.739" transform="translate(0 122.997)"/>
          <path id="Path_73-4" data-name="Path 73" class="cls-24" d="M8.721,0H226.278A8.689,8.689,0,0,1,235,8.657v120.93a8.689,8.689,0,0,1-8.721,8.657H8.721A8.689,8.689,0,0,1,0,129.587V8.657A8.689,8.689,0,0,1,8.721,0Z" transform="translate(23.45 0)"/>
          <rect id="Rectangle_2-2" data-name="Rectangle 2" class="cls-25" width="234.999" height="138.244" rx="10" transform="translate(30.219 0)"/>
        </g>
        <g id="Group_41-2" data-name="Group 41" transform="translate(98.448 4.11) rotate(-3)">
          <g id="Group_42-2" data-name="Group 42" transform="translate(0 0)">
            <path id="Path_69-2" data-name="Path 69" class="cls-26" d="M16.9.434S57.6-1.779,61.965,3.792s-2.551,25.541-4.883,40.49-1.865,14.109-5.959,20.134-9.259,8.34-18.432,8.058S16.123,63.8,11.489,57.632s-2.234-18.85-4.1-21.324-5.1-4.452-6.416-9.181-1.606-8.391,1.154-9.734,8.2,6.678,10.421,3.805S16.9.434,16.9.434Z" transform="translate(7.137 27.62)"/>
            <path id="Path_70-2" data-name="Path 70" class="cls-27" d="M11.921,16.626S14.854,2.128,33.912.191,66.6,11.7,68.65,13.288s-2.246,3.789-.554,4.3,4.562-3.368,7.323-2.262,3.475,5.306,2.942,7.428-5.072,10.342-9.7,13.169-8.482,3.511-18.88,2.2S32.5,27.243,27.066,30.689,22,49.872,18.97,50.4s-7.216-5.661-9.8-4.424-.793,6.764-2.135,5.481c-2.406-2.3-8.087-14.1-6.866-22.812S11.921,16.626,11.921,16.626Z" transform="translate(0 0)"/>
            <path id="Path_71-2" data-name="Path 71" class="cls-28" d="M0,2.461S1.714-1.473,4.988.606s.783,8.753,8.108,10.17,11.91-5.035,21.194-4.5S46.76,10.171,48.1,12.293s-2.755,13.968-4.269,15.558S35.241,39.5,21.525,36.4C11.841,34.208,2.1,22.372.987,16.519-.083,13.07,0,2.461,0,2.461Z" transform="translate(15.323 63.676)"/>
            <path id="Path_72-2" data-name="Path 72" class="cls-26" d="M1.113,4.1C2.963,1.271,7.145.458,9.681.138s7.05-.286,9.4,2.4a6.153,6.153,0,0,1,0,8.341c-1.975,1.919-3.7-.807-7.9-.664s-6.384,2.764-8.9,1.235S-.737,6.927,1.113,4.1Z" transform="translate(36.42 74.819)"/>
          </g>
        </g>
      </g>
    </g>
  </g>
</svg>
