<svg id="Layer_1" data-name="Layer 1" xmlns="http://www.w3.org/2000/svg" viewBox="0 0 257.2 488.95"><defs><style>.cls-1,.cls-5{fill:#63d7cb;}.cls-1{opacity:0.1;isolation:isolate;}.cls-2{fill:#d3d3d8;}.cls-3{fill:#ececf1;}.cls-4{fill:#e2e2e7;}.cls-6{fill:#ffcebf;}.cls-7{fill:#ffbfab;}.cls-8{fill:#26a69a;}.cls-9{fill:#eea671;}.cls-10{fill:#2e37a5;}.cls-11{fill:#272f95;}.cls-12{fill:#1c237b;}.cls-13{fill:#fec194;}.cls-14{fill:#e70276;}.cls-15{fill:#0b0744;}</style></defs><title>hero_image_mobile</title><g id="Group_546" data-name="Group 546"><path class="cls-1" d="M255.05,200.58a5.5,5.5,0,0,1,.39-1.77c.39-72.45.9-145.87,1.76-195.85C232.44-7.59,218.55,13.45,202.51,13.8c-28.7,3.11-54.07,18.06-81.93,25-18.16,4.51-36.41,1.16-54.22,8.77-22,9.36-44.52,31.05-45.73,65.18-1.18,32.45,24,195.86-1.46,241.08-8.5,15.14-17.89,31-19,50-1.42,23.24,10.12,44.6,23.82,58.56,25,25.45,59.11,33.35,88.84,20.49,25.7-11.1,47.31-36.16,73.22-46.26,25.63-10,46.81-8.13,67.69,2.36.82-12.05,1.12-121.44,1.72-234.7A18,18,0,0,1,255.05,200.58Z" transform="translate(0 0)"/><g id="Group_545" data-name="Group 545"><g id="chocolate"><path id="Path_2976" data-name="Path 2976" class="cls-2" d="M76,350.48a1.63,1.63,0,0,1,0-3.25c5.15,0,8.87-2,11.08-6a4.49,4.49,0,0,0-.09-4.55,4.87,4.87,0,0,0-4.27-2.48H78a1.63,1.63,0,0,1,0-3.26h4.73A8.24,8.24,0,0,1,89.8,335a7.8,7.8,0,0,1,.12,7.78C87.13,347.83,82.33,350.48,76,350.48Z" transform="translate(0 0)"/><path id="Path_2977" data-name="Path 2977" class="cls-3" d="M78,327.69H45.65a1.61,1.61,0,0,0-1.62,1.6v10.35a24.08,24.08,0,0,0,1.23,7.62A14.5,14.5,0,0,0,59,357.1h5.63a14.51,14.51,0,0,0,13.75-9.84,24.36,24.36,0,0,0,1.23-7.62V329.32A1.62,1.62,0,0,0,78,327.69Z" transform="translate(0 0)"/><path id="Path_2978" data-name="Path 2978" class="cls-4" d="M79.61,329.32v10.32a24.08,24.08,0,0,1-1.23,7.62,14.5,14.5,0,0,1-13.74,9.84H61.82V327.69H78a1.61,1.61,0,0,1,1.62,1.6Z" transform="translate(0 0)"/><path id="Path_2979" data-name="Path 2979" class="cls-5" d="M81.23,353.85H42.41a1.59,1.59,0,0,0-1.61,1.59v0a8.12,8.12,0,0,0,8.08,8.14H74.76a8.12,8.12,0,0,0,8.09-8.14,1.61,1.61,0,0,0-1.59-1.63Z" transform="translate(0 0)"/><g id="Group_543" data-name="Group 543"><path id="Path_2980" data-name="Path 2980" class="cls-6" d="M52.92,324.28a5.57,5.57,0,0,1-1.53-7.69,5.47,5.47,0,0,1,1.53-1.54,2.28,2.28,0,0,0,1-1.9,2.69,2.69,0,0,0-1-2.12,1.62,1.62,0,0,1,1.79-2.71,6,6,0,0,1,2.45,4.83,5.56,5.56,0,0,1-2.45,4.61,2.29,2.29,0,0,0-.62,3.17,2.19,2.19,0,0,0,.62.63,1.62,1.62,0,0,1-1.79,2.71Z" transform="translate(0 0)"/><path id="Path_2981" data-name="Path 2981" class="cls-6" d="M61.82,319.39a1.42,1.42,0,0,0,0,.58,2.12,2.12,0,0,0,1,1.6,1.63,1.63,0,0,1,.45,2.25,1.71,1.71,0,0,1-1.42.75,1.35,1.35,0,0,1-.81-.3,5.43,5.43,0,0,1-2.46-4.59A5.55,5.55,0,0,1,61,315.06a2.35,2.35,0,0,0,1-1.89,3.54,3.54,0,0,0-.2-1.16,2.15,2.15,0,0,0-.81-1,1.62,1.62,0,0,1-.45-2.24,1.68,1.68,0,0,1,1.26-.72,1.46,1.46,0,0,1,1,.26,5.93,5.93,0,0,1,2.46,4.84,5.46,5.46,0,0,1-2.46,4.59A2.12,2.12,0,0,0,61.82,319.39Z" transform="translate(0 0)"/></g><g id="Group_544" data-name="Group 544"><path id="Path_2982" data-name="Path 2982" class="cls-7" d="M69.09,324.28a5.58,5.58,0,0,1,0-9.23,2.23,2.23,0,0,0,1-1.9,2.66,2.66,0,0,0-1-2.12,1.63,1.63,0,0,1,1.8-2.71,6,6,0,0,1,2.45,4.83,5.56,5.56,0,0,1-2.45,4.61,2.29,2.29,0,0,0-.63,3.17,2.36,2.36,0,0,0,.63.63,1.64,1.64,0,0,1,.47,2.25,1.61,1.61,0,0,1-2.24.48l0,0Z" transform="translate(0 0)"/><path id="Path_2983" data-name="Path 2983" class="cls-7" d="M65.25,313.17a5.46,5.46,0,0,1-2.46,4.59,2.12,2.12,0,0,0-1,1.62v-5.3a2.24,2.24,0,0,0,.2-.92,3.58,3.58,0,0,0-.2-1.16v-3.94a1.45,1.45,0,0,1,1,.27A5.92,5.92,0,0,1,65.25,313.17Z" transform="translate(0 0)"/><path id="Path_2984" data-name="Path 2984" class="cls-7" d="M63.24,323.82a1.71,1.71,0,0,1-1.42.75V320a2.19,2.19,0,0,0,1,1.6A1.62,1.62,0,0,1,63.24,323.82Z" transform="translate(0 0)"/></g><path id="Path_2985" data-name="Path 2985" class="cls-8" d="M82.85,355.48a8.12,8.12,0,0,1-8.09,8.14H61.82v-9.77H81.23a1.61,1.61,0,0,1,1.62,1.59Z" transform="translate(0 0)"/></g></g><g id="Group_542" data-name="Group 542"><g id="Group_540" data-name="Group 540"><path class="cls-8" d="M256.22,224.88a5.15,5.15,0,0,1-.34-1.71c0-3-.31-6.06-.33-9.09a4.81,4.81,0,0,1,.4-1.89,6.51,6.51,0,0,1-.22-3c.43-2.78-.79-5.76-.68-8.59a.68.68,0,0,0,0-.14c-32.07-12-68.17-10.23-96.48,4.18-14.72,7.5-19.18,23.95-19.91,38.42a115.45,115.45,0,0,0,2.38,28.85H255.67a23.18,23.18,0,0,1-.2-4.64,6.3,6.3,0,0,1,.36-1.57,7.51,7.51,0,0,1-.36-2.1,3.62,3.62,0,0,1,.08-.93,4.88,4.88,0,0,1-.08-1.73c.36-3-.1-5.93-.13-8.94,0-1.91.33-4,.48-6,0-.25,0-.49,0-.74a6.44,6.44,0,0,1,.07-.9,12.39,12.39,0,0,0-.14-1.94,5.12,5.12,0,0,1,.23-2.7c.27-4.37-.71-8.73-.16-13.13A7.42,7.42,0,0,1,256.22,224.88Z" transform="translate(0 0)"/><path id="Path_20" data-name="Path 20" class="cls-9" d="M197.74,172.72h28.12A27,27,0,0,0,227.49,183c1.93,4.78,5.51,11,4.89,12.2s-7,5-16.71,5.6-20.28-3.54-21.4-5.19,3.11-7.45,4.28-12.61A19.67,19.67,0,0,0,197.74,172.72Z" transform="translate(0 0)"/><g id="Group_1" data-name="Group 1"><path class="cls-10" d="M255.56,392.92h0a5.33,5.33,0,0,1-.08-1.13v0a4.38,4.38,0,0,1,0-.52v-.05c0-.18.06-.36.1-.54h0c0-.05,0-.1,0-.15s0-.16,0-.25a4.47,4.47,0,0,1-.14-2.91,3.66,3.66,0,0,1-.05-.57c0-.09-.08-.18-.11-.26a4.89,4.89,0,0,1,0-2.63,5,5,0,0,1-.1-.79c-.2-3.75.25-7.64.25-11.41a5.31,5.31,0,0,1,.08-.91c0-.14-.05-.29-.07-.43a5.13,5.13,0,0,1,.3-2.95,6,6,0,0,1-.15-.88c0-.66-.09-1.32-.13-2H87.86a14.69,14.69,0,0,0-14.64,14.74h0A14.69,14.69,0,0,0,87.86,394H255.62a4.18,4.18,0,0,1-.07-1S255.56,392.94,255.56,392.92Z" transform="translate(0 0)"/><path class="cls-11" d="M256.49,285.92a4.72,4.72,0,0,1-.94-3c0-2.7.33-5.39.33-8.09s-.66-5-.41-7.58a6.3,6.3,0,0,1,.36-1.57,7.51,7.51,0,0,1-.36-2.1,3.62,3.62,0,0,1,.08-.93,4.88,4.88,0,0,1-.08-1.73c.36-3-.1-5.93-.13-8.94,0-1.91.33-4,.48-6,0-.25,0-.49,0-.74a6.44,6.44,0,0,1,.07-.9,12.39,12.39,0,0,0-.14-1.94,6.84,6.84,0,0,1-.08-.89H105.18a8.66,8.66,0,0,0-8.66,8.66V371.11h0a8.65,8.65,0,0,0,8.66,8.66h150c.06-2.7.28-5.43.28-8.1a5.31,5.31,0,0,1,.08-.91c0-.15-.05-.29-.07-.43a5.14,5.14,0,0,1,.3-2.95,6,6,0,0,1-.15-.88c-.61-7.48-.26-14.77-.08-22.25a5.41,5.41,0,0,1,.35-1.77,5.58,5.58,0,0,1-.18-1.4c0-2.68,0-5.38-.11-8.06a27.26,27.26,0,0,1-.06-3.94,6.38,6.38,0,0,1,.28-1.23,5.76,5.76,0,0,1,.06-2.48,5.23,5.23,0,0,1-.34-1.79c-.1-6.34-.33-12.68.41-19,0-.06,0-.12,0-.19a7.35,7.35,0,0,1-.2-1.06c-.52-4.85-.2-9.71-.17-14.58A4.83,4.83,0,0,1,256.49,285.92Z" transform="translate(0 0)"/><path class="cls-12" d="M256.49,285.92a4.72,4.72,0,0,1-.94-3c0-2.7.33-5.39.33-8.09s-.66-5-.41-7.58a6.3,6.3,0,0,1,.36-1.57,7.51,7.51,0,0,1-.36-2.1,3.62,3.62,0,0,1,.08-.93,4.88,4.88,0,0,1-.08-1.73c.36-3-.1-5.93-.13-8.94,0-1.91.33-4,.48-6,0-.25,0-.49,0-.74a6.44,6.44,0,0,1,.07-.9,12.39,12.39,0,0,0-.14-1.94,6.84,6.84,0,0,1-.08-.89H113.17a10,10,0,0,0-9.93,10V369.77a10,10,0,0,0,9.93,10h142c.06-2.7.28-5.43.28-8.1a5.31,5.31,0,0,1,.08-.91c0-.15-.05-.29-.07-.43a5.14,5.14,0,0,1,.3-2.95,6,6,0,0,1-.15-.88c-.61-7.48-.26-14.77-.08-22.25a5.41,5.41,0,0,1,.35-1.77,5.58,5.58,0,0,1-.18-1.4c0-2.68,0-5.38-.11-8.06a27.26,27.26,0,0,1-.06-3.94,6.38,6.38,0,0,1,.28-1.23,5.76,5.76,0,0,1,.06-2.48,5.23,5.23,0,0,1-.34-1.79c-.1-6.34-.33-12.68.41-19,0-.06,0-.12,0-.19a7.35,7.35,0,0,1-.2-1.06c-.52-4.85-.2-9.71-.17-14.58A4.83,4.83,0,0,1,256.49,285.92Z" transform="translate(0 0)"/></g><g id="Group_41" data-name="Group 41"><g id="Group_42" data-name="Group 42"><path id="Path_69" data-name="Path 69" class="cls-13" d="M196.32,119.42s40.26-4.34,44.88,1-1.2,25.63-2.74,40.69-1.11,14.18-4.86,20.41-8.75,8.82-17.87,9-16.88-7.8-21.8-13.72-3.2-18.7-5.18-21.08-5.29-4.18-6.84-8.83-2-8.3.64-9.78,8.48,6.24,10.53,3.25S196.32,119.42,196.32,119.42Z" transform="translate(0 0)"/><path id="Path_70" data-name="Path 70" class="cls-14" d="M183.71,108.64s2.15-14.63,21-17.56,33,9.78,35.14,11.26-2,3.9-.32,4.32,4.35-3.6,7.14-2.64,3.73,5.12,3.31,7.26-4.5,10.6-8.94,13.66-8.23,3.95-18.62,3.19-17.7-10-22.92-6.24-4,19.43-7,20.11-7.46-5.27-10-3.9-.43,6.79-1.83,5.58c-2.5-2.17-8.75-13.66-8-22.42S183.71,108.64,183.71,108.64Z" transform="translate(0 0)"/><path id="Path_71" data-name="Path 71" class="cls-15" d="M189.66,157.91s1.49-4,4.85-2.12,1.23,8.7,8.57,9.74,11.55-5.66,20.79-5.61,12.58,3.24,14,5.29-2,14.09-3.43,15.76-7.92,12.08-21.68,9.7c-9.73-1.68-20-13-21.41-18.78C190.13,168.51,189.66,157.91,189.66,157.91Z" transform="translate(0 0)"/><path id="Path_72" data-name="Path 72" class="cls-13" d="M212.35,169.51c1.69-2.92,5.8-3.95,8.3-4.41s7-.65,9.45,1.91a6.18,6.18,0,0,1,.43,8.33c-1.86,2-3.71-.61-7.87-.25s-6.19,3.09-8.76,1.7S210.67,172.43,212.35,169.51Z" transform="translate(0 0)"/></g></g></g><g id="sun-glasses"><g id="Group_541" data-name="Group 541"><path id="Path_2975" data-name="Path 2975" d="M250.68,140.35H249a7.69,7.69,0,0,0-1.7-2.62,7.1,7.1,0,0,0-3.6-2,36.35,36.35,0,0,0-6.08-.33H211.45a37.91,37.91,0,0,0-6.56.33,7.1,7.1,0,0,0-3.6,2,7.69,7.69,0,0,0-1.7,2.62h-1.71a1.66,1.66,0,0,0,0,3.31h1c0,.21,0,.43,0,.65,0,7.14,4.76,10.92,9.19,11.42a12.46,12.46,0,0,0,9.56-3,15.17,15.17,0,0,0,4.68-9.06h3.92a15.17,15.17,0,0,0,4.68,9.06,12.45,12.45,0,0,0,9.56,3c4.43-.5,9.19-4.28,9.19-11.42,0-.22,0-.44,0-.65h1a1.66,1.66,0,0,0,0-3.31Zm-24.79,0h-3.23c0-.2,0-.39,0-.59a3.59,3.59,0,0,0-.12-1H226a4.46,4.46,0,0,0-.12,1c0,.2,0,.4,0,.59Z" transform="translate(0 0)"/></g></g></g></g></svg>