<svg xmlns="http://www.w3.org/2000/svg" xmlns:xlink="http://www.w3.org/1999/xlink" viewBox="0 0 246.894 640.514"><defs><style>.a{fill:url(#a);}.b{fill:url(#b);}.c,.e{fill:#fff;}.c{opacity:0.13;}.d{fill:none;}.e{opacity:0.2;}</style><linearGradient id="a" x1="0.5" x2="0.5" y2="1" gradientUnits="objectBoundingBox"><stop offset="0" stop-color="#0cc7f4"/><stop offset="1" stop-color="#8824d1"/></linearGradient><linearGradient id="b" x1="0.5" x2="0.5" y2="1" gradientUnits="objectBoundingBox"><stop offset="0" stop-color="#46f0f7"/><stop offset="1" stop-color="#5c8af3"/></linearGradient></defs><g transform="translate(25 -898.678)"><path class="a" d="M2.069,0A2.069,2.069,0,0,1,4.138,2.069c0,296.086-.023,296.52-.023,296.52l-4.124-3.714L0,2.069A2.069,2.069,0,0,1,2.069,0Z" transform="translate(219.126 898.685) rotate(48)"/><g transform="translate(-44 1432)"><g transform="translate(21.94 21.45)"><path class="b" d="M41.156,0A41.156,41.156,0,1,1,0,41.156,41.156,41.156,0,0,1,41.156,0Z"/></g><g transform="translate(57.208 21.36)"><path class="c" d="M63.867,22a47.891,47.891,0,0,0-6.467.49,41.181,41.181,0,0,1,0,81.333,45.576,45.576,0,0,0,6.467.49,41.156,41.156,0,1,0,0-82.313Z" transform="translate(-57.4 -22)"/></g><g transform="translate(19 19)"><path class="d" d="M63.1,107.192a44.1,44.1,0,1,1,44.1-44.1A44.162,44.162,0,0,1,63.1,107.192Zm0-82.313A38.217,38.217,0,1,0,101.215,63.1,38.182,38.182,0,0,0,63.1,24.879Z" transform="translate(-19 -19)"/></g><g transform="translate(47.711 35.658)"><g transform="translate(0 27.536)"><ellipse class="e" cx="7.447" cy="7.349" rx="7.447" ry="7.349"/></g><g transform="translate(8.525)"><circle class="e" cx="3.92" cy="3.92" r="3.92"/></g><g transform="translate(36.159 17.638)"><ellipse class="e" cx="5.977" cy="5.879" rx="5.977" ry="5.879"/></g></g></g></g></svg>