<svg xmlns="http://www.w3.org/2000/svg" xmlns:xlink="http://www.w3.org/1999/xlink" viewBox="0 0 591.967 369.395"><defs><style>.a{fill:#26a69a;}.b{opacity:0.1;}.c{fill:url(#a);}.d{fill:#63d7cb;opacity:0.3;}.e,.g{fill:none;stroke:#535461;stroke-miterlimit:10;}.e{stroke-width:2px;}.f,.h{opacity:0.2;}.h{fill:#f5f5f5;}.i{fill:#a8a8a8;}.j{fill:url(#b);}.k{fill:#f7c4a7;}.l{fill:#535461;}.m{fill:#575988;}.n{fill:#e14b5a;}.o{fill:#632652;}.p{fill:#fff;opacity:0.5;}.q{fill:#67647e;}</style><linearGradient id="a" x1="0.5" y1="1" x2="0.5" gradientUnits="objectBoundingBox"><stop offset="0" stop-color="gray" stop-opacity="0.251"/><stop offset="0.54" stop-color="gray" stop-opacity="0.122"/><stop offset="1" stop-color="gray" stop-opacity="0.102"/></linearGradient><linearGradient id="b" x1="0.5" x2="0.5" y2="0" xlink:href="#a"/></defs><g transform="translate(0 0.014)"><rect class="a" width="58.609" height="23.33" rx="8.84" transform="translate(91.226 232.247)"/><rect class="a" width="58.609" height="23.33" rx="8.84" transform="translate(149.835 232.247)"/><rect class="b" width="58.609" height="23.33" rx="8.84" transform="translate(149.835 232.247)"/><rect class="a" width="58.609" height="23.33" rx="8.84" transform="translate(208.445 232.247)"/><rect class="a" width="58.609" height="23.33" rx="8.84" transform="translate(267.054 232.247)"/><rect class="b" width="58.609" height="23.33" rx="8.84" transform="translate(267.054 232.247)"/><rect class="a" width="58.609" height="23.33" rx="8.84" transform="translate(325.664 232.247)"/><rect class="a" width="58.609" height="23.33" rx="8.84" transform="translate(384.273 232.247)"/><rect class="b" width="58.609" height="23.33" rx="8.84" transform="translate(384.273 232.247)"/><rect class="a" width="58.609" height="23.33" rx="8.84" transform="translate(442.883 232.247) rotate(180)"/><rect class="a" width="58.609" height="23.33" rx="8.84" transform="translate(384.273 232.247) rotate(180)"/><rect class="b" width="58.609" height="23.33" rx="8.84" transform="translate(384.273 232.247) rotate(180)"/><rect class="a" width="58.609" height="23.33" rx="8.84" transform="translate(325.664 232.247) rotate(180)"/><rect class="a" width="58.609" height="23.33" rx="8.84" transform="translate(267.054 232.247) rotate(180)"/><rect class="b" width="58.609" height="23.33" rx="8.84" transform="translate(267.054 232.247) rotate(180)"/><rect class="a" width="58.609" height="23.33" rx="8.84" transform="translate(208.445 232.247) rotate(180)"/><rect class="a" width="58.609" height="23.33" rx="8.84" transform="translate(149.835 232.247) rotate(180)"/><rect class="b" width="58.609" height="23.33" rx="8.84" transform="translate(149.835 232.247) rotate(180)"/><rect class="a" width="58.609" height="23.33" rx="8.84" transform="translate(91.226 185.587)"/><rect class="a" width="58.609" height="23.33" rx="8.84" transform="translate(149.835 185.587)"/><rect class="b" width="58.609" height="23.33" rx="8.84" transform="translate(149.835 185.587)"/><rect class="a" width="58.609" height="23.33" rx="8.84" transform="translate(208.445 185.587)"/><rect class="a" width="58.609" height="23.33" rx="8.84" transform="translate(267.054 185.587)"/><rect class="b" width="58.609" height="23.33" rx="8.84" transform="translate(267.054 185.587)"/><rect class="a" width="58.609" height="23.33" rx="8.84" transform="translate(325.664 185.587)"/><rect class="a" width="58.609" height="23.33" rx="8.84" transform="translate(384.273 185.587)"/><rect class="b" width="58.609" height="23.33" rx="8.84" transform="translate(384.273 185.587)"/><rect class="a" width="58.609" height="23.33" rx="8.84" transform="translate(442.883 185.587) rotate(180)"/><rect class="a" width="58.609" height="23.33" rx="8.84" transform="translate(384.273 185.587) rotate(180)"/><rect class="b" width="58.609" height="23.33" rx="8.84" transform="translate(384.273 185.587) rotate(180)"/><rect class="a" width="58.609" height="23.33" rx="8.84" transform="translate(325.664 185.587) rotate(180)"/><rect class="a" width="58.609" height="23.33" rx="8.84" transform="translate(267.054 185.587) rotate(180)"/><rect class="b" width="58.609" height="23.33" rx="8.84" transform="translate(267.054 185.587) rotate(180)"/><rect class="a" width="58.609" height="23.33" rx="8.84" transform="translate(208.445 185.587) rotate(180)"/><rect class="a" width="58.609" height="23.33" rx="8.84" transform="translate(149.835 185.587) rotate(180)"/><rect class="b" width="58.609" height="23.33" rx="8.84" transform="translate(149.835 185.587) rotate(180)"/><rect class="a" width="58.609" height="23.33" rx="8.84" transform="translate(91.226 140.065)"/><rect class="a" width="58.609" height="23.33" rx="8.84" transform="translate(149.835 140.065)"/><rect class="b" width="58.609" height="23.33" rx="8.84" transform="translate(149.835 140.065)"/><rect class="a" width="58.609" height="23.33" rx="8.84" transform="translate(208.445 140.065)"/><rect class="a" width="58.609" height="23.33" rx="8.84" transform="translate(267.054 140.065)"/><rect class="b" width="58.609" height="23.33" rx="8.84" transform="translate(267.054 140.065)"/><rect class="a" width="58.609" height="23.33" rx="8.84" transform="translate(325.664 140.065)"/><rect class="a" width="58.609" height="23.33" rx="8.84" transform="translate(384.273 140.065)"/><rect class="b" width="58.609" height="23.33" rx="8.84" transform="translate(384.273 140.065)"/><rect class="a" width="58.609" height="23.33" rx="8.84" transform="translate(442.883 140.065) rotate(180)"/><rect class="a" width="58.609" height="23.33" rx="8.84" transform="translate(384.273 140.065) rotate(180)"/><rect class="b" width="58.609" height="23.33" rx="8.84" transform="translate(384.273 140.065) rotate(180)"/><rect class="a" width="58.609" height="23.33" rx="8.84" transform="translate(325.664 140.065) rotate(180)"/><rect class="a" width="58.609" height="23.33" rx="8.84" transform="translate(267.054 140.065) rotate(180)"/><rect class="b" width="58.609" height="23.33" rx="8.84" transform="translate(267.054 140.065) rotate(180)"/><rect class="a" width="58.609" height="23.33" rx="8.84" transform="translate(208.445 140.065) rotate(180)"/><rect class="a" width="58.609" height="23.33" rx="8.84" transform="translate(149.835 140.065) rotate(180)"/><rect class="b" width="58.609" height="23.33" rx="8.84" transform="translate(149.835 140.065) rotate(180)"/><rect class="a" width="58.609" height="23.33" rx="8.84" transform="translate(91.226 93.405)"/><rect class="a" width="58.609" height="23.33" rx="8.84" transform="translate(149.835 93.405)"/><rect class="b" width="58.609" height="23.33" rx="8.84" transform="translate(149.835 93.405)"/><rect class="a" width="58.609" height="23.33" rx="8.84" transform="translate(208.445 93.405)"/><rect class="a" width="58.609" height="23.33" rx="8.84" transform="translate(267.054 93.405)"/><rect class="b" width="58.609" height="23.33" rx="8.84" transform="translate(267.054 93.405)"/><rect class="a" width="58.609" height="23.33" rx="8.84" transform="translate(325.664 93.405)"/><rect class="a" width="58.609" height="23.33" rx="8.84" transform="translate(384.273 93.405)"/><rect class="b" width="58.609" height="23.33" rx="8.84" transform="translate(384.273 93.405)"/><rect class="c" width="63.162" height="25.139" rx="8.84" transform="translate(379.721 15.682)"/><rect class="a" width="58.609" height="23.33" rx="8.84" transform="translate(440.607 39.917) rotate(180)"/><rect class="a" width="58.609" height="23.33" rx="8.84" transform="translate(384.273 93.405) rotate(180)"/><rect class="b" width="58.609" height="23.33" rx="8.84" transform="translate(384.273 93.405) rotate(180)"/><rect class="a" width="58.609" height="23.33" rx="8.84" transform="translate(325.664 93.405) rotate(180)"/><rect class="a" width="58.609" height="23.33" rx="8.84" transform="translate(267.054 93.405) rotate(180)"/><rect class="b" width="58.609" height="23.33" rx="8.84" transform="translate(267.054 93.405) rotate(180)"/><rect class="a" width="58.609" height="23.33" rx="8.84" transform="translate(208.445 93.405) rotate(180)"/><rect class="a" width="58.609" height="23.33" rx="8.84" transform="translate(149.835 93.405) rotate(180)"/><rect class="b" width="58.609" height="23.33" rx="8.84" transform="translate(149.835 93.405) rotate(180)"/><ellipse class="d" cx="283.943" cy="64.584" rx="283.943" ry="64.584" transform="translate(0 240.213)"/><path class="e" d="M191,568.3s5.121-17.3-.956-30.044a27.313,27.313,0,0,1-2.214-17.15,45.971,45.971,0,0,1,2.43-8.052" transform="translate(-126.162 -292.485)"/><path class="a" d="M185.87,496c0,2.122,3.841,8.274,3.841,8.274s3.841-6.151,3.841-8.274a3.841,3.841,0,0,0-7.682,0Z" transform="translate(-125.536 -283.482)"/><path class="a" d="M174.242,515.069c1.138,1.781,7.722,4.854,7.722,4.854s-.12-7.249-1.275-9.03a3.841,3.841,0,1,0-6.447,4.177Z" transform="translate(-120.259 -290.8)"/><path class="a" d="M173.592,549.334c1.895.956,9.1.3,9.1.3s-3.761-6.2-5.656-7.153a3.841,3.841,0,1,0-3.46,6.858Z" transform="translate(-119.33 -304.99)"/><path class="a" d="M180.534,576.3c1.707,1.263,8.934,1.832,8.934,1.832s-2.663-6.743-4.364-8.006a3.841,3.841,0,0,0-4.552,6.174Z" transform="translate(-122.641 -316.81)"/><path class="a" d="M195.929,523.8c-1.519,1.479-8.609,3.01-8.609,3.01s1.736-7.039,3.255-8.535a3.841,3.841,0,0,1,5.355,5.508Z" transform="translate(-126.161 -294.269)"/><path class="a" d="M202.624,554.549c-1.895.956-9.1.3-9.1.3s3.761-6.2,5.656-7.153a3.841,3.841,0,0,1,3.448,6.857Z" transform="translate(-128.833 -307.268)"/><path class="a" d="M205.454,586.166c-1.707,1.263-8.934,1.832-8.934,1.832s2.663-6.743,4.364-8.006a3.841,3.841,0,0,1,4.552,6.174Z" transform="translate(-130.126 -321.063)"/><path class="a" d="M661.915,437.8s18.715,18.715,8.148,46.484,18.112,73.973,18.112,73.973-.307-.045-.876-.148c-38.438-6.811-57.534-50.774-36.162-83.424C659.082,462.541,665.608,448.3,661.915,437.8Z" transform="translate(-322.22 -260.054)"/><path class="f" d="M661.915,437.8s18.715,18.715,8.148,46.484,18.112,73.973,18.112,73.973-.307-.045-.876-.148c-38.438-6.811-57.534-50.774-36.162-83.424C659.082,462.541,665.608,448.3,661.915,437.8Z" transform="translate(-322.22 -260.054)"/><path class="g" d="M673.538,437.8s10.567,22.937,0,41.653-1.81,71.23,26.277,78.776" transform="translate(-333.842 -260.054)"/><path class="a" d="M618.25,570.631s21.356-3.414,23.3,15.739,41.061,21.788,41.061,21.788l-.734.489c-32.3,21.2-63.162,13.5-58.518-14.647C625.09,583.537,624.936,573.016,618.25,570.631Z" transform="translate(-311.882 -317.2)"/><path class="h" d="M618.25,570.631s21.356-3.414,23.3,15.739,41.061,21.788,41.061,21.788l-.734.489c-32.3,21.2-63.162,13.5-58.518-14.647C625.09,583.537,624.936,573.016,618.25,570.631Z" transform="translate(-311.882 -317.2)"/><path class="g" d="M618.25,570.81s16.576,3.636,15.216,18.71,24.616,33.14,49.147,18.818" transform="translate(-311.882 -317.378)"/><path class="i" d="M809.526,624.645s-31.695-6.339-40.15-14.795-46.489-23.245-50.717-12.678-57.05,46.495-21.1,52.834,84.523,8.45,95.09,4.228S809.526,624.645,809.526,624.645Z" transform="translate(-340.69 -327.16)"/><path class="f" d="M697.58,669.5c35.922,6.339,84.523,8.45,95.089,4.228,8.046-3.221,13.657-18.681,15.847-25.879l1.058.222s-6.339,25.356-16.906,29.589-59.178,2.111-95.089-4.228c-10.368-1.832-13.332-6.128-12.217-11.568C686.2,665.41,689.835,668.136,697.58,669.5Z" transform="translate(-340.711 -350.581)"/><path class="j" d="M903.345,141.444a9.309,9.309,0,0,0-2.623-3.636c-8.507-7.75-22.26-5.4-32.821-10.14-2.435-1.093-4.928-2.606-7.568-2.191-3.687.569-7.119,4.78-10.333,2.913l.228.7-.228-.12,2.367,7.2a26.294,26.294,0,0,0,3.63,7.915,20.724,20.724,0,0,0,5.013,34.471c.114.239.222.484.33.728l.3.125a24.2,24.2,0,0,1,1.559,5.019c-2.737.381-7.511,3.414-12.2,7.875L841.623,192a30.693,30.693,0,0,1-16.866-5.736L796.67,166.088a9.4,9.4,0,0,0-5.377,2.378c-3.482-3.63-6.441-7.4-6.191-9.673,0,0-13.053-24.428-17.8-12.217s8.9,25.037,8.9,25.037l8.655,11.215a47.15,47.15,0,0,0-.649,5.946c10.681,12.217,48.054,23.267,48.054,23.267l5.827.285.034.285a19.843,19.843,0,0,0-.523,4.666v1.166c.3,19.483,2.965,79.094,2.965,79.094.518-.233,1.058-.444,1.6-.643l-.415,5.3s-24.918,3.488-43.308,10.47-18.983,15.125-18.983,15.125v71.845c-5.252,2.7-13.543,6.259-17.8,4.342-4.62-2.06-7.153-.33-7.614,1.474h0a2.274,2.274,0,0,0,0,1.087h0a1.943,1.943,0,0,0,.176.461v.034a1.849,1.849,0,0,0,.313.41c1.781,1.747,40.344,16.866,49.243,14.538a6.145,6.145,0,0,0,.808-.273c.085-.034.159-.08.245-.119s.33-.154.484-.245.176-.119.262-.176.267-.176.393-.273a2.615,2.615,0,0,0,.245-.222c.08-.074.233-.2.336-.313s.148-.171.222-.256.2-.228.3-.353.125-.188.193-.279.182-.262.262-.4.108-.194.159-.3.159-.29.233-.444a3.243,3.243,0,0,0,.131-.3c.04-.1.142-.324.2-.489s.068-.2.108-.3a5.494,5.494,0,0,0,.176-.569,1.1,1.1,0,0,1,.08-.29c.051-.2.108-.393.154-.569a1.56,1.56,0,0,1,.057-.273c.046-.216.091-.432.125-.649a.527.527,0,0,1,.04-.245c.04-.233.074-.472.1-.706v-.2c.029-.256.057-.512.08-.768v-.159q.034-.415.051-.831v-1.058A48.7,48.7,0,0,0,808.09,400.6h0l2.236-61.187a333.761,333.761,0,0,0,34.915-1.286l1.275,29.2s0,19.193,6.527,27.916c5.588,7.466,12.041,40.486,13.782,49.858-2.4,4.552-6.982,10.242-14.971,10.049,0,0-15.028-1.3-14.18,2.845h0a2.118,2.118,0,0,0,.1.319h0a2.94,2.94,0,0,0,.165.347h0c.063.108.131.216.211.33l.046.068q.128.179.29.376v.028c.1.119.211.239.33.358l.1.1c.137.137.273.273.432.415,7.71,6.982,52.8,8.143,52.8,8.143v-.324h0c0-2.02-.3-12.615-2.993-20.593h.626s-6.527-58.746-11.864-65.722c0,0-1.417-30.978,1.781-50.387l.569-.216c14.954-5.588,16.018-19.347,14.476-29.453,2.845.91,4.507,1.531,4.507,1.531s-.051-.438-.148-1.218l.148.057s-.285-1.849-.757-4.729c-1.07-7.926-3.141-21.776-5.349-28.315-.358-1.44-.7-2.669-1.013-3.6a61.484,61.484,0,0,1-2.612-12.08,143.182,143.182,0,0,1-.916-16.024,153.777,153.777,0,0,1,1.639-21.373,130.77,130.77,0,0,0,1.65-18.123,24.164,24.164,0,0,0-.359-5.121c-.791-3.625-4.29-5.98-7.927-7.483-.233-.1-.472-.176-.711-.267.091-1.371.2-2.93.353-4.552a3.909,3.909,0,0,0,3.022.615c1.565-.341,2.686-1.644,3.682-2.845,5.258-6.458,10.658-13.19,12.678-21.213a45.822,45.822,0,0,0,1.138-10.925v-.6A11.879,11.879,0,0,0,903.345,141.444Z" transform="translate(-370.38 -125.42)"/><path class="k" d="M932.34,202.385s7.966,11.949,6.259,17.64,18.778,2.276,18.778,2.276.569-22.192,4.552-27.313S932.34,202.385,932.34,202.385Z" transform="translate(-447.247 -154.878)"/><path class="k" d="M814.115,196.613s-16.5-13.657-15.933-18.778c0,0-12.518-23.9-17.071-11.95s8.535,24.468,8.535,24.468l15.933,21.054Z" transform="translate(-381.657 -141.424)"/><path class="l" d="M788.376,598.92s-15.364,9.673-21.623,6.828-8.535,1.707-6.828,3.414,38.694,16.5,47.229,14.226,4.194-20.917,4.194-20.917Z" transform="translate(-372.704 -329.493)"/><path class="l" d="M930.515,670.2s-3.7,15.648-16.5,15.364c0,0-19.347-1.707-11.949,5.121s50.643,7.966,50.643,7.966,0-23.33-7.966-28.451S930.515,670.2,930.515,670.2Z" transform="translate(-433.472 -359.231)"/><path class="m" d="M912.34,471.886l1.707,39.832s0,18.778,6.259,27.313,13.657,51.212,13.657,51.212h21.623s-6.259-57.471-11.381-64.3c0,0-2.276-50.643,5.69-62.023Z" transform="translate(-438.628 -271.311)"/><path class="b" d="M912.34,471.886l1.707,39.832s0,18.778,6.259,27.313,13.657,51.212,13.657,51.212h21.623s-6.259-57.471-11.381-64.3c0,0-2.276-50.643,5.69-62.023Z" transform="translate(-438.628 -271.311)"/><path class="m" d="M909.886,412.765s13.088,31.3-10.811,40.4-67.145,7.966-67.145,7.966l-2.276,66.007s-26.744,3.414-27.313-5.121V449.752s.569-7.966,18.209-14.795,41.539-10.242,41.539-10.242l1.138-14.795Z" transform="translate(-391.22 -248.039)"/><path class="b" d="M931.156,233.6a27.228,27.228,0,0,1,13.372,1.889c3.488,1.468,6.828,3.773,7.6,7.318.9,4.2-.1,13.617-1.24,21.589a148.672,148.672,0,0,0-.694,37.721c.569,5.229,1.394,9.787,2.5,11.819,3.414,6.259,6.828,35.848,6.828,35.848s-37.556-14.226-56.333-5.69c0,0-2.561-58.325-2.845-77.387-.222-14.76,18.493-31.581,24.753-32.15C928.766,234.231,927.508,233.986,931.156,233.6Z" transform="translate(-433.459 -171.98)"/><path class="n" d="M931.156,231.6a27.227,27.227,0,0,1,13.372,1.889c3.488,1.468,6.828,3.773,7.6,7.318.9,4.2-.1,13.617-1.24,21.589a148.672,148.672,0,0,0-.694,37.721,61.182,61.182,0,0,0,2.5,11.819c2.561,7.682,6.828,35.848,6.828,35.848s-37.556-14.226-56.333-5.69c0,0-2.561-58.325-2.845-77.387-.222-14.76,18.493-31.581,24.753-32.15C928.766,232.231,927.508,231.986,931.156,231.6Z" transform="translate(-433.459 -171.118)"/><path class="b" d="M941.313,270.348l-40.4-2.276s-2.572-19.808,3.26-19.6l39.985,1.394S952.693,260.105,941.313,270.348Z" transform="translate(-433.459 -178.456)"/><path class="n" d="M902.522,249.149l-46.091-2.276s-35.849-10.811-46.091-22.761c0,0,.569-21.054,11.949-22.192l26.921,19.739a29.066,29.066,0,0,0,16.172,5.611l39.985,1.394S913.9,238.907,902.522,249.149Z" transform="translate(-394.668 -158.396)"/><path class="b" d="M957.093,205.377c.677-5.394,3.124-7.187,4.837-9.389,3.983-5.121-29.589,7.4-29.589,7.4a60.363,60.363,0,0,1,4.552,8.37,20.4,20.4,0,0,0,8.535,1.872C950.355,213.628,953.553,208.3,957.093,205.377Z" transform="translate(-447.247 -155.309)"/><circle class="k" cx="20.485" cy="20.485" r="20.485" transform="translate(477.695 16.78)"/><path class="b" d="M927.688,151.6c-2.179-2.384-3.232-5.559-4.222-8.638l-2.276-7.05c3.084,1.821,6.373-2.276,9.912-2.845,2.532-.4,4.928,1.075,7.261,2.14,10.129,4.632,23.33,2.333,31.478,9.918a9.1,9.1,0,0,1,2.515,3.556,11.893,11.893,0,0,1,.455,3.983,45.694,45.694,0,0,1-1.064,10.686c-1.935,7.847-7.113,14.436-12.16,20.752-.956,1.2-2.031,2.475-3.534,2.811-2.93.654-5.2-2.509-6.328-5.286a56.275,56.275,0,0,1-3.3-11.42,15,15,0,0,0-1.354-4.825c-1.764-3.124-6.111-6.083-8.752-8.507S930.112,154.247,927.688,151.6Z" transform="translate(-442.442 -128.693)"/><path class="o" d="M927.688,150.6c-2.179-2.384-3.232-5.559-4.222-8.638l-2.276-7.05c3.084,1.821,6.373-2.276,9.912-2.845,2.532-.4,4.928,1.075,7.261,2.14,10.129,4.632,23.33,2.333,31.478,9.918a9.1,9.1,0,0,1,2.515,3.556,11.893,11.893,0,0,1,.455,3.983,45.694,45.694,0,0,1-1.064,10.686c-1.935,7.847-7.113,14.436-12.16,20.752-.956,1.2-2.031,2.475-3.534,2.811-2.93.654-5.2-2.509-6.328-5.286a56.275,56.275,0,0,1-3.3-11.42,15,15,0,0,0-1.354-4.825c-1.764-3.124-6.111-6.083-8.752-8.507S930.112,153.247,927.688,150.6Z" transform="translate(-442.442 -128.262)"/><ellipse class="k" cx="1.707" cy="3.699" rx="1.707" ry="3.699" transform="translate(501.879 35.843)"/><path class="b" d="M960.86,368.42s-1.138,3.414-6.828,2.845-22.192-1.707-22.192,0" transform="translate(-447.032 -230.153)"/><path class="p" d="M902.066,705.123a4.731,4.731,0,0,1-1.656-2.373c-.148.74.307,1.707,1.656,2.942,7.4,6.828,50.643,7.966,50.643,7.966v-.569C952.43,713.083,909.44,711.928,902.066,705.123Z" transform="translate(-433.475 -374.241)"/><path class="p" d="M807.15,628.516c-8.535,2.276-45.522-12.518-47.229-14.226a1.849,1.849,0,0,1-.472-.831,2.048,2.048,0,0,0,.472,1.969c1.707,1.707,38.694,16.5,47.229,14.226,4.393-1.172,5.372-6.675,5.292-11.745C812.357,622.633,811.213,627.424,807.15,628.516Z" transform="translate(-372.701 -335.759)"/><path class="q" d="M581.284,627.867a.854.854,0,1,0-.854-.854A.853.853,0,0,0,581.284,627.867Z" transform="translate(-295.582 -341.233)"/><path class="i" d="M171.33,593.938s21.236-.654,27.632-5.212,32.662-10,34.25-2.691,31.917,36.349,7.921,36.565-55.7-3.733-62.092-7.625S171.33,593.938,171.33,593.938Z" transform="translate(-119.27 -322.4)"/><path class="f" d="M241.582,628.7c-23.973.193-55.7-3.733-62.092-7.625-4.865-2.965-6.828-13.594-7.449-18.5h-.711s1.343,17.128,7.733,21.014,38.119,7.847,62.069,7.676c6.919-.057,9.309-2.515,9.178-6.163C249.372,627.287,246.731,628.664,241.582,628.7Z" transform="translate(-119.27 -331.071)"/><rect class="a" width="58.609" height="23.33" rx="8.84" transform="translate(591.967 326.136) rotate(180)"/><rect class="b" width="58.609" height="23.33" rx="8.84" transform="translate(591.967 326.136) rotate(180)"/><rect class="a" width="58.609" height="23.33" rx="8.84" transform="translate(533.357 280.614)"/><rect class="a" width="58.609" height="23.33" rx="8.84" transform="translate(591.967 280.614) rotate(180)"/><rect class="b" width="58.609" height="23.33" rx="8.84" transform="translate(591.967 280.614) rotate(180)"/><rect class="a" width="58.609" height="23.33" rx="8.84" transform="translate(533.357 233.954)"/></g></svg>