<svg xmlns="http://www.w3.org/2000/svg" xmlns:xlink="http://www.w3.org/1999/xlink" viewBox="0 0 329.184 222"><defs><style>.a{fill:#63d7cb;opacity:0.3;}.b{fill:#26a69a;}.c{fill:none;stroke:#535461;stroke-miterlimit:10;stroke-width:2px;}.d{fill:#f5f5f5;opacity:0.2;}.e{fill:url(#a);}.f{fill:#535461;}.g{fill:#fff;}.h{fill:url(#c);}.i{fill:url(#d);}.j{fill:#f7c4a7;}.k{opacity:0.05;}.l{fill:#575988;}.m{opacity:0.1;}.n{fill:#f3b5b7;}.o{fill:#dddbe2;}.p{fill:#fc6681;}</style><linearGradient id="a" x1="0.5" y1="1" x2="0.5" gradientUnits="objectBoundingBox"><stop offset="0" stop-color="gray" stop-opacity="0.251"/><stop offset="0.54" stop-color="gray" stop-opacity="0.122"/><stop offset="1" stop-color="gray" stop-opacity="0.102"/></linearGradient><linearGradient id="c" x1="0.5" y1="1" x2="0.5" y2="0" xlink:href="#a"/><linearGradient id="d" x1="0.5" y1="1" x2="0.5" y2="0" xlink:href="#a"/></defs><path class="a" d="M130.106,144.025a20.91,20.91,0,0,0-7.588.842c-6.536,2.293-9.634,9.794-8.627,16.276s5.151,12.13,9.45,17.292,8.957,10.266,11.315,16.436c1.176,3.08,1.725,6.529.531,9.605-1.843,4.741-7.4,7.389-12.735,7.94s-10.692-.522-16.046-.881a17.743,17.743,0,0,0-6.673.526,17.231,17.231,0,0,0-6.037,3.9c-6.943,6.3-12.5,14.905-11.6,23.941,1.017,10.24,10.085,18.333,20.018,22.675,3.289,1.451,6.768,2.6,9.663,4.658,7.626,5.416,9.339,15.573,8.579,24.536s-3.346,17.938-1.906,26.821c1.694,10.335,9.189,19.672,19.3,24.032,9.008,3.885,20.282,3.627,28.279-1.854a36.7,36.7,0,0,0,9.412-10.24,86.147,86.147,0,0,0,9.358-18.5c1.115-3.08,2.164-6.391,4.766-8.532a15.3,15.3,0,0,1,5.684-2.626c6.139-1.727,12.6-2.2,18.8-3.736s12.43-4.415,15.8-9.529c4.766-7.255,2.542-16.548,2.564-25.08.038-19.465,12.427-36.888,17-55.863,1.493-6.2,2.049-13.059-1.287-18.591-2.266-3.754-6.088-6.464-10.1-8.557-8.836-4.6-18.88-6.653-28.759-8.648-13.73-2.771-30.4-3.131-41.043-12.1C158,150.167,144.033,144.025,130.106,144.025Z" transform="translate(-81.999 -144)"/><ellipse class="a" cx="147.751" cy="45.169" rx="147.751" ry="45.169" transform="translate(33.681 131.662)"/><path class="b" d="M1004.876,330.86s-11.385,13-4.957,32.284-11.02,51.361-11.02,51.361.188-.033.534-.1c23.383-4.716,35-35.244,22-57.927C1006.6,348.047,1002.633,338.166,1004.876,330.86Z" transform="translate(-700.737 -263.077)"/><path class="c" d="M1004.876,330.86s-6.428,15.932,0,28.929,1.1,49.475-15.976,54.716" transform="translate(-700.737 -263.077)"/><path class="b" d="M1018.926,475.5s-12.993-2.362-14.175,10.93-24.981,15.134-24.981,15.134l.445.337c19.649,14.724,38.447,9.381,35.588-10.157C1014.763,484.465,1014.849,477.163,1018.926,475.5Z" transform="translate(-694.508 -355.15)"/><path class="d" d="M1018.926,475.5s-12.993-2.362-14.175,10.93-24.981,15.134-24.981,15.134l.445.337c19.649,14.724,38.447,9.381,35.588-10.157C1014.763,484.465,1014.849,477.163,1018.926,475.5Z" transform="translate(-694.508 -355.15)"/><path class="c" d="M1018.926,475.79s-10.085,2.539-9.256,12.993-14.975,23.016-29.9,13.059" transform="translate(-694.508 -355.435)"/><path class="e" d="M549.67,357.679H529.258a8.685,8.685,0,0,0,.712-3.471V248.083c0-4.309-3.06-7.8-6.835-7.8H365.107c-3.776,0-6.838,3.492-6.838,7.8V354.211a8.686,8.686,0,0,0,.712,3.472H337.848a1.949,1.949,0,0,0-1.808,2.064v1.665c.005,6.37,4.53,11.532,10.111,11.532H541.367c5.584,0,10.111-5.168,10.111-11.543v-1.665A1.948,1.948,0,0,0,549.67,357.679Zm-125.792,6.6-1.741-2.267h43.442l-1.938,2.271Z" transform="translate(-255.32 -205.355)"/><rect class="f" width="167.808" height="118.977" rx="23.26" transform="translate(104.891 36.427)"/><rect class="g" width="160.388" height="97.198" transform="translate(108.421 53.77)"/><ellipse class="g" cx="1.414" cy="1.614" rx="1.414" ry="1.614" transform="translate(187.203 43.685)"/><path class="f" d="M473.948,560.73l-5.513,6.453h-38.86L424.6,560.73H345.5a1.9,1.9,0,0,0-1.767,2.017v1.625c0,6.23,4.424,11.281,9.882,11.281H544.4c5.458,0,9.882-5.051,9.882-11.281v-1.625a1.9,1.9,0,0,0-1.767-2.017Z" transform="translate(-260.566 -409.563)"/><path class="e" d="M421.813,301.65H354.156c-3.422,0-6.2,3.159-6.206,7.066v107.01c.005,3.907,2.783,7.07,6.206,7.066h67.657c3.422,0,6.2-3.159,6.206-7.066V308.716C428.013,304.809,425.236,301.646,421.813,301.65Z" transform="translate(-263.445 -244.463)"/><rect class="f" width="78.165" height="118.618" rx="20" transform="translate(85.455 58.638)"/><rect class="g" width="70.222" height="96.178" transform="translate(89.427 69.857)"/><ellipse class="g" cx="0.953" cy="1.088" rx="0.953" ry="1.088" transform="translate(123.266 62.991)"/><ellipse class="g" cx="2.86" cy="3.265" rx="2.86" ry="3.265" transform="translate(121.36 168.187)"/><path class="h" d="M336.13,401.65H301.391a3.7,3.7,0,0,0-3.441,3.914v86.848a3.7,3.7,0,0,0,3.441,3.914H336.13a3.7,3.7,0,0,0,3.441-3.914V405.564A3.7,3.7,0,0,0,336.13,401.65Z" transform="translate(-229.333 -308.189)"/><rect class="f" width="40.989" height="93.588" rx="11" transform="translate(68.932 94.187)"/><rect class="g" width="34.952" height="76.176" transform="translate(71.951 102.893)"/><ellipse class="g" cx="0.318" cy="0.363" rx="0.318" ry="0.363" transform="translate(84.978 98.177)"/><rect class="g" width="6.99" height="0.725" rx="0.363" transform="translate(86.885 98.177)"/><ellipse class="g" cx="2.224" cy="2.539" rx="2.224" ry="2.539" transform="translate(87.043 180.157)"/><path class="c" d="M282.169,588.689s-4.213-16.324.791-28.345a29.1,29.1,0,0,0,1.837-16.182,48.057,48.057,0,0,0-2-7.592" transform="translate(-217.434 -394.167)"/><path class="b" d="M283.8,509.257c0,2-3.177,7.8-3.177,7.8s-3.177-5.8-3.177-7.8a3.205,3.205,0,1,1,6.355,0Z" transform="translate(-215.346 -374.451)"/><path class="b" d="M300.3,536.114c-.953,1.68-6.38,4.581-6.38,4.581s.1-6.841,1.052-8.521a3.11,3.11,0,0,1,2.857-1.794,3.184,3.184,0,0,1,2.737,2.023,4.064,4.064,0,0,1-.265,3.71Z" transform="translate(-226.583 -390.221)"/><path class="b" d="M297.064,586.471c-1.566.9-7.534.279-7.534.279S292.641,580.9,294.2,580a3.012,3.012,0,0,1,4.145,1.672,3.9,3.9,0,0,1-1.286,4.8Z" transform="translate(-223.588 -421.64)"/><path class="b" d="M287.944,626.484c-1.411,1.19-7.384,1.727-7.384,1.727s2.2-6.362,3.61-7.552a2.929,2.929,0,0,1,4.318.86,3.99,3.99,0,0,1-.543,4.965Z" transform="translate(-217.468 -447.364)"/><path class="b" d="M270.606,548.749c1.271,1.393,7.114,2.84,7.114,2.84s-1.433-6.642-2.691-8.035a2.929,2.929,0,0,0-3.138-1.025,3.45,3.45,0,0,0-2.274,2.672,3.951,3.951,0,0,0,.988,3.551Z" transform="translate(-209.944 -397.887)"/><path class="b" d="M258.437,593.917c1.566.9,7.534.279,7.534.279s-3.111-5.848-4.674-6.747a2.844,2.844,0,0,0-3.254.1,3.807,3.807,0,0,0-1.466,3.318,3.649,3.649,0,0,0,1.861,3.05Z" transform="translate(-201.099 -426.296)"/><path class="b" d="M255.946,641.084c1.411,1.19,7.384,1.727,7.384,1.727s-2.2-6.363-3.61-7.552a2.929,2.929,0,0,0-4.318.86A3.989,3.989,0,0,0,255.946,641.084Z" transform="translate(-199.879 -456.668)"/><path class="i" d="M766.8,440.5c-3.517-4.872-7.778-10.469-7.181-16.951.483-5.249-.674-10.1-.445-15.37.318-7.483-1-13.342-5.719-18.137-2.758-2.8-7.369-5.006-8.741-4.444-2.72,1.11-5.688.686-8.487,1.451a8.135,8.135,0,0,0-4.417,2.539c-1.763,1.814-1.792,4.353-.988,7.055a13.437,13.437,0,0,0-.684,9.669,11.4,11.4,0,0,0,5.841,7.046c-1.961.936-3.654,3.091-4.315,7.465a56.864,56.864,0,0,1-2.075,8.818,11.7,11.7,0,0,1-1.271.584c.1.044.194.073.289.113-.207.091-.41.181-.635.261a6.115,6.115,0,0,0,1.16.384,52.681,52.681,0,0,1-5.719,11.873s-5.926,1.494-8.23-1.121c0,0,.375.5.883,1.251-2.253-1.066-5.951-2.808-9.113-4.241-2.294-1.041-2.882,0-2.86,1.451a3.888,3.888,0,0,0-1.589.609,14.943,14.943,0,0,0-2.126-1.306c-1.315-.363-5.6-2.989-9.876,5.974-2.491,5.213-8.878,14.727-13.787,21.765-9.548,5.013-21.978,11.361-26.6,12.957h-2.961c-.388-.725-.658-1.182-.658-1.182l-.229.174-.1-.174s-5.815,4.6-11.718,4.632a9.823,9.823,0,0,1-2.491-.363,21.25,21.25,0,0,0-5.993-1.088c-1.617-.033-2.542.406-3.1,1.233h0a3.276,3.276,0,0,0-.207.341h0q-.094.176-.171.363h0c-.051.131-.1.268-.146.41a.924.924,0,0,0,.184.707,3.7,3.7,0,0,0,.257.363l.165.2a27.092,27.092,0,0,0,3.781,3.341c.486.363,1,.762,1.538,1.157l1.02.726.912.649.365.258.407.283.728.5.432.3.817.555.661.446c1.729,1.164,3.451,2.292,5,3.294l1.087.74.1.065.7.446,1.208.765.829.522.388.243.416.261.083.051.724.45a.958.958,0,0,0,.845-.261c.21-1.016.721-3.192,1.271-3.359s2.93-4.915,3.6-8.093H656.3a25.071,25.071,0,0,0,3.762-.66c-1.659,1.349-3.3,2.2-4.579,1.836-2.7-.765-5.259,1.114-5.516,2.967a.521.521,0,0,1-.032.116c-.01.04-.016.076-.022.112s-.019.091-.025.138a.7.7,0,0,0,0,.116v.5a.822.822,0,0,0,.032.149c.013.051,0,.065.022.094a1.967,1.967,0,0,0,.07.192l.016.047a2.012,2.012,0,0,0,.121.229l.051.076a1.508,1.508,0,0,0,.1.149l.073.083c.038.044.079.087.121.13l.089.083.143.12.1.08.172.116.114.069.216.116.108.054c.114.054.235.105.365.152.206.076.451.156.728.236l.276.076.4.105.213.054q.413.1.877.2l.429.091.35.072.8.16c.5.1,1.026.2,1.589.29l1.385.239,1.8.294.4.062.635.1.931.141.635.094h0l1.649.239.515.073,1.039.145c1.366.189,2.688.363,3.905.519l1.408.181.712.091.318.036.852.105.473.058.585.069.823.1h.089l.528.062h0a.442.442,0,0,0,.368-.133.583.583,0,0,0,.163-.4h0v-.062a.583.583,0,0,0,.076-.283,13.993,13.993,0,0,1,.3-2.655c.035-.149.076-.3.121-.453l.051-.174c.057-.185.114-.363.181-.562q.072-.2.124-.413a.561.561,0,0,1,.035-.134c.013-.047.032-.149.044-.225.661-2.579-.137-7.389-.365-9.279a11.288,11.288,0,0,0-.362-1.777.562.562,0,0,0,.124,0,3.634,3.634,0,0,0,.953-.591c4.855-1.977,8.948-4.237,10.241-6.5a7.882,7.882,0,0,1,6.253.747c2.513,1.426,21.527,8.51,30.38,11.782,1.589,1.563,2.834,2.478,3.524,2.409,0,0,11.27,2.082,15.8-1.981.4.319.658.49.658.49s6.584-3.733,7.572-8.59c.318-1.574.607-3.9.9-6.464a10.119,10.119,0,0,0,2.389-6.606c.207-8.154,2.974-17.47,5.027-25.755,2.491.225,3.454-.312,5.738-1.6l-.1-.149C766.519,440.649,766.662,440.576,766.8,440.5ZM729.06,452.71l-1.271-.482a12.419,12.419,0,0,0,1.1-2.082Zm-7.082,3.432,7.626,5.224.067,1.063a8.681,8.681,0,0,0,.063,2.43c-3.362-3.41-7.3-7.549-7.759-8.72Zm-3.114-7.618a20.988,20.988,0,0,1-2-1.041c.635.051,1.239.094,1.767.127a5.01,5.01,0,0,1,.229.914Zm-20.425,8.514s1.315-3.359,4.28,2.242c.461.871,1.309,2.256,2.431,3.972l-8.63-1.317a15.22,15.22,0,0,0,1.919-4.893Z" transform="translate(-450.648 -297.901)"/><path class="j" d="M892.383,535.863s-6.037-2.9-10.8-5.078-1.906,5.078-1.906,5.078,7.944,2.539,7.944,2.9,6.673.725,6.673.725Z" transform="translate(-625.636 -390.221)"/><path class="k" d="M892.383,535.863s-6.037-2.9-10.8-5.078-1.906,5.078-1.906,5.078,7.944,2.539,7.944,2.9,6.673.725,6.673.725Z" transform="translate(-625.636 -390.221)"/><path class="l" d="M941.1,463.551s-10.8-6.529-12.71,6.167a55.478,55.478,0,0,1-7.944,21.4s-5.719,1.451-7.944-1.088c0,0,5.4,7.255,2.86,7.98,0,0,5.719,4.716,8.261,3.265s4.449-11.245,5.4-13.784S933.471,462.826,941.1,463.551Z" transform="translate(-648.612 -346.566)"/><path class="m" d="M941.1,463.551s-10.8-6.529-12.71,6.167a55.478,55.478,0,0,1-7.944,21.4s-5.719,1.451-7.944-1.088c0,0,5.4,7.255,2.86,7.98,0,0,5.719,4.716,8.261,3.265s4.449-11.245,5.4-13.784S933.471,462.826,941.1,463.551Z" transform="translate(-648.612 -346.566)"/><path class="j" d="M983.5,437.843s6.672,8.706,6.99,15.961,7.626-7.618,8.261-7.98-6.355-12.7-6.99-16.686S983.5,437.843,983.5,437.843Z" transform="translate(-697.052 -325.21)"/><path class="j" d="M906.96,320.75l-4.21,4.353,1.986,9.159,5.4-5.8-.635-5.8Z" transform="translate(-615.905 -204.399)"/><path class="j" d="M623.808,498.5H616.5l2.86,7.98,6.99-2.177Z" transform="translate(-420.61 -317.672)"/><path class="m" d="M654.371,639.33s-7.569,6.018-14.035,4.146-8.223-1.172-8.976,1.244c-.7,2.224,18.061,13.984,21.051,15.841a.306.306,0,0,0,.3.014.384.384,0,0,0,.194-.268c.2-.987.7-3.1,1.223-3.265.686-.21,3.813-6.892,3.641-9.518S654.371,639.33,654.371,639.33Z" transform="translate(-456.79 -459.652)"/><path class="n" d="M653.371,639.33s-7.569,6.018-14.035,4.146-8.223-1.172-8.976,1.244c-.7,2.224,18.061,13.984,21.051,15.841a.306.306,0,0,0,.3.014.383.383,0,0,0,.194-.268c.2-.987.7-3.1,1.223-3.265.686-.21,3.813-6.892,3.641-9.518S653.371,639.33,653.371,639.33Z" transform="translate(-456.108 -459.652)"/><path class="l" d="M770.554,593.765,749.265,590.5s-34.634,18.863-38.765,19.226l.953,8.343h6.355c2.542,0,27.326-6.167,30.821-12.333a7.563,7.563,0,0,1,6.037.725c3.177,1.814,33.681,13.059,33.681,13.059Z" transform="translate(-510.797 -428.534)"/><path class="m" d="M770.554,593.765,749.265,590.5s-34.634,18.863-38.765,19.226l.953,8.343h6.355c2.542,0,27.326-6.167,30.821-12.333a7.563,7.563,0,0,1,6.037.725c3.177,1.814,33.681,13.059,33.681,13.059Z" transform="translate(-510.797 -428.534)"/><path class="j" d="M691,486.5l-3.5,5.078,3.5,2.177,5.084-4.353Z" transform="translate(-469.05 -310.025)"/><path class="l" d="M838.46,561.791s-11.439-11.18-12.23-13.208-19.544-15.812-20.815-16.175-5.4-2.9-9.532,5.8S776.5,567.957,776.5,567.957s4.766,7.618,6.355,7.255,19.382-17.412,20.653-25.755c0,0,1.271-3.265,4.131,2.177s21.289,31.559,24.784,31.2c0,0,13.663,2.539,16.523-3.628S838.46,561.791,838.46,561.791Z" transform="translate(-555.826 -391.119)"/><path class="o" d="M967.1,467.044s-3.972,2-4.29,10.338-7.308,22.49-7.308,22.49l.635,16.686s7.626,8.706,8.261,14.147,6.037,9.069,6.037,9.069,6.355-3.627,7.308-8.343,1.589-16.324,3.178-20.676.635-31.559.635-31.559l-4.766-9.431-2.542-3.265-6.673,8.706S963.92,469.583,967.1,467.044Z" transform="translate(-677.949 -349.515)"/><path class="m" d="M956.36,511.99s-.953-13.059,1.906-15.961l5.719-18.5s2.065-8.887,1.748-9.613-7.467,7.074-7.467,7.074L953.5,494.215l1.271,20.314Z" transform="translate(-676.585 -350.387)"/><path class="l" d="M955.36,511.673s-.953-13.059,1.906-15.961l5.719-18.5s2.224-9.069,1.907-9.794-7.626,7.255-7.626,7.255L952.5,493.9l1.271,20.314Z" transform="translate(-675.902 -350.07)"/><path class="j" d="M899.914,549.1s-15.887-5.8-16.84-7.255-11.121-10.882-14.616-4.353,13.027,8.343,13.027,8.343l16.841,11.608Z" transform="translate(-618.233 -393.306)"/><path class="m" d="M735.932,642.715l-4.7-.965s-7.7,11.263-11.715,10.121-7.705,3.787-3.467,5.369c3.829,1.429,20.364,3.428,23.513,3.8a.429.429,0,0,0,.355-.13.564.564,0,0,0,.157-.385,12.973,12.973,0,0,1,.731-4.088c.848-2.376,0-7.48-.235-9.431a10.331,10.331,0,0,0-.925-3.265Z" transform="translate(-513.297 -461.194)"/><path class="n" d="M735.7,643.685l-4.7-.965s-7.7,11.263-11.709,10.124-7.705,3.787-3.467,5.369c3.829,1.429,20.364,3.428,23.513,3.8a.427.427,0,0,0,.355-.13.563.563,0,0,0,.157-.385,13,13,0,0,1,.7-4.085c.848-2.376,0-7.48-.235-9.431a10.336,10.336,0,0,0-.925-3.265Z" transform="translate(-513.143 -461.812)"/><ellipse class="m" cx="10.168" cy="11.608" rx="10.168" ry="11.608" transform="translate(278.663 93.588)"/><ellipse class="j" cx="10.168" cy="11.608" rx="10.168" ry="11.608" transform="translate(277.71 93.588)"/><path class="l" d="M989.784,465.5s12.074,4.716,12.074,14.51-6.673,25.392-6.99,38.088-17.794,10.882-17.794,10.882-2.542-42.8,0-46.069S991.055,466.951,989.784,465.5Z" transform="translate(-691.898 -348.877)"/><path class="m" d="M974.1,504.806s-4.448,22.49-14.934,18.5c0,0-5.4,9.069-1.589,13.059,0,0,9.215,2.539,15.252-4.353s10.485-9.431,11.439-17.775,1.589-19.951-1.589-18.863S974.1,504.806,974.1,504.806Z" transform="translate(-678.435 -367.87)"/><path class="l" d="M975.1,503.806s-4.448,22.49-14.934,18.5c0,0-5.4,9.069-1.589,13.059,0,0,9.214,2.539,15.252-4.353s10.485-9.431,11.439-17.775,1.589-19.951-1.589-18.863S975.1,503.806,975.1,503.806Z" transform="translate(-679.118 -367.233)"/><path class="o" d="M797.407,680a.362.362,0,0,1-.029.1,11.793,11.793,0,0,0-.5,1.919c.076-.283.165-.573.267-.863A5.878,5.878,0,0,0,797.407,680Z" transform="translate(-569.73 -485.569)"/><path class="o" d="M716.051,678.744c-1.309-.49-1.859-1.295-1.881-2.144-.54,1.183-.2,2.51,1.649,3.2,3.829,1.429,20.367,3.428,23.513,3.8a.429.429,0,0,0,.356-.131.564.564,0,0,0,.156-.388h0a.514.514,0,0,0-.416-.541C735.977,682.117,719.829,680.151,716.051,678.744Z" transform="translate(-513.142 -483.402)"/><path class="o" d="M630.819,651.079a4.779,4.779,0,0,1,.318-.769,3.659,3.659,0,0,0-.747,1.407c-.7,2.224,18.061,13.984,21.051,15.841a.306.306,0,0,0,.306.013.384.384,0,0,0,.193-.271h0a.414.414,0,0,0-.168-.435C648.466,664.8,630.132,653.277,630.819,651.079Z" transform="translate(-456.128 -466.649)"/><path class="o" d="M702.39,686.066c-.169.051-.334.308-.489.66l.051-.022c.14-.044.378-.363.667-.834a.63.63,0,0,1-.229.2Z" transform="translate(-504.93 -489.309)"/><path class="m" d="M961.557,416.1c-.9,2.256-1.083,4.8-1.741,7.164-1.306,4.69-4.582,8.572-8.506,10.07,3.3,1.5,7.2-.334,9.748-3.381s4.048-7.1,5.481-11.049c3.7,2.844,3.254,9.381,4.5,14.47a15.7,15.7,0,0,0,7.483,10.211,11.91,11.91,0,0,0,11.461-.265c-3.4-4.716-8.233-11.22-7.658-17.517.467-5.1-2.739-9-2.52-14.114.318-7.255-2.116-10.94-6.673-15.6-2.663-2.724,1.528-6.566-1.907-5.441-1.35.443-2.774-1.208-4.1-.664-2.624,1.088-5.491.667-8.191,1.393C944.9,395.143,962.866,412.8,961.557,416.1Z" transform="translate(-675.091 -300.684)"/><path class="p" d="M962.557,414.9c-.9,2.256-1.083,4.8-1.741,7.164-1.306,4.69-4.582,8.572-8.506,10.07,3.3,1.5,7.2-.334,9.748-3.381s4.048-7.1,5.481-11.049c3.7,2.844,3.254,9.381,4.5,14.47a15.7,15.7,0,0,0,7.483,10.211,11.91,11.91,0,0,0,11.461-.265c-3.4-4.716-7.915-10.132-7.34-16.429.467-5.1-.229-10.342,0-15.457a26.054,26.054,0,0,0-7.359-18.921c-2.663-2.724-6.822-3.072-8.15-2.539-2.625,1.088-5.491.668-8.192,1.393C945.9,393.948,963.867,411.61,962.557,414.9Z" transform="translate(-675.773 -299.852)"/></svg>