<?xml version="1.0"?><svg version="1.2" baseProfile="tiny-ps" viewBox="0 0 737 737" xmlns="http://www.w3.org/2000/svg" xmlns:xlink="http://www.w3.org/1999/xlink"><title>Octalogic</title><g><g fill="#64e4d1" transform="matrix(.1 0 0 -.1 0 737)"><path d="M3294 7032l-22-27-243-151c-134-84-401-250-594-369-192-120-397-247-455-283s-188-117-290-180-268-167-370-230-212-131-245-152c-33-20-140-87-239-149-98-61-182-111-187-111h-9V2074l11-11 11-11-11-6c-13-8-15-46-2-46 5 0 89-50 187-111 99-62 206-129 239-149 33-21 143-89 245-152s268-167 370-230 232-144 290-180 242-151 410-255 431-267 585-363l280-173 38-36 37-35 168 167 167 167h30l167-167 168-167 37 35 38 36 280 173c154 96 417 259 585 363s352 219 410 255 187 116 288 178c100 63 266 166 370 230 103 64 214 133 247 154 33 20 140 87 239 149 98 61 182 111 187 111 13 0 11 34-2 47l-11 11 11 6 11 7v3309h-9c-5 0-89 50-187 111-99 62-206 129-239 149-33 21-144 90-247 154-104 64-270 167-370 230-101 62-230 142-288 178s-260 162-450 280-453 281-585 363l-240 149-34 33c-18 18-35 33-38 33s-81-75-175-167c-93-93-173-168-178-168s-85 75-178 168c-94 92-174 167-179 166-4 0-18-12-29-27zm137-346l112-109-564-561c-310-308-916-910-1346-1338s-786-778-792-778h-11l2 682 3 682 306 191c168 104 371 230 450 279s263 164 409 254c146 91 312 194 370 230s187 116 288 178c100 63 266 166 370 230 103 64 207 129 232 145s48 28 52 26c3-1 57-51 119-111zm668 85c25-15 130-81 233-145 104-64 270-167 370-230 101-62 230-142 288-178s224-139 370-230c146-90 330-205 409-254s282-175 450-279l306-191 3-682 2-682h-11c-6 0-362 350-792 778S4691 5708 4381 6016l-564 561 114 111c63 61 116 112 118 112s25-13 50-29zm258-1001c362-360 981-976 1375-1370l718-715-1053-1044c-578-575-1200-1192-1380-1371s-332-325-337-325-157 146-337 325-802 796-1380 1371L910 3685l718 715c394 394 1014 1011 1377 1373l660 657 17-2 18-3 657-655zM1342 2985c271-270 877-872 1347-1339l854-848-109-109c-60-60-113-109-118-109s-30 13-55 29c-25 15-130 81-233 145-104 64-270 167-370 230-101 62-230 142-288 178s-208 130-335 208c-126 79-313 195-415 258s-319 198-482 300l-298 185v262c0 144-3 452-7 685l-6 423 11-4c6-2 233-225 504-494zm5185 73c-4-232-7-539-7-683v-262l-297-185c-164-102-381-237-483-300s-288-179-415-258c-126-78-277-172-335-208s-187-116-288-178c-100-63-266-166-370-230-103-64-208-130-233-145-25-16-50-29-55-29s-58 49-118 109l-109 109 854 848c470 467 1077 1070 1349 1341s499 493 504 493h9l-6-422z"/></g></g></svg>