<svg id="Layer_1" data-name="Layer 1" xmlns="http://www.w3.org/2000/svg" viewBox="0 0 1635.31 1963.78"><defs><style>.cls-1{fill:#ee4323;}</style></defs><title>codeigniter</title><path class="cls-1" d="M760.93,2231.76c-117.75-50.9-227.93-180.26-228.2-312.62-.32-144.3,91.13-266.82,204.88-347.34-13.68,51.66-21.13,98.92,12.74,145.13,31.5,43,86.65,63.84,138.74,52.51,121.69-26.64,127.27-160.42,55.13-238.36C872.89,1453.89,803.88,1366.7,831,1254.77c13.6-56.11,48.05-108.67,91.7-146.24-33.55,88.16,61.78,175.11,124.59,218.42,109,75.14,228.51,131.92,328.7,220,105.38,92.57,183.2,217.74,167.48,362.91-17,157.35-142.06,266.78-282.31,322,296.37-65.41,602.59-295.42,608.86-624.1,5.2-270.4-180.3-478.5-410.08-597.64l-12-6.55c6.31,15.3,8.37,28.32,8.14,40a139.79,139.79,0,0,0,3.84-26.53,129,129,0,0,1-4.21,32.06l.37-5.53a134.82,134.82,0,0,1-17,40.55l3.37-3.63c-45.84,76-169.94,92.55-231.25,13.81-98.56-126.64,2.06-263.19,16.14-397.3,17.62-168.08-87.78-331.25-218.47-428.89,72,116.44-22.86,270.49-98.73,356.61-73.56,83.49-163,153.19-244.25,229-87.24,81.47-171.11,167.29-242.82,262.91-143.42,191.39-231.22,432.1-166.7,670.87,64.48,238.6,271.17,390.49,504.57,444.2Z" transform="translate(-234.84 -268.11)"/></svg>