<svg xmlns="http://www.w3.org/2000/svg" viewBox="0 0 180 180"><defs><style>.a{fill:#264de4;}.b{fill:#2965f1;}.c{fill:#ebebeb;}.d{fill:#fff;}</style></defs><g transform="translate(-8944.593 911.24)"><path class="a" d="M288.469,484.92l-73.51-17.977L198.58,304.92h180l-16.4,162Z" transform="translate(8746.013 -1216.16)"/><path class="b" d="M359.691,460.315,373.7,321.88H300.14V474.845Z" transform="translate(8734.466 -1219.864)"/><path class="c" d="M240.474,387.491l2.021,19.868h50.431V387.491Zm-4.059-40.221,2.047,19.868h54.455V347.27H236.37Zm56.5,91.829h-.1l-25.1-5.979-1.6-15.851H243.452l3.155,31.2L292.766,459.8h.106Z" transform="translate(8741.716 -1225.41)"/><path class="d" d="M352.416,387.491l4.068-40.221H300v19.868h31.756l-2.047,20.321H300v19.868h27.75l-2.659,25.792L300,439.115v20.673l46.194-11.294.337-3.361,5.318-52.32.549-5.338Z" transform="translate(8734.482 -1225.41)"/></g></svg>