<svg xmlns="http://www.w3.org/2000/svg" viewBox="0 0 180.001 180"><defs><style>.a{fill:#e44d26;}.b{fill:#f16529;}.c{fill:#ebebeb;}.d{fill:#fff;}</style></defs><g transform="translate(-7088.999 -1264.33)"><path class="a" d="M1078.23,337.49l-16.4,161.971L988.117,517.49l-73.509-18.029L898.23,337.49Z" transform="translate(6190.77 926.84)"/><path class="b" d="M981.86,504.426l59.562-14.556,13.99-138.421H981.86Z" transform="translate(6197.135 926.126)"/><path class="c" d="M953.981,392.259h31.874V372.39h-56.5l.538,5.333,5.542,54.75h50.426V412.6H956.047Zm5.123,50.148h-22.6l3.153,31.2,46.1,11.33h.108V464.2h-.1l-25.095-5.978Z" transform="translate(6193.14 925.055)"/><path class="d" d="M981.79,432.472h27.742l-2.615,25.771-25.127,5.978v20.714l46.2-11.292.334-3.359,5.294-52.311.549-5.333H981.79V432.51Zm0-40.26v.047h54.43l.452-4.469,1.076-10.077.538-5.333h-56.5V392.2Z" transform="translate(6197.13 925.056)"/></g></svg>