<svg xmlns="http://www.w3.org/2000/svg" viewBox="0 0 180 123.242"><defs><style>.a{fill:#fb503b;}</style></defs><path class="a" d="M179.284,57.569c-1.284-1.284-17.758-22.037-20.539-25.46-3-3.423-4.279-2.781-6.2-2.567s-22.679,3.851-25.032,4.065c-2.353.428-3.851,1.284-2.353,3.423,1.284,1.926,14.976,21.181,17.972,25.674L88.569,75.755,45.351,3.226C43.639.659,43.211-.2,39.36.017S5.342,2.8,3.2,2.8C1.063,3.012-1.29,3.868.849,9S37.221,87.736,38.077,89.876s3.423,5.563,9.2,4.279c5.991-1.5,26.53-6.846,37.869-9.842,5.991,10.7,17.972,32.52,20.325,35.73,3,4.279,5.135,3.423,9.628,2.139,3.637-1.07,56.055-19.9,58.408-20.967s3.851-1.712,2.139-4.065C174.363,95.438,160.67,76.825,153.4,67.2c4.921-1.284,22.679-5.991,24.6-6.632,2.14-.642,2.567-1.712,1.284-3ZM80.225,77.895c-.642.214-31.237,7.488-32.734,7.916-1.712.428-1.712.214-1.712-.428-.428-.642-36.371-75.1-37.013-75.952-.428-.856-.428-1.712,0-1.712S37.649,5.152,38.5,5.152c1.07,0,.856.214,1.284.856,0,0,40.009,69.106,40.65,70.176.856,1.07.428,1.5-.214,1.712Zm86.008,16.046c.428.856,1.07,1.284-.642,1.712-1.5.642-51.562,17.544-52.632,17.972s-1.712.642-3-1.284S92.42,82.387,92.42,82.387l53.273-13.907c1.284-.428,1.712-.642,2.567.642.856,1.5,17.544,24.176,17.972,24.818Zm3.423-37.655C168.372,56.5,148.9,61.42,148.9,61.42L132.856,39.6c-.428-.642-.856-1.284.214-1.5s19.255-3.423,20.111-3.637,1.5-.428,2.567,1.07c1.07,1.284,14.763,18.828,15.4,19.469s-.214,1.07-1.5,1.284Z" transform="translate(-0.006 0.015)"/></svg>